<?xml version="1.0" encoding="UTF-8"?>
<!DOCTYPE svg PUBLIC "-//W3C//DTD SVG 1.1//EN" "http://www.w3.org/Graphics/SVG/1.1/DTD/svg11.dtd">
<!-- Creator: CorelDRAW X7 -->
<svg xmlns="http://www.w3.org/2000/svg" xml:space="preserve" width="35.2776mm" height="34.5722mm" version="1.1" style="shape-rendering:geometricPrecision; text-rendering:geometricPrecision; image-rendering:optimizeQuality; fill-rule:evenodd; clip-rule:evenodd"
viewBox="0 0 3528 3457"
 xmlns:xlink="http://www.w3.org/1999/xlink">
 <defs>
  <style type="text/css">
   <![CDATA[
    .str1 {stroke:#C1CCD5;stroke-width:70.56;stroke-linecap:square;stroke-linejoin:round}
    .str0 {stroke:#C1CCD5;stroke-width:35.28;stroke-linecap:square;stroke-linejoin:round}
    .fil0 {fill:none}
   ]]>
  </style>
 </defs>
 <g id="Слой_x0020_1">
  <metadata id="CorelCorpID_0Corel-Layer"/>
  <g id="_5235532448">
   <g>
    <path class="fil0 str0" d="M385 2565c-275,-460 -278,-956 -8,-1109 273,-153 720,97 1000,561 279,466 281,966 4,1116 -275,148 -721,-107 -996,-568"/>
    <path class="fil0 str0" d="M1923 2956c307,-173 305,-724 -4,-1259 -308,-533 -803,-796 -1105,-619"/>
    <line class="fil0 str0" x1="814" y1="1078" x2="291" y2= "1349" />
    <path class="fil0 str0" d="M291 1349c-297,175 -293,742 9,1269 302,528 792,820 1094,650"/>
    <line class="fil0 str0" x1="1394" y1="3268" x2="1923" y2= "2956" />
   </g>
   <polyline class="fil0 str0" points="670,2011 847,2328 1164,2152 "/>
   <polyline class="fil0 str0" points="1270,847 3210,2011 3457,1834 "/>
   <line class="fil0 str0" x1="1305" y1="247" x2="1623" y2= "459" />
   <line class="fil0 str0" x1="1905" y1="670" x2="2515" y2= "1025" />
   <polyline class="fil0 str0" points="2822,1164 3205,1402 3457,1270 "/>
   <line class="fil0 str0" x1="3210" y1="3387" x2="3210" y2= "1376" />
   <g>
    <polygon class="fil0 str0" points="2328,1623 2611,1799 2611,2081 2328,1905 "/>
    <polygon class="fil0 str0" points="2328,2011 2611,2187 2611,2469 2328,2293 "/>
    <polygon class="fil0 str0" points="2328,2399 2611,2575 2611,2857 2328,2681 "/>
   </g>
   <g>
    <polygon class="fil0 str0" points="1901,1367 2187,1552 2187,1834 1905,1658 "/>
    <polyline class="fil0 str0" points="1976,1799 2187,1940 2187,2222 "/>
   </g>
   <g>
    <polygon class="fil0 str0" points="2752,1905 3034,2081 3034,2364 2752,2187 "/>
    <polygon class="fil0 str0" points="2752,2293 3034,2469 3034,2752 2752,2575 "/>
   </g>
   <line class="fil0 str0" x1="1729" y1="435" x2="1764" y2= "449" />
   <path class="fil0 str0" d="M1764 449c78,30 141,111 141,179"/>
   <line class="fil0 str0" x1="1905" y1="628" x2="1905" y2= "907" />
   <path class="fil0 str0" d="M1905 907c0,69 -63,99 -141,69"/>
   <line class="fil0 str0" x1="1764" y1="976" x2="1729" y2= "962" />
   <path class="fil0 str0" d="M1729 962c-78,-30 -141,-110 -141,-179"/>
   <line class="fil0 str0" x1="1588" y1="783" x2="1588" y2= "504" />
   <path class="fil0 str0" d="M1588 504c0,-69 63,-99 141,-69"/>
   <line class="fil0 str0" x1="1605" y1="441" x2="1993" y2= "159" />
   <line class="fil0 str0" x1="1923" y1="688" x2="2257" y2= "467" />
   <g>
    <line class="fil0 str0" x1="2646" y1="929" x2="2681" y2= "943" />
    <path class="fil0 str0" d="M2681 943c78,30 141,110 141,179"/>
    <line class="fil0 str0" x1="2822" y1="1122" x2="2822" y2= "1401" />
    <path class="fil0 str0" d="M2822 1401c0,69 -63,99 -141,69"/>
    <line class="fil0 str0" x1="2681" y1="1470" x2="2646" y2= "1456" />
    <path class="fil0 str0" d="M2646 1456c-78,-30 -141,-110 -141,-179"/>
    <line class="fil0 str0" x1="2505" y1="1277" x2="2505" y2= "998" />
    <path class="fil0 str0" d="M2505 998c0,-69 63,-99 141,-69"/>
    <line class="fil0 str0" x1="2522" y1="935" x2="2910" y2= "653" />
    <line class="fil0 str0" x1="2840" y1="1182" x2="3157" y2= "993" />
   </g>
   <path class="fil0 str1" d="M1270 1076c-167,-69 -329,-73 -456,2"/>
   <line class="fil0 str1" x1="814" y1="1078" x2="291" y2= "1349" />
   <path class="fil0 str1" d="M291 1349c-297,175 -293,742 9,1269 302,528 792,820 1094,650"/>
   <line class="fil0 str1" x1="1394" y1="3268" x2="1923" y2= "2956" />
   <path class="fil0 str1" d="M1923 2956c80,-45 139,-115 176,-204"/>
   <polyline class="fil0 str1" points="2099,2752 3210,3387 3457,3246 3457,1235 3129,1036 3140,875 "/>
   <path class="fil0 str1" d="M3140 875c0,-69 -63,-149 -141,-179"/>
   <line class="fil0 str1" x1="2999" y1="696" x2="2963" y2= "682" />
   <path class="fil0 str1" d="M2963 682c-78,-30 -119,3 -168,46"/>
   <polyline class="fil0 str1" points="2795,728 2704,793 2258,515 2258,346 "/>
   <path class="fil0 str1" d="M2258 346c0,-69 -63,-149 -141,-179"/>
   <line class="fil0 str1" x1="2117" y1="167" x2="2081" y2= "153" />
   <path class="fil0 str1" d="M2081 153c-78,-31 -105,10 -158,47"/>
   <polyline class="fil0 str1" points="1923,200 1836,276 1517,71 1270,212 1270,1076 "/>
  </g>
 </g>
</svg>
