<svg width="20" height="20" viewBox="0 0 20 20" fill="none" xmlns="http://www.w3.org/2000/svg">
<path d="M19.9506 5.79192C19.9052 4.76252 19.7387 4.05482 19.5002 3.44159C19.2542 2.79066 18.8758 2.20788 18.3799 1.72341C17.8955 1.23141 17.3088 0.849096 16.6654 0.606937C16.0487 0.368474 15.3447 0.202008 14.3153 0.156622C13.2782 0.107392 12.9489 0.0960083 10.3186 0.0960083C7.68827 0.0960083 7.35903 0.107392 6.32579 0.152778C5.2964 0.198165 4.58869 0.364778 3.97561 0.603093C3.32453 0.849096 2.74175 1.22756 2.25729 1.72341C1.76528 2.20788 1.38312 2.7945 1.14081 3.43789C0.902349 4.05482 0.735883 4.75868 0.690496 5.78807C0.641266 6.82516 0.629883 7.1544 0.629883 9.78473C0.629883 12.4151 0.641266 12.7443 0.686653 13.7775C0.732039 14.8069 0.898653 15.5146 1.13712 16.1279C1.38312 16.7788 1.76528 17.3616 2.25729 17.8461C2.74175 18.3381 3.32837 18.7204 3.97177 18.9625C4.58869 19.201 5.29255 19.3675 6.3221 19.4128C7.35519 19.4584 7.68457 19.4696 10.3149 19.4696C12.9452 19.4696 13.2745 19.4584 14.3077 19.4128C15.3371 19.3675 16.0448 19.201 16.6579 18.9625C17.9599 18.4591 18.9893 17.4297 19.4927 16.1279C19.731 15.511 19.8976 14.8069 19.943 13.7775C19.9884 12.7443 19.9998 12.4151 19.9998 9.78473C19.9998 7.1544 19.9959 6.82516 19.9506 5.79192ZM18.2059 13.7019C18.1642 14.648 18.0053 15.1589 17.8728 15.4996C17.5473 16.3436 16.8774 17.0134 16.0334 17.339C15.6928 17.4714 15.1782 17.6304 14.2357 17.6719C13.2139 17.7174 12.9074 17.7287 10.3225 17.7287C7.7375 17.7287 7.42719 17.7174 6.40903 17.6719C5.46286 17.6304 4.95193 17.4714 4.61131 17.339C4.19131 17.1837 3.809 16.9377 3.49868 16.616C3.17699 16.3019 2.93098 15.9234 2.77575 15.5034C2.64329 15.1628 2.48437 14.648 2.44282 13.7057C2.39729 12.6838 2.38605 12.3772 2.38605 9.79227C2.38605 7.20732 2.39729 6.89701 2.44282 5.879C2.48437 4.93283 2.64329 4.4219 2.77575 4.08128C2.93098 3.66113 3.17699 3.27896 3.50253 2.9685C3.81654 2.64681 4.195 2.40081 4.61516 2.24572C4.95578 2.11326 5.47055 1.95433 6.41287 1.91264C7.43473 1.86726 7.74134 1.85587 10.3261 1.85587C12.9149 1.85587 13.2214 1.86726 14.2396 1.91264C15.1857 1.95433 15.6967 2.11326 16.0373 2.24572C16.4573 2.40081 16.8396 2.64681 17.1499 2.9685C17.4716 3.28266 17.7176 3.66113 17.8728 4.08128C18.0053 4.4219 18.1642 4.93653 18.2059 5.879C18.2513 6.90085 18.2627 7.20732 18.2627 9.79227C18.2627 12.3772 18.2513 12.68 18.2059 13.7019Z" fill="#364556"/>
<path d="M10.3191 4.8078C7.57154 4.8078 5.34229 7.0369 5.34229 9.78463C5.34229 12.5323 7.57154 14.7615 10.3191 14.7615C13.0668 14.7615 15.2959 12.5323 15.2959 9.78463C15.2959 7.0369 13.0668 4.8078 10.3191 4.8078ZM10.3191 13.013C8.53663 13.013 7.09077 11.5673 7.09077 9.78463C7.09077 8.00199 8.53663 6.55628 10.3191 6.55628C12.1017 6.55628 13.5475 8.00199 13.5475 9.78463C13.5475 11.5673 12.1017 13.013 10.3191 13.013Z" fill="#364556"/>
<path d="M16.6535 4.61114C16.6535 5.25276 16.1332 5.773 15.4915 5.773C14.8498 5.773 14.3296 5.25276 14.3296 4.61114C14.3296 3.96937 14.8498 3.44928 15.4915 3.44928C16.1332 3.44928 16.6535 3.96937 16.6535 4.61114Z" fill="#364556"/>
</svg>
