<svg width="64" height="18" viewBox="0 0 64 18" fill="none" xmlns="http://www.w3.org/2000/svg">
<path d="M63.7962 0.971863H0.62207V17.9258H63.7962V0.971863Z" fill="#364556"/>
<path d="M15.4217 5.62262H13.4185V13.2759H15.4217C16.7054 13.2759 17.5125 12.7022 17.5125 10.9809V7.91764C17.5223 6.09913 16.6471 5.62262 15.4217 5.62262ZM16.1025 10.8837C16.1025 11.6325 15.8302 11.9631 15.3342 11.9631H14.8285V6.92573H15.3439C15.801 6.92573 16.0927 7.15912 16.0927 8.00517V10.8837H16.1025Z" fill="white"/>
<path d="M21.4899 9.93023C22.0928 9.64821 22.5013 9.11335 22.5013 7.97557V7.80052C22.5013 6.44879 21.947 5.62219 20.5661 5.62219H18.3975V13.2755H19.7881V10.222H20.1965L21.1593 13.2755H22.6374L21.4899 9.93023ZM21.062 8.02419C21.062 8.67574 20.8189 9.00638 20.3424 9.00638H19.7881V6.9253H20.3424C20.8675 6.9253 21.062 7.24621 21.062 7.91722V8.02419Z" fill="white"/>
<path d="M24.7284 13.2755V5.62219H23.3184V13.2755H24.7284Z" fill="white"/>
<path d="M30.0474 5.62219H28.6373L27.8399 9.74546L27.7038 10.679L27.5968 9.74546L26.7605 5.62219H25.3018L27.1008 13.2755H28.297L30.0474 5.62219Z" fill="white"/>
<path d="M34.112 13.2755V11.9724H31.9823V10.0664H33.7814V8.77299H31.9823V6.9253H34.112V5.62219H30.5723V13.2755H34.112Z" fill="white"/>
<path d="M38.6352 7.57675C38.6352 6.14722 37.9253 5.55402 36.7486 5.55402C35.6011 5.55402 34.8037 6.24447 34.8037 7.78097H36.1457C36.1652 6.96409 36.3986 6.7696 36.7389 6.7696C37.1182 6.7696 37.2932 6.98354 37.2932 7.56703C37.2932 8.05326 37.1376 8.40335 36.8945 8.78261L34.8621 12.0307V13.2657H38.5866V12.0404H36.3986L37.9351 9.58976C38.3629 8.88958 38.6352 8.35472 38.6352 7.57675Z" fill="white"/>
<path d="M45.0525 9.93023C45.6554 9.64821 46.0638 9.11335 46.0638 7.97557V7.80052C46.0638 6.44879 45.5095 5.62219 44.1383 5.62219H41.9697V13.2755H43.3604V10.222H43.7688L44.7218 13.2755H46.2L45.0525 9.93023ZM44.6246 8.02419C44.6246 8.67574 44.3912 9.00638 43.9049 9.00638H43.3506V6.9253H43.9049C44.4301 6.9253 44.6246 7.24621 44.6246 7.91722V8.02419Z" fill="white"/>
<path d="M50.9853 11.0291V5.62219H49.5752V10.9805C49.5752 11.739 49.4294 12.0308 48.8945 12.0308C48.3597 12.0308 48.2138 11.739 48.2138 10.9805V5.62219H46.8037V11.0291C46.8037 12.692 47.6109 13.3436 48.8945 13.3436C50.1879 13.3436 50.9853 12.6823 50.9853 11.0291Z" fill="white"/>
<path d="M39.6748 12.0405H40.9098V13.2755H39.6748V12.0405Z" fill="white"/>
</svg>
