<svg width="63" height="55" viewBox="0 0 63 55" fill="none" xmlns="http://www.w3.org/2000/svg">
<g clip-path="url(#clip0)">
<path d="M36.2636 2.73416C33.5484 0.911857 29.1566 0.911857 26.4414 2.73416" stroke="#364555" stroke-width="0.74089" stroke-linecap="round" stroke-linejoin="round"/>
<path d="M26.4399 2.73389L2.85938 18.6243" stroke="#364555" stroke-width="0.74089" stroke-linecap="round" stroke-linejoin="round"/>
<path d="M2.86129 18.6248C1.42167 19.6088 0.747421 20.8844 0.838535 22.16C0.911427 23.2898 0.820312 31.6724 0.820312 32.8751C0.820312 34.0596 1.51279 35.2623 2.86129 36.1917" stroke="#364555" stroke-width="0.74089" stroke-linecap="round" stroke-linejoin="round"/>
<path d="M2.85938 36.1914L26.4399 52.0818" stroke="#364555" stroke-width="0.74089" stroke-linecap="round" stroke-linejoin="round"/>
<path d="M26.4414 52.082C29.1566 53.9043 33.5484 53.9043 36.2636 52.082" stroke="#364555" stroke-width="0.74089" stroke-linecap="round" stroke-linejoin="round"/>
<path d="M36.2617 52.0818L59.8605 36.1914" stroke="#364555" stroke-width="0.74089" stroke-linecap="round" stroke-linejoin="round"/>
<path d="M59.8633 36.1917C61.3758 35.153 62.05 33.7863 61.8678 32.4378C61.722 31.3808 61.9771 22.9983 61.886 21.7409C61.8131 20.6111 61.1389 19.4995 59.8633 18.6248" stroke="#364555" stroke-width="0.74089" stroke-linecap="round" stroke-linejoin="round"/>
<path d="M59.8605 18.6243L36.2617 2.73389" stroke="#364555" stroke-width="0.74089" stroke-linecap="round" stroke-linejoin="round"/>
<path d="M36.2617 2.77075L59.8605 18.8981" stroke="#364555" stroke-width="0.370445" stroke-linecap="round" stroke-linejoin="round"/>
<path d="M59.8633 18.8979C62.5785 20.7567 62.5785 23.7635 59.8633 25.6222" stroke="#364555" stroke-width="0.370445" stroke-linecap="round" stroke-linejoin="round"/>
<path d="M59.8605 25.6223L36.2617 41.7679" stroke="#364555" stroke-width="0.370445" stroke-linecap="round" stroke-linejoin="round"/>
<path d="M36.2636 41.7679C33.5484 43.6267 29.1566 43.6267 26.4414 41.7679" stroke="#364555" stroke-width="0.370445" stroke-linecap="round" stroke-linejoin="round"/>
<path d="M26.4399 41.7679L2.85938 25.6223" stroke="#364555" stroke-width="0.370445" stroke-linecap="round" stroke-linejoin="round"/>
<path d="M2.86064 25.6222C0.145412 23.7635 0.145412 20.7567 2.86064 18.8979" stroke="#364555" stroke-width="0.370445" stroke-linecap="round" stroke-linejoin="round"/>
<path d="M2.85938 18.8981L26.4399 2.77075" stroke="#364555" stroke-width="0.370445" stroke-linecap="round" stroke-linejoin="round"/>
<path d="M26.4414 2.77065C29.1566 0.911901 33.5484 0.911901 36.2636 2.77065" stroke="#364555" stroke-width="0.370445" stroke-linecap="round" stroke-linejoin="round"/>
<path d="M25.8945 13.1213C28.4457 11.463 30.5049 10.1145 31.1974 9.58603C33.5664 7.87307 36.6461 9.89582 34.8967 11.0074C34.1313 11.4994 30.5232 13.8867 26.5323 16.5108" stroke="#364555" stroke-width="0.370445" stroke-linecap="round" stroke-linejoin="round"/>
<path d="M20.0995 20.7568C17.3478 22.5791 15.0882 24.0552 14.3228 24.5108C12.0085 25.9322 8.58259 24.7112 11.1156 22.5791C11.1156 22.5791 13.9584 20.7751 17.5301 18.4972" stroke="#364555" stroke-width="0.370445" stroke-linecap="round" stroke-linejoin="round"/>
<path d="M26.7726 14.488L26.718 17.8957L23.2009 20.8843H21.9071L17.5154 18.0051L16.75 16.8753L16.8958 12.9391" stroke="#364555" stroke-width="0.370445" stroke-linecap="round" stroke-linejoin="round"/>
<path fill-rule="evenodd" clip-rule="evenodd" d="M16.8945 12.3014L20.1018 10.3698L22.6894 11.0076L26.5345 13.5952V14.8708L23.3272 17.4403H21.3956L16.8945 14.233V12.3014Z" stroke="#364555" stroke-width="0.370445" stroke-linecap="round" stroke-linejoin="round"/>
<path d="M20.1016 13.5952L21.3043 12.4836L23.2177 13.905L23.2724 14.7615" stroke="#364555" stroke-width="0.370445" stroke-linecap="round" stroke-linejoin="round"/>
<path d="M23.2768 14.7615C23.2768 14.7615 22.5296 15.2899 22.3292 15.3993C22.1287 15.5086 21.6367 15.0895 21.6367 15.0895" stroke="#364555" stroke-width="0.370445" stroke-linecap="round" stroke-linejoin="round"/>
<path d="M21.6323 15.0895L20.1016 13.5952" stroke="#364555" stroke-width="0.370445" stroke-linecap="round" stroke-linejoin="round"/>
<path d="M41.8398 14.7797C43.6257 13.6681 46.1769 15.7637 44.5368 16.8025C44.2453 16.9847 43.9902 17.2216 43.0426 17.8412" stroke="#364555" stroke-width="0.370445" stroke-linecap="round" stroke-linejoin="round"/>
<path d="M36.6466 22.0503C31.362 25.5491 25.3302 29.4852 23.9635 30.3053C21.6491 31.7084 18.2232 30.5057 20.7562 28.3736C20.7562 28.3736 28.1912 23.7997 33.8585 20.1368" stroke="#364555" stroke-width="0.370445" stroke-linecap="round" stroke-linejoin="round"/>
<path d="M42.8429 16.4194L42.7883 19.8271L39.2712 22.7975H37.9774L33.5857 19.9365L32.8203 18.8066L32.9661 14.8705" stroke="#364555" stroke-width="0.370445" stroke-linecap="round" stroke-linejoin="round"/>
<path fill-rule="evenodd" clip-rule="evenodd" d="M32.9648 14.2328L36.1721 12.3011L38.7598 12.939L42.6048 15.5084V16.8022L39.3976 19.3717H37.4659L32.9648 16.1644V14.2328Z" stroke="#364555" stroke-width="0.370445" stroke-linecap="round" stroke-linejoin="round"/>
<path d="M36.1719 15.5084L37.3746 14.415L39.288 15.8364L39.3427 16.6929" stroke="#364555" stroke-width="0.370445" stroke-linecap="round" stroke-linejoin="round"/>
<path d="M39.3471 16.6929C39.3471 16.6929 38.6 17.2213 38.3813 17.3307C38.1991 17.44 37.707 17.0209 37.707 17.0209" stroke="#364555" stroke-width="0.370445" stroke-linecap="round" stroke-linejoin="round"/>
<path d="M37.7026 17.0208L36.1719 15.5083" stroke="#364555" stroke-width="0.370445" stroke-linecap="round" stroke-linejoin="round"/>
<path d="M38.1016 29.8863C43.204 26.6244 48.5433 22.7611 49.8372 21.8135C52.2062 20.0824 55.2858 22.1233 53.5364 23.2349C52.3884 23.9456 45.0445 28.8294 39.3954 32.5469" stroke="#364555" stroke-width="0.370445" stroke-linecap="round" stroke-linejoin="round"/>
<path d="M32.9674 36.7383C30.653 38.1414 27.2271 36.9205 29.7601 34.8066" stroke="#364555" stroke-width="0.370445" stroke-linecap="round" stroke-linejoin="round"/>
<path d="M38.981 31.1985L38.9263 34.6062L35.4093 37.5948H34.1337L29.7237 34.7155L28.9766 33.5857L29.1041 29.6495" stroke="#364555" stroke-width="0.370445" stroke-linecap="round" stroke-linejoin="round"/>
<path fill-rule="evenodd" clip-rule="evenodd" d="M29.1016 29.0118L32.327 27.0802L34.8965 27.7362L38.7597 30.3057V31.5813L35.5343 34.1507H33.6026L29.1016 30.9435V29.0118Z" stroke="#364555" stroke-width="0.370445" stroke-linecap="round" stroke-linejoin="round"/>
<path d="M32.3281 30.3055L33.5126 29.1938L35.426 30.6152L35.4989 31.4899" stroke="#364555" stroke-width="0.370445" stroke-linecap="round" stroke-linejoin="round"/>
<path d="M35.5034 31.4902C35.5034 31.4902 34.7562 32.0187 34.5375 32.128C34.3371 32.2192 33.8633 31.8 33.8633 31.8" stroke="#364555" stroke-width="0.370445" stroke-linecap="round" stroke-linejoin="round"/>
<path d="M33.8589 31.7999L32.3281 30.3057" stroke="#364555" stroke-width="0.370445" stroke-linecap="round" stroke-linejoin="round"/>
</g>
<defs>
<clipPath id="clip0">
<rect width="63" height="53.3569" fill="white" transform="translate(0 0.729492)"/>
</clipPath>
</defs>
</svg>
