<svg width="29" height="18" viewBox="0 0 29 18" fill="none" xmlns="http://www.w3.org/2000/svg">
<path d="M28.4658 16.0182C28.4658 15.9029 28.3515 15.9029 28.3515 15.7875C27.8942 14.8646 26.8653 13.7109 25.4935 12.4419C24.8075 11.8651 24.4646 11.4036 24.2359 11.1729C23.893 10.7114 23.893 10.3653 24.0073 9.90388C24.1216 9.55779 24.5789 8.98095 25.3791 7.94266C25.8364 7.36583 26.0651 7.01975 26.408 6.67365C28.1228 4.36635 28.9231 2.86659 28.6944 2.1744L28.5801 2.05905C28.4658 1.94368 28.3515 1.82832 28.1228 1.82832C27.8942 1.71296 27.5512 1.71296 27.2083 1.82832H22.8641C22.7498 1.82832 22.7498 1.82832 22.5211 1.82832C22.4068 1.82832 22.2925 1.82832 22.2925 1.82832H22.1782H22.0639L21.9495 1.94367C21.8352 2.05904 21.8352 2.05904 21.8352 2.1744C21.3779 3.44342 20.8063 4.4817 20.2347 5.63536C19.8918 6.21218 19.5488 6.78902 19.2058 7.25048C18.8629 7.71194 18.6342 8.05803 18.4056 8.28876C18.1769 8.51949 17.9483 8.63485 17.834 8.86558C17.7197 8.98095 17.491 9.09632 17.491 8.98096C17.3767 8.98096 17.2624 8.98095 17.2624 8.86558C17.1481 8.75022 17.0338 8.63485 16.9194 8.51948C16.8051 8.40412 16.8051 8.17339 16.6908 7.94266C16.6908 7.71193 16.6908 7.4812 16.6908 7.36583C16.6908 7.25047 16.6908 6.90438 16.6908 6.67365C16.6908 6.32756 16.6908 6.09682 16.6908 5.98145C16.6908 5.63536 16.6908 5.17391 16.6908 4.71245C16.6908 4.25099 16.6908 3.90488 16.6908 3.67415C16.6908 3.44342 16.6908 3.09733 16.6908 2.8666C16.6908 2.5205 16.6908 2.28977 16.6908 2.1744C16.6908 2.05904 16.5765 1.82831 16.5765 1.71295C16.4622 1.59758 16.3478 1.48221 16.2335 1.36685C16.1192 1.25148 15.8905 1.25149 15.7762 1.13612C15.2046 1.02076 14.5187 0.905396 13.7185 0.905396C11.8893 0.905396 10.6318 1.02076 10.1745 1.25149C9.94589 1.36686 9.71725 1.48222 9.60293 1.71295C9.37429 1.94368 9.37428 2.05905 9.4886 2.05905C10.0602 2.17441 10.5175 2.40513 10.7461 2.75123L10.8605 2.98197C10.9748 3.09734 10.9748 3.32806 11.0891 3.67415C11.2034 4.02025 11.2034 4.36634 11.2034 4.8278C11.2034 5.51999 11.2034 6.21219 11.2034 6.67365C11.2034 7.25048 11.0891 7.59656 11.0891 7.94266C11.0891 8.28875 10.9748 8.51949 10.8605 8.63486C10.7461 8.86559 10.7461 8.98096 10.6318 8.98096C10.6318 8.98096 10.6318 9.09631 10.5175 9.09631C10.4032 9.09631 10.2888 9.21168 10.0602 9.21168C9.94588 9.21168 9.71725 9.09632 9.60293 8.98096C9.37429 8.86559 9.14565 8.63486 9.03133 8.40413C8.80269 8.1734 8.57404 7.82729 8.3454 7.36583C8.11676 6.90437 7.77378 6.44292 7.54514 5.75073L7.31652 5.28927C7.2022 5.05854 6.97356 4.59708 6.74492 4.02025C6.51628 3.44343 6.28763 2.98197 6.05899 2.40515C5.94467 2.17442 5.83036 2.05904 5.71604 1.94367H5.60171C5.60171 1.94367 5.48738 1.82832 5.37306 1.82832C5.25874 1.82832 5.14443 1.71295 5.03011 1.71295H0.914567C0.457285 1.71295 0.228648 1.82831 0.114327 1.94367L0 2.05905C0 2.05905 0 2.17441 0 2.28977C0 2.40514 6.97586e-06 2.5205 0.114327 2.75123C0.68593 4.13561 1.37185 5.52 2.05777 6.90438C2.74369 8.1734 3.42962 9.32705 3.88691 10.1346C4.45851 10.9422 4.91578 11.7497 5.48739 12.4419C6.05899 13.1341 6.40194 13.5956 6.51626 13.8263C6.7449 14.057 6.85922 14.1724 6.97354 14.2877L7.31652 14.6338C7.54516 14.8646 7.88811 15.2107 8.3454 15.5568C8.80268 15.9029 9.37427 16.249 9.94588 16.595C10.5175 16.9411 11.2034 17.1719 11.8893 17.4026C12.6896 17.6333 13.3755 17.7487 14.0614 17.6333H15.7762C16.1192 17.6333 16.3478 17.518 16.5765 17.2872L16.6908 17.1719C16.6908 17.0565 16.8051 17.0565 16.8051 16.9411C16.8051 16.8258 16.8051 16.7104 16.8051 16.4797C16.8051 16.0182 16.8051 15.6721 16.9194 15.326C17.0338 14.9799 17.0338 14.7492 17.1481 14.5185C17.2624 14.2878 17.3767 14.1724 17.491 14.057C17.6054 13.9417 17.7197 13.8263 17.7197 13.8263H17.834C18.0626 13.7109 18.4056 13.8263 18.6342 14.057C18.9772 14.2877 19.3201 14.6338 19.5488 14.9799C19.7774 15.326 20.1204 15.6721 20.5777 16.1336C21.035 16.5951 21.3779 16.9412 21.6066 17.0565L21.9495 17.2872C22.1782 17.4026 22.4068 17.518 22.7498 17.6333C23.0927 17.7487 23.3214 17.7487 23.55 17.7487L27.4369 17.6333C27.7799 17.6333 28.1228 17.518 28.3515 17.4026C28.5801 17.2873 28.6944 17.1719 28.6944 16.9411C28.6944 16.8258 28.6944 16.5951 28.6944 16.4797C28.4658 16.249 28.4658 16.1336 28.4658 16.0182Z" fill="#364556"/>
</svg>
