<svg width="36" height="36" viewBox="0 0 36 36" fill="none" xmlns="http://www.w3.org/2000/svg">
<circle cx="18.4648" cy="17.928" r="17.5" fill="url(#paint0_linear)"/>
<path d="M24.223 10.9282H13.5817C12.3802 10.9282 11.4648 11.8436 11.4648 13.045V23.6864C11.4648 24.8878 12.3802 25.8032 13.5817 25.8032H24.223C25.4245 25.8032 26.3398 24.8878 26.3398 23.6864V13.045C26.3398 11.8436 25.4245 10.9282 24.223 10.9282ZM18.9023 22.8282C21.3624 22.8282 23.3648 20.883 23.3648 18.5374C23.3648 18.1369 23.3076 17.6792 23.1932 17.3359H24.4519V23.4003C24.4519 23.6864 24.223 23.9725 23.8797 23.9725H13.9249C13.6389 23.9725 13.3528 23.7436 13.3528 23.4003V17.2787H14.6687C14.5543 17.6792 14.4971 18.0797 14.4971 18.4801C14.4398 20.883 16.4422 22.8282 18.9023 22.8282ZM18.9023 21.1119C17.3004 21.1119 16.0418 19.8532 16.0418 18.3085C16.0418 16.7638 17.3004 15.5051 18.9023 15.5051C20.5043 15.5051 21.7629 16.7638 21.7629 18.3085C21.7629 19.9104 20.5043 21.1119 18.9023 21.1119ZM24.3947 14.9902C24.3947 15.3335 24.1086 15.6196 23.7653 15.6196H22.1634C21.8201 15.6196 21.5341 15.3335 21.5341 14.9902V13.4455C21.5341 13.1023 21.8201 12.8162 22.1634 12.8162H23.7653C24.1086 12.8162 24.3947 13.1023 24.3947 13.4455V14.9902Z" fill="white"/>
<defs>
<linearGradient id="paint0_linear" x1="8.40234" y1="31.4905" x2="31.5898" y2="7.42798" gradientUnits="userSpaceOnUse">
<stop stop-color="#EEA054"/>
<stop offset="0.502762" stop-color="#D64763"/>
<stop offset="1" stop-color="#B62A99"/>
</linearGradient>
</defs>
</svg>
