<svg width="285" height="71" viewBox="0 0 285 71" fill="none" xmlns="http://www.w3.org/2000/svg">
<path fill-rule="evenodd" clip-rule="evenodd" d="M2.86799 36.9399H30.7285C32.2991 36.9399 33.5965 38.2469 33.5965 39.8291V67.8951C33.5965 69.4772 32.2991 70.7842 30.7285 70.7842H2.86799C1.29742 70.7842 0 69.4772 0 67.8951V39.8979C0 38.2469 1.29742 36.9399 2.86799 36.9399Z" fill="#364556"/>
<path fill-rule="evenodd" clip-rule="evenodd" d="M38.7899 0H66.6504C68.2209 0 69.5183 1.30699 69.5183 2.88914V30.9551C69.5183 32.5373 68.2209 33.8443 66.6504 33.8443H38.7899C37.2193 33.8443 35.9219 32.5373 35.9219 30.9551V2.88914C35.9219 1.30699 37.2193 0 38.7899 0Z" fill="#364556"/>
<path fill-rule="evenodd" clip-rule="evenodd" d="M39.6063 36.9399H67.4668C69.0373 36.9399 70.3348 38.2469 70.3348 39.8291V67.8951C70.3348 69.4772 69.0373 70.7842 67.4668 70.7842H39.6063C38.0357 70.7842 36.7383 69.4772 36.7383 67.8951V39.8979C36.7383 38.2469 38.0357 36.9399 39.6063 36.9399Z" fill="#E4B820"/>
<path fill-rule="evenodd" clip-rule="evenodd" d="M53.7433 64.249C48.2804 64.249 43.9102 59.7777 43.9102 54.3434C43.9102 48.8403 48.3487 44.4377 53.7433 44.4377C55.587 44.4377 57.4307 44.9881 59.0013 45.9511C59.2061 46.0887 59.2744 46.3638 59.1378 46.5014C59.0013 46.7078 58.7281 46.7766 58.5915 46.639C57.1576 45.7447 55.5187 45.2632 53.8116 45.2632C48.8267 45.2632 44.7979 49.3218 44.7979 54.3434C44.7979 59.365 48.8267 63.4236 53.8116 63.4236C55.7236 63.4236 57.5673 62.8045 59.1378 61.635C59.3427 61.4975 59.6158 61.5662 59.7524 61.7038C59.889 61.9102 59.8207 62.1854 59.6841 62.3229C57.9087 63.6299 55.8601 64.249 53.7433 64.249Z" fill="white"/>
<path fill-rule="evenodd" clip-rule="evenodd" d="M60.7735 61.0847C60.7052 61.0847 60.5687 61.0159 60.5004 60.9471C60.3638 60.8096 60.2955 60.5344 60.5004 60.328C62.0027 58.6771 62.8221 56.4758 62.8221 54.2746C62.8221 52.0733 62.0027 49.9409 60.637 48.2899C60.5004 48.0836 60.5004 47.8772 60.7052 47.6708C60.9101 47.5333 61.115 47.5333 61.3198 47.7396C62.8904 49.5281 63.7098 51.867 63.7098 54.2746C63.7098 56.751 62.8221 59.0898 61.1832 60.9471C60.9784 61.0847 60.9101 61.0847 60.7735 61.0847Z" fill="white"/>
<path fill-rule="evenodd" clip-rule="evenodd" d="M59.2701 59.778C59.1335 59.778 59.0652 59.7092 58.997 59.6404C58.8604 59.5029 58.8604 59.2277 58.997 59.0213C61.5918 56.4074 61.5918 52.1424 58.997 49.5284C58.8604 49.3909 58.8604 49.1157 58.997 48.9093C59.1335 48.7718 59.4067 48.7718 59.6115 48.9093C62.5478 51.8673 62.5478 56.6825 59.6115 59.5717C59.475 59.778 59.3384 59.778 59.2701 59.778Z" fill="white"/>
<path fill-rule="evenodd" clip-rule="evenodd" d="M57.4303 57.9203C57.2937 57.9203 57.2254 57.8516 57.1571 57.7828C57.0205 57.6452 57.0205 57.37 57.1571 57.1637C58.7277 55.5815 58.7277 52.9675 57.1571 51.3854C57.0205 51.2478 57.0205 50.9726 57.1571 50.7663C57.2937 50.6287 57.5668 50.6287 57.7717 50.7663C59.6837 52.6924 59.6837 55.7879 57.7717 57.714C57.6351 57.9203 57.4985 57.9203 57.4303 57.9203Z" fill="white"/>
<path fill-rule="evenodd" clip-rule="evenodd" d="M55.3803 58.4708C55.312 58.4708 55.1755 58.402 55.1072 58.3332L50.1906 56.0632H48.0738C47.8689 56.0632 47.6641 55.8568 47.6641 55.6504V52.6237C47.6641 52.4173 47.8689 52.211 48.0738 52.211H50.0541L55.1072 50.1473C55.2438 50.0785 55.3803 50.0785 55.5169 50.1473C55.6535 50.2161 55.7218 50.3537 55.7218 50.4912V58.0581C55.7218 58.1956 55.6535 58.402 55.4486 58.4708C55.5169 58.4708 55.4486 58.4708 55.3803 58.4708ZM48.5518 55.3065H50.3955C50.4638 55.3065 50.6003 55.3753 50.6686 55.4441L54.9706 57.1638V51.3855L50.4638 53.1052C50.3955 53.174 50.3272 53.174 50.2589 53.174H48.6201V55.3065H48.5518Z" fill="white"/>
<path d="M50.9444 52.7612H50.125V55.6504H50.9444V52.7612Z" fill="white"/>
<path d="M8.39968 53.9995H5.94141V55.0313H8.39968V53.9995Z" fill="#E4B820"/>
<path d="M11.2669 53.9995H8.80859V55.0313H11.2669V53.9995Z" fill="#E4B820"/>
<path d="M14.0677 53.9995H11.6094V55.0313H14.0677V53.9995Z" fill="#E4B820"/>
<path d="M16.9309 53.9995H14.4727V55.0313H16.9309V53.9995Z" fill="#E4B820"/>
<path d="M19.802 53.9995H17.3438V55.0313H19.802V53.9995Z" fill="#E4B820"/>
<path d="M22.6731 53.9995H20.2148V55.0313H22.6731V53.9995Z" fill="#E4B820"/>
<path d="M25.4661 53.9995H23.0078V55.0313H25.4661V53.9995Z" fill="#E4B820"/>
<path d="M28.3372 53.9995H25.8789V55.0313H28.3372V53.9995Z" fill="#E4B820"/>
<path d="M16.9309 52.6235H14.4727V53.6554H16.9309V52.6235Z" fill="#E4B820"/>
<path d="M16.9309 51.1792H14.4727V52.211H16.9309V51.1792Z" fill="#E4B820"/>
<path d="M16.9309 49.8032H14.4727V50.8351H16.9309V49.8032Z" fill="#E4B820"/>
<path d="M16.9309 48.3589H14.4727V49.3907H16.9309V48.3589Z" fill="#E4B820"/>
<path d="M16.9309 46.9832H14.4727V48.015H16.9309V46.9832Z" fill="#E4B820"/>
<path d="M16.9309 45.5386H14.4727V46.5704H16.9309V45.5386Z" fill="#E4B820"/>
<path d="M16.9309 44.1628H14.4727V45.1947H16.9309V44.1628Z" fill="#E4B820"/>
<path d="M8.39968 52.5549H5.94141V53.5868H8.39968V52.5549Z" fill="#E4B820"/>
<path d="M11.2669 52.5549H8.80859V53.5868H11.2669V52.5549Z" fill="#E4B820"/>
<path d="M14.0677 52.5552H11.6094V53.587H14.0677V52.5552Z" fill="#E4B820"/>
<path d="M16.9309 52.5552H14.4727V53.587H16.9309V52.5552Z" fill="#E4B820"/>
<path d="M19.802 52.5549H17.3438V53.5868H19.802V52.5549Z" fill="#E4B820"/>
<path d="M22.6731 52.5552H20.2148V53.587H22.6731V52.5552Z" fill="#E4B820"/>
<path d="M25.4661 52.5552H23.0078V53.587H25.4661V52.5552Z" fill="#E4B820"/>
<path d="M28.3372 52.5549H25.8789V53.5868H28.3372V52.5549Z" fill="#E4B820"/>
<path d="M11.2669 51.1792H8.80859V52.211H11.2669V51.1792Z" fill="#E4B820"/>
<path d="M14.0677 51.1792H11.6094V52.211H14.0677V51.1792Z" fill="#E4B820"/>
<path d="M16.9309 51.1792H14.4727V52.211H16.9309V51.1792Z" fill="#E4B820"/>
<path d="M19.802 51.1792H17.3438V52.211H19.802V51.1792Z" fill="#E4B820"/>
<path d="M22.6731 51.1792H20.2148V52.211H22.6731V51.1792Z" fill="#E4B820"/>
<path d="M25.4661 51.1792H23.0078V52.211H25.4661V51.1792Z" fill="#E4B820"/>
<path d="M28.3372 51.1792H25.8789V52.211H28.3372V51.1792Z" fill="#E4B820"/>
<path d="M14.0677 49.8032H11.6094V50.8351H14.0677V49.8032Z" fill="#E4B820"/>
<path d="M16.9309 49.8032H14.4727V50.8351H16.9309V49.8032Z" fill="#E4B820"/>
<path d="M19.802 49.8035H17.3438V50.8353H19.802V49.8035Z" fill="#E4B820"/>
<path d="M22.6731 49.8032H20.2148V50.8351H22.6731V49.8032Z" fill="#E4B820"/>
<path d="M25.4661 49.8032H23.0078V50.8351H25.4661V49.8032Z" fill="#E4B820"/>
<path d="M14.0677 48.3589H11.6094V49.3907H14.0677V48.3589Z" fill="#E4B820"/>
<path d="M16.9309 48.3589H14.4727V49.3907H16.9309V48.3589Z" fill="#E4B820"/>
<path d="M22.6731 48.3589H20.2148V49.3907H22.6731V48.3589Z" fill="#E4B820"/>
<path d="M25.4661 48.3589H23.0078V49.3907H25.4661V48.3589Z" fill="#E4B820"/>
<path d="M16.9309 46.9832H14.4727V48.015H16.9309V46.9832Z" fill="#E4B820"/>
<path d="M22.6731 46.9832H20.2148V48.015H22.6731V46.9832Z" fill="#E4B820"/>
<path d="M16.9309 45.5386H14.4727V46.5704H16.9309V45.5386Z" fill="#E4B820"/>
<path d="M8.39968 55.1001H5.94141V56.1319H8.39968V55.1001Z" fill="#E4B820"/>
<path d="M11.2669 55.1001H8.80859V56.1319H11.2669V55.1001Z" fill="#E4B820"/>
<path d="M14.0677 55.1001H11.6094V56.1319H14.0677V55.1001Z" fill="#E4B820"/>
<path d="M16.9309 55.1001H14.4727V56.1319H16.9309V55.1001Z" fill="#E4B820"/>
<path d="M19.802 55.1001H17.3438V56.1319H19.802V55.1001Z" fill="#E4B820"/>
<path d="M22.6731 55.1001H20.2148V56.1319H22.6731V55.1001Z" fill="#E4B820"/>
<path d="M25.4661 55.1001H23.0078V56.1319H25.4661V55.1001Z" fill="#E4B820"/>
<path d="M28.3372 55.1001H25.8789V56.1319H28.3372V55.1001Z" fill="#E4B820"/>
<path d="M16.9309 56.4758H14.4727V57.5077H16.9309V56.4758Z" fill="#E4B820"/>
<path d="M16.9309 57.9207H14.4727V58.9525H16.9309V57.9207Z" fill="#E4B820"/>
<path d="M16.9309 59.2964H14.4727V60.3282H16.9309V59.2964Z" fill="#E4B820"/>
<path d="M16.9309 60.7407H14.4727V61.7726H16.9309V60.7407Z" fill="#E4B820"/>
<path d="M16.9309 62.1167H14.4727V63.1485H16.9309V62.1167Z" fill="#E4B820"/>
<path d="M16.9309 63.5615H14.4727V64.5934H16.9309V63.5615Z" fill="#E4B820"/>
<path d="M16.9309 64.937H14.4727V65.9688H16.9309V64.937Z" fill="#E4B820"/>
<path d="M8.39968 56.4758H5.94141V57.5077H8.39968V56.4758Z" fill="#E4B820"/>
<path d="M11.2669 56.4758H8.80859V57.5077H11.2669V56.4758Z" fill="#E4B820"/>
<path d="M14.0677 56.4758H11.6094V57.5077H14.0677V56.4758Z" fill="#E4B820"/>
<path d="M16.9309 56.4758H14.4727V57.5077H16.9309V56.4758Z" fill="#E4B820"/>
<path d="M19.802 56.4758H17.3438V57.5077H19.802V56.4758Z" fill="#E4B820"/>
<path d="M22.6731 56.4758H20.2148V57.5077H22.6731V56.4758Z" fill="#E4B820"/>
<path d="M25.4661 56.4758H23.0078V57.5077H25.4661V56.4758Z" fill="#E4B820"/>
<path fill-rule="evenodd" clip-rule="evenodd" d="M2.86799 0.550293H30.7285C32.2991 0.550293 33.5965 1.85729 33.5965 3.43944V31.5054C33.5965 33.0876 32.2991 34.3946 30.7285 34.3946H2.86799C1.29742 34.3946 0 33.0876 0 31.5054V3.43944C0 1.85729 1.29742 0.550293 2.86799 0.550293Z" fill="#364556"/>
<path d="M28.3372 56.4758H25.8789V57.5077H28.3372V56.4758Z" fill="#E4B820"/>
<path d="M11.2669 57.9207H8.80859V58.9525H11.2669V57.9207Z" fill="#E4B820"/>
<path d="M14.0677 57.9207H11.6094V58.9525H14.0677V57.9207Z" fill="#E4B820"/>
<path d="M16.9309 57.9207H14.4727V58.9525H16.9309V57.9207Z" fill="#E4B820"/>
<path d="M19.802 57.9207H17.3438V58.9525H19.802V57.9207Z" fill="#E4B820"/>
<path d="M22.6731 57.9207H20.2148V58.9525H22.6731V57.9207Z" fill="#E4B820"/>
<path d="M25.4661 57.9207H23.0078V58.9525H25.4661V57.9207Z" fill="#E4B820"/>
<path d="M28.3372 57.9207H25.8789V58.9525H28.3372V57.9207Z" fill="#E4B820"/>
<path d="M14.0677 59.2964H11.6094V60.3282H14.0677V59.2964Z" fill="#E4B820"/>
<path d="M16.9309 59.2964H14.4727V60.3282H16.9309V59.2964Z" fill="#E4B820"/>
<path d="M19.802 59.2961H17.3438V60.328H19.802V59.2961Z" fill="#E4B820"/>
<path d="M22.6731 59.2964H20.2148V60.3282H22.6731V59.2964Z" fill="#E4B820"/>
<path d="M25.4661 59.2964H23.0078V60.3282H25.4661V59.2964Z" fill="#E4B820"/>
<path d="M14.0677 60.7407H11.6094V61.7726H14.0677V60.7407Z" fill="#E4B820"/>
<path d="M16.9309 60.7407H14.4727V61.7726H16.9309V60.7407Z" fill="#E4B820"/>
<path d="M22.6731 60.7407H20.2148V61.7726H22.6731V60.7407Z" fill="#E4B820"/>
<path d="M25.4661 60.7407H23.0078V61.7726H25.4661V60.7407Z" fill="#E4B820"/>
<path d="M16.9309 62.1167H14.4727V63.1485H16.9309V62.1167Z" fill="#E4B820"/>
<path d="M22.6731 62.1167H20.2148V63.1485H22.6731V62.1167Z" fill="#E4B820"/>
<path d="M16.9309 63.5615H14.4727V64.5934H16.9309V63.5615Z" fill="#E4B820"/>
<path d="M29.8396 54.6189H4.30078V55.3756H29.8396V54.6189Z" fill="#E4B820"/>
<path fill-rule="evenodd" clip-rule="evenodd" d="M10.9271 8.59863C11.2685 8.59863 11.5416 8.87379 11.5416 9.21774V26.1399C11.5416 26.4838 11.2685 26.759 10.9271 26.759C10.5856 26.759 10.3125 26.4838 10.3125 26.1399V9.21774C10.3125 8.87379 10.5856 8.59863 10.9271 8.59863Z" fill="#E4B820"/>
<path fill-rule="evenodd" clip-rule="evenodd" d="M16.9388 8.59863C17.2802 8.59863 17.5534 8.87379 17.5534 9.21774V26.1399C17.5534 26.4838 17.2802 26.759 16.9388 26.759C16.5974 26.759 16.3242 26.4838 16.3242 26.1399V9.21774C16.3242 8.87379 16.5974 8.59863 16.9388 8.59863Z" fill="#E4B820"/>
<path fill-rule="evenodd" clip-rule="evenodd" d="M23.0091 8.59863C23.3505 8.59863 23.6237 8.87379 23.6237 9.21774V26.1399C23.6237 26.4838 23.3505 26.759 23.0091 26.759C22.6677 26.759 22.3945 26.4838 22.3945 26.1399V9.21774C22.3945 8.87379 22.6677 8.59863 23.0091 8.59863Z" fill="#E4B820"/>
<path fill-rule="evenodd" clip-rule="evenodd" d="M9.83431 14.8586H11.8829C12.7023 14.8586 13.3852 15.5465 13.3852 16.372C13.3852 17.1975 12.7023 17.8854 11.8829 17.8854H9.83431C9.01489 17.8854 8.33203 17.1975 8.33203 16.372C8.33203 15.5465 9.01489 14.8586 9.83431 14.8586Z" fill="#E4B820"/>
<path fill-rule="evenodd" clip-rule="evenodd" d="M15.8429 20.4304H17.8915C18.7109 20.4304 19.3938 21.1183 19.3938 21.9438C19.3938 22.7693 18.7109 23.4571 17.8915 23.4571H15.8429C15.0235 23.4571 14.3406 22.7693 14.3406 21.9438C14.2724 21.1183 14.9552 20.4304 15.8429 20.4304Z" fill="#E4B820"/>
<path fill-rule="evenodd" clip-rule="evenodd" d="M22.0531 10.5249H24.1016C24.9211 10.5249 25.6039 11.2128 25.6039 12.0383C25.6039 12.8637 24.9211 13.5516 24.1016 13.5516H22.0531C21.2336 13.5516 20.5508 12.8637 20.5508 12.0383C20.5508 11.2128 21.2336 10.5249 22.0531 10.5249Z" fill="#E4B820"/>
<path fill-rule="evenodd" clip-rule="evenodd" d="M46.0876 16.9907C45.9511 16.9907 45.8145 17.1283 45.8145 17.2659V17.7474C45.8145 17.885 45.9511 18.0225 46.0876 18.0225C46.2242 18.0225 46.3608 17.885 46.3608 17.7474V17.2659C46.4291 17.1283 46.2925 16.9907 46.0876 16.9907ZM48.6825 22.769L48.341 22.425C48.2728 22.3563 48.2045 22.3563 48.1362 22.3563C48.0679 22.3563 47.9996 22.3563 47.9313 22.425C47.7948 22.5626 47.7948 22.7002 47.9313 22.8378L48.2728 23.1817C48.341 23.2505 48.4093 23.2505 48.4776 23.2505C48.5459 23.2505 48.6142 23.2505 48.6825 23.1817C48.7508 23.1129 48.7508 22.9066 48.6825 22.769ZM48.6825 11.8315C48.5459 11.6939 48.4093 11.6939 48.2728 11.8315L47.9313 12.1755C47.863 12.2442 47.8631 12.313 47.8631 12.3818C47.8631 12.4506 47.863 12.5194 47.9313 12.5882C48.0679 12.7258 48.2045 12.7258 48.341 12.5882L48.6825 12.2442C48.7508 12.1755 48.7508 12.1067 48.7508 12.0379C48.7508 11.9691 48.7508 11.9003 48.6825 11.8315ZM53.8039 24.7639H53.3259C53.1893 24.7639 53.0527 24.9015 53.0527 25.039C53.0527 25.1766 53.1893 25.3142 53.3259 25.3142H53.8039C53.9405 25.3142 54.077 25.1766 54.077 25.039C54.077 24.8327 53.9405 24.7639 53.8039 24.7639ZM53.8039 9.76784H53.3259C53.1893 9.76784 53.0527 9.90541 53.0527 10.043C53.0527 10.1806 53.1893 10.3181 53.3259 10.3181H53.8039C53.9405 10.3181 54.077 10.1806 54.077 10.043C54.077 9.90541 53.9405 9.76784 53.8039 9.76784ZM53.5307 10.7309C49.8433 10.7309 46.8388 13.7576 46.8388 17.4722C46.8388 21.1868 49.8433 24.2136 53.5307 24.2136C57.2182 24.2136 60.2227 21.1868 60.2227 17.4722C60.291 13.7576 57.2864 10.7309 53.5307 10.7309ZM53.5307 20.9805C51.6188 20.9805 50.0482 19.3983 50.0482 17.4722C50.0482 15.5461 51.6188 13.964 53.5307 13.964C55.4427 13.964 57.0133 15.5461 57.0133 17.4722C57.0133 19.3983 55.4427 20.9805 53.5307 20.9805ZM59.1984 22.425C59.0619 22.2875 58.9253 22.2875 58.7887 22.425L58.4473 22.769C58.379 22.8378 58.379 22.9066 58.379 22.9754C58.379 23.0441 58.379 23.1129 58.4473 23.1817C58.5839 23.3193 58.7204 23.3193 58.857 23.1817L59.1984 22.8378C59.2667 22.769 59.2667 22.7002 59.2667 22.6314C59.2667 22.5626 59.2667 22.4938 59.1984 22.425ZM59.1984 12.1755L58.857 11.8315C58.7887 11.7627 58.7204 11.7627 58.6522 11.7627C58.5839 11.7627 58.5156 11.7627 58.4473 11.8315C58.3107 11.9691 58.3107 12.1067 58.4473 12.2442L58.7887 12.5882C58.857 12.657 58.9253 12.657 58.9936 12.657C59.0619 12.657 59.1302 12.657 59.1984 12.5882C59.2667 12.5194 59.2667 12.313 59.1984 12.1755ZM60.9739 16.9907C60.8373 16.9907 60.7007 17.1283 60.7007 17.2659V17.7474C60.7007 17.885 60.8373 18.0225 60.9739 18.0225C61.1104 18.0225 61.247 17.885 61.247 17.7474V17.2659C61.247 17.1283 61.1787 16.9907 60.9739 16.9907ZM60.9739 16.9907C60.8373 16.9907 60.7007 17.1283 60.7007 17.2659V17.7474C60.7007 17.885 60.8373 18.0225 60.9739 18.0225C61.1104 18.0225 61.247 17.885 61.247 17.7474V17.2659C61.247 17.1283 61.1787 16.9907 60.9739 16.9907ZM59.1984 12.1755L58.857 11.8315C58.7887 11.7627 58.7204 11.7627 58.6522 11.7627C58.5839 11.7627 58.5156 11.7627 58.4473 11.8315C58.3107 11.9691 58.3107 12.1067 58.4473 12.2442L58.7887 12.5882C58.857 12.657 58.9253 12.657 58.9936 12.657C59.0619 12.657 59.1302 12.657 59.1984 12.5882C59.2667 12.5194 59.2667 12.313 59.1984 12.1755ZM59.1984 22.425C59.0619 22.2875 58.9253 22.2875 58.7887 22.425L58.4473 22.769C58.379 22.8378 58.379 22.9066 58.379 22.9754C58.379 23.0441 58.379 23.1129 58.4473 23.1817C58.5839 23.3193 58.7204 23.3193 58.857 23.1817L59.1984 22.8378C59.2667 22.769 59.2667 22.7002 59.2667 22.6314C59.2667 22.5626 59.2667 22.4938 59.1984 22.425ZM53.5307 10.7309C49.8433 10.7309 46.8388 13.7576 46.8388 17.4722C46.8388 21.1868 49.8433 24.2136 53.5307 24.2136C57.2182 24.2136 60.2227 21.1868 60.2227 17.4722C60.291 13.7576 57.2864 10.7309 53.5307 10.7309ZM53.5307 20.9805C51.6188 20.9805 50.0482 19.3983 50.0482 17.4722C50.0482 15.5461 51.6188 13.964 53.5307 13.964C55.4427 13.964 57.0133 15.5461 57.0133 17.4722C57.0133 19.3983 55.4427 20.9805 53.5307 20.9805ZM53.8039 9.76784H53.3259C53.1893 9.76784 53.0527 9.90541 53.0527 10.043C53.0527 10.1806 53.1893 10.3181 53.3259 10.3181H53.8039C53.9405 10.3181 54.077 10.1806 54.077 10.043C54.077 9.90541 53.9405 9.76784 53.8039 9.76784ZM53.8039 24.7639H53.3259C53.1893 24.7639 53.0527 24.9015 53.0527 25.039C53.0527 25.1766 53.1893 25.3142 53.3259 25.3142H53.8039C53.9405 25.3142 54.077 25.1766 54.077 25.039C54.077 24.8327 53.9405 24.7639 53.8039 24.7639ZM48.6825 11.8315C48.5459 11.6939 48.4093 11.6939 48.2728 11.8315L47.9313 12.1755C47.863 12.2442 47.8631 12.313 47.8631 12.3818C47.8631 12.4506 47.863 12.5194 47.9313 12.5882C48.0679 12.7258 48.2045 12.7258 48.341 12.5882L48.6825 12.2442C48.7508 12.1755 48.7508 12.1067 48.7508 12.0379C48.7508 11.9691 48.7508 11.9003 48.6825 11.8315ZM48.6825 22.769L48.341 22.425C48.2728 22.3563 48.2045 22.3563 48.1362 22.3563C48.0679 22.3563 47.9996 22.3563 47.9313 22.425C47.7948 22.5626 47.7948 22.7002 47.9313 22.8378L48.2728 23.1817C48.341 23.2505 48.4093 23.2505 48.4776 23.2505C48.5459 23.2505 48.6142 23.2505 48.6825 23.1817C48.7508 23.1129 48.7508 22.9066 48.6825 22.769ZM46.0876 16.9907C45.9511 16.9907 45.8145 17.1283 45.8145 17.2659V17.7474C45.8145 17.885 45.9511 18.0225 46.0876 18.0225C46.2242 18.0225 46.3608 17.885 46.3608 17.7474V17.2659C46.4291 17.1283 46.2925 16.9907 46.0876 16.9907ZM46.0876 16.9907C45.9511 16.9907 45.8145 17.1283 45.8145 17.2659V17.7474C45.8145 17.885 45.9511 18.0225 46.0876 18.0225C46.2242 18.0225 46.3608 17.885 46.3608 17.7474V17.2659C46.4291 17.1283 46.2925 16.9907 46.0876 16.9907ZM48.6825 22.769L48.341 22.425C48.2728 22.3563 48.2045 22.3563 48.1362 22.3563C48.0679 22.3563 47.9996 22.3563 47.9313 22.425C47.7948 22.5626 47.7948 22.7002 47.9313 22.8378L48.2728 23.1817C48.341 23.2505 48.4093 23.2505 48.4776 23.2505C48.5459 23.2505 48.6142 23.2505 48.6825 23.1817C48.7508 23.1129 48.7508 22.9066 48.6825 22.769ZM48.6825 11.8315C48.5459 11.6939 48.4093 11.6939 48.2728 11.8315L47.9313 12.1755C47.863 12.2442 47.8631 12.313 47.8631 12.3818C47.8631 12.4506 47.863 12.5194 47.9313 12.5882C48.0679 12.7258 48.2045 12.7258 48.341 12.5882L48.6825 12.2442C48.7508 12.1755 48.7508 12.1067 48.7508 12.0379C48.7508 11.9691 48.7508 11.9003 48.6825 11.8315ZM53.8039 24.7639H53.3259C53.1893 24.7639 53.0527 24.9015 53.0527 25.039C53.0527 25.1766 53.1893 25.3142 53.3259 25.3142H53.8039C53.9405 25.3142 54.077 25.1766 54.077 25.039C54.077 24.8327 53.9405 24.7639 53.8039 24.7639ZM53.8039 9.76784H53.3259C53.1893 9.76784 53.0527 9.90541 53.0527 10.043C53.0527 10.1806 53.1893 10.3181 53.3259 10.3181H53.8039C53.9405 10.3181 54.077 10.1806 54.077 10.043C54.077 9.90541 53.9405 9.76784 53.8039 9.76784ZM53.5307 10.7309C49.8433 10.7309 46.8388 13.7576 46.8388 17.4722C46.8388 21.1868 49.8433 24.2136 53.5307 24.2136C57.2182 24.2136 60.2227 21.1868 60.2227 17.4722C60.291 13.7576 57.2864 10.7309 53.5307 10.7309ZM53.5307 20.9805C51.6188 20.9805 50.0482 19.3983 50.0482 17.4722C50.0482 15.5461 51.6188 13.964 53.5307 13.964C55.4427 13.964 57.0133 15.5461 57.0133 17.4722C57.0133 19.3983 55.4427 20.9805 53.5307 20.9805ZM59.1984 22.425C59.0619 22.2875 58.9253 22.2875 58.7887 22.425L58.4473 22.769C58.379 22.8378 58.379 22.9066 58.379 22.9754C58.379 23.0441 58.379 23.1129 58.4473 23.1817C58.5839 23.3193 58.7204 23.3193 58.857 23.1817L59.1984 22.8378C59.2667 22.769 59.2667 22.7002 59.2667 22.6314C59.2667 22.5626 59.2667 22.4938 59.1984 22.425ZM59.1984 12.1755L58.857 11.8315C58.7887 11.7627 58.7204 11.7627 58.6522 11.7627C58.5839 11.7627 58.5156 11.7627 58.4473 11.8315C58.3107 11.9691 58.3107 12.1067 58.4473 12.2442L58.7887 12.5882C58.857 12.657 58.9253 12.657 58.9936 12.657C59.0619 12.657 59.1302 12.657 59.1984 12.5882C59.2667 12.5194 59.2667 12.313 59.1984 12.1755ZM60.9739 16.9907C60.8373 16.9907 60.7007 17.1283 60.7007 17.2659V17.7474C60.7007 17.885 60.8373 18.0225 60.9739 18.0225C61.1104 18.0225 61.247 17.885 61.247 17.7474V17.2659C61.247 17.1283 61.1787 16.9907 60.9739 16.9907ZM60.9739 16.9907C60.8373 16.9907 60.7007 17.1283 60.7007 17.2659V17.7474C60.7007 17.885 60.8373 18.0225 60.9739 18.0225C61.1104 18.0225 61.247 17.885 61.247 17.7474V17.2659C61.247 17.1283 61.1787 16.9907 60.9739 16.9907ZM58.7887 12.5882C58.857 12.657 58.9253 12.657 58.9936 12.657C59.0619 12.657 59.1302 12.657 59.1984 12.5882C59.335 12.4506 59.335 12.313 59.1984 12.1755L58.857 11.8315C58.7887 11.7627 58.7204 11.7627 58.6522 11.7627C58.5839 11.7627 58.5156 11.7627 58.4473 11.8315C58.3107 11.9691 58.3107 12.1067 58.4473 12.2442L58.7887 12.5882ZM58.7887 22.425L58.4473 22.769C58.379 22.8378 58.379 22.9066 58.379 22.9754C58.379 23.0441 58.379 23.1129 58.4473 23.1817C58.5839 23.3193 58.7204 23.3193 58.857 23.1817L59.1984 22.8378C59.2667 22.769 59.2667 22.7002 59.2667 22.6314C59.2667 22.5626 59.2667 22.4938 59.1984 22.425C59.0619 22.3563 58.9253 22.3563 58.7887 22.425ZM53.5307 10.7309C49.8433 10.7309 46.8388 13.7576 46.8388 17.4722C46.8388 21.1868 49.8433 24.2136 53.5307 24.2136C57.2182 24.2136 60.2227 21.1868 60.2227 17.4722C60.291 13.7576 57.2864 10.7309 53.5307 10.7309ZM53.5307 20.9805C51.6188 20.9805 50.0482 19.3983 50.0482 17.4722C50.0482 15.5461 51.6188 13.964 53.5307 13.964C55.4427 13.964 57.0133 15.5461 57.0133 17.4722C57.0133 19.3983 55.4427 20.9805 53.5307 20.9805ZM53.3259 10.3181H53.8039C53.9405 10.3181 54.077 10.1806 54.077 10.043C54.077 9.90541 53.9405 9.76784 53.8039 9.76784H53.3259C53.1893 9.76784 53.0527 9.90541 53.0527 10.043C53.0527 10.1806 53.1893 10.3181 53.3259 10.3181ZM53.8039 24.7639H53.3259C53.1893 24.7639 53.0527 24.9015 53.0527 25.039C53.0527 25.1766 53.1893 25.3142 53.3259 25.3142H53.8039C53.9405 25.3142 54.077 25.1766 54.077 25.039C54.077 24.8327 53.9405 24.7639 53.8039 24.7639ZM48.341 12.5882L48.6825 12.2442C48.7508 12.1755 48.7508 12.1067 48.7508 12.0379C48.7508 11.9691 48.7508 11.9003 48.6825 11.8315C48.5459 11.6939 48.4093 11.6939 48.2728 11.8315L47.9313 12.1755C47.863 12.2442 47.8631 12.313 47.8631 12.3818C47.8631 12.4506 47.863 12.5194 47.9313 12.5882C48.0679 12.7258 48.2045 12.7258 48.341 12.5882ZM48.341 22.425C48.2728 22.3563 48.2045 22.3563 48.1362 22.3563C48.0679 22.3563 47.9996 22.3563 47.9313 22.425C47.7948 22.5626 47.7948 22.7002 47.9313 22.8378L48.2728 23.1817C48.341 23.2505 48.4093 23.2505 48.4776 23.2505C48.5459 23.2505 48.6142 23.2505 48.6825 23.1817C48.819 23.0441 48.819 22.9066 48.6825 22.769L48.341 22.425ZM46.0876 16.9907C45.9511 16.9907 45.8145 17.1283 45.8145 17.2659V17.7474C45.8145 17.885 45.9511 18.0225 46.0876 18.0225C46.2242 18.0225 46.3608 17.885 46.3608 17.7474V17.2659C46.4291 17.1283 46.2925 16.9907 46.0876 16.9907ZM61.0422 11.4876C60.9056 11.2812 60.7007 11.0748 60.5642 10.8685C60.4959 10.9373 60.3593 11.006 60.2227 11.006C59.9496 11.006 59.7447 10.7997 59.7447 10.5245C59.7447 10.3869 59.813 10.3181 59.8813 10.1806C59.6764 10.043 59.4716 9.83662 59.2667 9.69905C57.6962 8.52963 55.7159 7.77295 53.599 7.77295C51.4822 7.77295 49.5019 8.46084 47.8631 9.69905C47.6582 9.83662 47.4533 10.043 47.2485 10.1806C47.3168 10.2494 47.3168 10.3869 47.3168 10.4557C47.3168 10.7309 47.1119 10.9373 46.8388 10.9373C46.7022 10.9373 46.6339 10.8685 46.5656 10.7997C46.3608 11.006 46.2242 11.2124 46.0876 11.4188C44.7902 13.0697 44.0391 15.1334 44.0391 17.4034C44.0391 19.6047 44.7902 21.6684 46.0193 23.3193C46.1559 23.5257 46.3608 23.732 46.4973 23.9384C46.5656 23.8008 46.7022 23.732 46.8388 23.732C47.1119 23.732 47.3168 23.9384 47.3168 24.2136C47.3168 24.3511 47.2485 24.4887 47.1119 24.5575C47.3168 24.6951 47.5216 24.9015 47.7265 25.039C49.3653 26.2772 51.3456 27.0339 53.5307 27.0339C55.7159 27.0339 57.6962 26.2772 59.335 25.039C59.5399 24.9015 59.7447 24.6951 59.9496 24.5575C59.813 24.4887 59.7447 24.3511 59.7447 24.1448C59.7447 23.8696 59.9496 23.6633 60.2227 23.6633C60.3593 23.6633 60.5642 23.732 60.6324 23.8696C60.8373 23.6633 60.9739 23.4569 61.1104 23.2505C62.4079 21.5996 63.159 19.5359 63.159 17.3346C63.159 15.2022 62.3396 13.1385 61.0422 11.4876ZM59.5399 23.2505C59.5399 23.2505 59.4716 23.2505 59.5399 23.2505C59.4033 23.3881 59.335 23.4569 59.2667 23.5257C59.2667 23.5257 59.2667 23.5257 59.1984 23.5945C57.6962 24.9702 55.7842 25.7957 53.599 25.7957C49.0922 25.7957 45.3365 22.0811 45.3365 17.4722C45.3365 12.9321 49.0239 9.14873 53.599 9.14873C58.1742 9.14873 61.8616 12.8633 61.8616 17.4722C61.7933 19.7423 60.9056 21.7372 59.5399 23.2505ZM60.9739 16.9907C60.8373 16.9907 60.7007 17.1283 60.7007 17.2659V17.7474C60.7007 17.885 60.8373 18.0225 60.9739 18.0225C61.1104 18.0225 61.247 17.885 61.247 17.7474V17.2659C61.247 17.1283 61.1787 16.9907 60.9739 16.9907ZM58.7887 12.5882C58.857 12.657 58.9253 12.657 58.9936 12.657C59.0619 12.657 59.1302 12.657 59.1984 12.5882C59.335 12.4506 59.335 12.313 59.1984 12.1755L58.857 11.8315C58.7887 11.7627 58.7204 11.7627 58.6522 11.7627C58.5839 11.7627 58.5156 11.7627 58.4473 11.8315C58.3107 11.9691 58.3107 12.1067 58.4473 12.2442L58.7887 12.5882ZM58.7887 22.425L58.4473 22.769C58.379 22.8378 58.379 22.9066 58.379 22.9754C58.379 23.0441 58.379 23.1129 58.4473 23.1817C58.5839 23.3193 58.7204 23.3193 58.857 23.1817L59.1984 22.8378C59.2667 22.769 59.2667 22.7002 59.2667 22.6314C59.2667 22.5626 59.2667 22.4938 59.1984 22.425C59.0619 22.3563 58.9253 22.3563 58.7887 22.425ZM53.5307 10.7309C49.8433 10.7309 46.8388 13.7576 46.8388 17.4722C46.8388 21.1868 49.8433 24.2136 53.5307 24.2136C57.2182 24.2136 60.2227 21.1868 60.2227 17.4722C60.291 13.7576 57.2864 10.7309 53.5307 10.7309ZM53.5307 20.9805C51.6188 20.9805 50.0482 19.3983 50.0482 17.4722C50.0482 15.5461 51.6188 13.964 53.5307 13.964C55.4427 13.964 57.0133 15.5461 57.0133 17.4722C57.0133 19.3983 55.4427 20.9805 53.5307 20.9805ZM53.3259 10.3181H53.8039C53.9405 10.3181 54.077 10.1806 54.077 10.043C54.077 9.90541 53.9405 9.76784 53.8039 9.76784H53.3259C53.1893 9.76784 53.0527 9.90541 53.0527 10.043C53.0527 10.1806 53.1893 10.3181 53.3259 10.3181ZM53.8039 24.7639H53.3259C53.1893 24.7639 53.0527 24.9015 53.0527 25.039C53.0527 25.1766 53.1893 25.3142 53.3259 25.3142H53.8039C53.9405 25.3142 54.077 25.1766 54.077 25.039C54.077 24.8327 53.9405 24.7639 53.8039 24.7639ZM48.341 12.5882L48.6825 12.2442C48.7508 12.1755 48.7508 12.1067 48.7508 12.0379C48.7508 11.9691 48.7508 11.9003 48.6825 11.8315C48.5459 11.6939 48.4093 11.6939 48.2728 11.8315L47.9313 12.1755C47.863 12.2442 47.8631 12.313 47.8631 12.3818C47.8631 12.4506 47.863 12.5194 47.9313 12.5882C48.0679 12.7258 48.2045 12.7258 48.341 12.5882ZM48.341 22.425C48.2728 22.3563 48.2045 22.3563 48.1362 22.3563C48.0679 22.3563 47.9996 22.3563 47.9313 22.425C47.7948 22.5626 47.7948 22.7002 47.9313 22.8378L48.2728 23.1817C48.341 23.2505 48.4093 23.2505 48.4776 23.2505C48.5459 23.2505 48.6142 23.2505 48.6825 23.1817C48.819 23.0441 48.819 22.9066 48.6825 22.769L48.341 22.425ZM46.0876 16.9907C45.9511 16.9907 45.8145 17.1283 45.8145 17.2659V17.7474C45.8145 17.885 45.9511 18.0225 46.0876 18.0225C46.2242 18.0225 46.3608 17.885 46.3608 17.7474V17.2659C46.4291 17.1283 46.2925 16.9907 46.0876 16.9907ZM46.0876 16.9907C45.9511 16.9907 45.8145 17.1283 45.8145 17.2659V17.7474C45.8145 17.885 45.9511 18.0225 46.0876 18.0225C46.2242 18.0225 46.3608 17.885 46.3608 17.7474V17.2659C46.4291 17.1283 46.2925 16.9907 46.0876 16.9907ZM48.6825 22.769L48.341 22.425C48.2728 22.3563 48.2045 22.3563 48.1362 22.3563C48.0679 22.3563 47.9996 22.3563 47.9313 22.425C47.7948 22.5626 47.7948 22.7002 47.9313 22.8378L48.2728 23.1817C48.341 23.2505 48.4093 23.2505 48.4776 23.2505C48.5459 23.2505 48.6142 23.2505 48.6825 23.1817C48.7508 23.1129 48.7508 22.9066 48.6825 22.769ZM48.6825 11.8315C48.5459 11.6939 48.4093 11.6939 48.2728 11.8315L47.9313 12.1755C47.863 12.2442 47.8631 12.313 47.8631 12.3818C47.8631 12.4506 47.863 12.5194 47.9313 12.5882C48.0679 12.7258 48.2045 12.7258 48.341 12.5882L48.6825 12.2442C48.7508 12.1755 48.7508 12.1067 48.7508 12.0379C48.7508 11.9691 48.7508 11.9003 48.6825 11.8315ZM53.8039 24.7639H53.3259C53.1893 24.7639 53.0527 24.9015 53.0527 25.039C53.0527 25.1766 53.1893 25.3142 53.3259 25.3142H53.8039C53.9405 25.3142 54.077 25.1766 54.077 25.039C54.077 24.8327 53.9405 24.7639 53.8039 24.7639ZM53.8039 9.76784H53.3259C53.1893 9.76784 53.0527 9.90541 53.0527 10.043C53.0527 10.1806 53.1893 10.3181 53.3259 10.3181H53.8039C53.9405 10.3181 54.077 10.1806 54.077 10.043C54.077 9.90541 53.9405 9.76784 53.8039 9.76784ZM53.5307 10.7309C49.8433 10.7309 46.8388 13.7576 46.8388 17.4722C46.8388 21.1868 49.8433 24.2136 53.5307 24.2136C57.2182 24.2136 60.2227 21.1868 60.2227 17.4722C60.291 13.7576 57.2864 10.7309 53.5307 10.7309ZM53.5307 20.9805C51.6188 20.9805 50.0482 19.3983 50.0482 17.4722C50.0482 15.5461 51.6188 13.964 53.5307 13.964C55.4427 13.964 57.0133 15.5461 57.0133 17.4722C57.0133 19.3983 55.4427 20.9805 53.5307 20.9805ZM59.1984 22.425C59.0619 22.2875 58.9253 22.2875 58.7887 22.425L58.4473 22.769C58.379 22.8378 58.379 22.9066 58.379 22.9754C58.379 23.0441 58.379 23.1129 58.4473 23.1817C58.5839 23.3193 58.7204 23.3193 58.857 23.1817L59.1984 22.8378C59.2667 22.769 59.2667 22.7002 59.2667 22.6314C59.2667 22.5626 59.2667 22.4938 59.1984 22.425ZM59.1984 12.1755L58.857 11.8315C58.7887 11.7627 58.7204 11.7627 58.6522 11.7627C58.5839 11.7627 58.5156 11.7627 58.4473 11.8315C58.3107 11.9691 58.3107 12.1067 58.4473 12.2442L58.7887 12.5882C58.857 12.657 58.9253 12.657 58.9936 12.657C59.0619 12.657 59.1302 12.657 59.1984 12.5882C59.2667 12.5194 59.2667 12.313 59.1984 12.1755ZM60.9739 16.9907C60.8373 16.9907 60.7007 17.1283 60.7007 17.2659V17.7474C60.7007 17.885 60.8373 18.0225 60.9739 18.0225C61.1104 18.0225 61.247 17.885 61.247 17.7474V17.2659C61.247 17.1283 61.1787 16.9907 60.9739 16.9907ZM60.9739 16.9907C60.8373 16.9907 60.7007 17.1283 60.7007 17.2659V17.7474C60.7007 17.885 60.8373 18.0225 60.9739 18.0225C61.1104 18.0225 61.247 17.885 61.247 17.7474V17.2659C61.247 17.1283 61.1787 16.9907 60.9739 16.9907ZM59.1984 12.1755L58.857 11.8315C58.7887 11.7627 58.7204 11.7627 58.6522 11.7627C58.5839 11.7627 58.5156 11.7627 58.4473 11.8315C58.3107 11.9691 58.3107 12.1067 58.4473 12.2442L58.7887 12.5882C58.857 12.657 58.9253 12.657 58.9936 12.657C59.0619 12.657 59.1302 12.657 59.1984 12.5882C59.2667 12.5194 59.2667 12.313 59.1984 12.1755ZM59.1984 22.425C59.0619 22.2875 58.9253 22.2875 58.7887 22.425L58.4473 22.769C58.379 22.8378 58.379 22.9066 58.379 22.9754C58.379 23.0441 58.379 23.1129 58.4473 23.1817C58.5839 23.3193 58.7204 23.3193 58.857 23.1817L59.1984 22.8378C59.2667 22.769 59.2667 22.7002 59.2667 22.6314C59.2667 22.5626 59.2667 22.4938 59.1984 22.425ZM53.5307 10.7309C49.8433 10.7309 46.8388 13.7576 46.8388 17.4722C46.8388 21.1868 49.8433 24.2136 53.5307 24.2136C57.2182 24.2136 60.2227 21.1868 60.2227 17.4722C60.291 13.7576 57.2864 10.7309 53.5307 10.7309ZM53.5307 20.9805C51.6188 20.9805 50.0482 19.3983 50.0482 17.4722C50.0482 15.5461 51.6188 13.964 53.5307 13.964C55.4427 13.964 57.0133 15.5461 57.0133 17.4722C57.0133 19.3983 55.4427 20.9805 53.5307 20.9805ZM53.8039 9.76784H53.3259C53.1893 9.76784 53.0527 9.90541 53.0527 10.043C53.0527 10.1806 53.1893 10.3181 53.3259 10.3181H53.8039C53.9405 10.3181 54.077 10.1806 54.077 10.043C54.077 9.90541 53.9405 9.76784 53.8039 9.76784ZM53.8039 24.7639H53.3259C53.1893 24.7639 53.0527 24.9015 53.0527 25.039C53.0527 25.1766 53.1893 25.3142 53.3259 25.3142H53.8039C53.9405 25.3142 54.077 25.1766 54.077 25.039C54.077 24.8327 53.9405 24.7639 53.8039 24.7639ZM48.6825 11.8315C48.5459 11.6939 48.4093 11.6939 48.2728 11.8315L47.9313 12.1755C47.863 12.2442 47.8631 12.313 47.8631 12.3818C47.8631 12.4506 47.863 12.5194 47.9313 12.5882C48.0679 12.7258 48.2045 12.7258 48.341 12.5882L48.6825 12.2442C48.7508 12.1755 48.7508 12.1067 48.7508 12.0379C48.7508 11.9691 48.7508 11.9003 48.6825 11.8315ZM48.6825 22.769L48.341 22.425C48.2728 22.3563 48.2045 22.3563 48.1362 22.3563C48.0679 22.3563 47.9996 22.3563 47.9313 22.425C47.7948 22.5626 47.7948 22.7002 47.9313 22.8378L48.2728 23.1817C48.341 23.2505 48.4093 23.2505 48.4776 23.2505C48.5459 23.2505 48.6142 23.2505 48.6825 23.1817C48.7508 23.1129 48.7508 22.9066 48.6825 22.769ZM46.0876 16.9907C45.9511 16.9907 45.8145 17.1283 45.8145 17.2659V17.7474C45.8145 17.885 45.9511 18.0225 46.0876 18.0225C46.2242 18.0225 46.3608 17.885 46.3608 17.7474V17.2659C46.4291 17.1283 46.2925 16.9907 46.0876 16.9907ZM46.0876 16.9907C45.9511 16.9907 45.8145 17.1283 45.8145 17.2659V17.7474C45.8145 17.885 45.9511 18.0225 46.0876 18.0225C46.2242 18.0225 46.3608 17.885 46.3608 17.7474V17.2659C46.4291 17.1283 46.2925 16.9907 46.0876 16.9907ZM48.6825 22.769L48.341 22.425C48.2728 22.3563 48.2045 22.3563 48.1362 22.3563C48.0679 22.3563 47.9996 22.3563 47.9313 22.425C47.7948 22.5626 47.7948 22.7002 47.9313 22.8378L48.2728 23.1817C48.341 23.2505 48.4093 23.2505 48.4776 23.2505C48.5459 23.2505 48.6142 23.2505 48.6825 23.1817C48.7508 23.1129 48.7508 22.9066 48.6825 22.769ZM48.6825 11.8315C48.5459 11.6939 48.4093 11.6939 48.2728 11.8315L47.9313 12.1755C47.863 12.2442 47.8631 12.313 47.8631 12.3818C47.8631 12.4506 47.863 12.5194 47.9313 12.5882C48.0679 12.7258 48.2045 12.7258 48.341 12.5882L48.6825 12.2442C48.7508 12.1755 48.7508 12.1067 48.7508 12.0379C48.7508 11.9691 48.7508 11.9003 48.6825 11.8315ZM53.8039 24.7639H53.3259C53.1893 24.7639 53.0527 24.9015 53.0527 25.039C53.0527 25.1766 53.1893 25.3142 53.3259 25.3142H53.8039C53.9405 25.3142 54.077 25.1766 54.077 25.039C54.077 24.8327 53.9405 24.7639 53.8039 24.7639ZM53.8039 9.76784H53.3259C53.1893 9.76784 53.0527 9.90541 53.0527 10.043C53.0527 10.1806 53.1893 10.3181 53.3259 10.3181H53.8039C53.9405 10.3181 54.077 10.1806 54.077 10.043C54.077 9.90541 53.9405 9.76784 53.8039 9.76784ZM53.5307 10.7309C49.8433 10.7309 46.8388 13.7576 46.8388 17.4722C46.8388 21.1868 49.8433 24.2136 53.5307 24.2136C57.2182 24.2136 60.2227 21.1868 60.2227 17.4722C60.291 13.7576 57.2864 10.7309 53.5307 10.7309ZM53.5307 20.9805C51.6188 20.9805 50.0482 19.3983 50.0482 17.4722C50.0482 15.5461 51.6188 13.964 53.5307 13.964C55.4427 13.964 57.0133 15.5461 57.0133 17.4722C57.0133 19.3983 55.4427 20.9805 53.5307 20.9805ZM59.1984 22.425C59.0619 22.2875 58.9253 22.2875 58.7887 22.425L58.4473 22.769C58.379 22.8378 58.379 22.9066 58.379 22.9754C58.379 23.0441 58.379 23.1129 58.4473 23.1817C58.5839 23.3193 58.7204 23.3193 58.857 23.1817L59.1984 22.8378C59.2667 22.769 59.2667 22.7002 59.2667 22.6314C59.2667 22.5626 59.2667 22.4938 59.1984 22.425ZM59.1984 12.1755L58.857 11.8315C58.7887 11.7627 58.7204 11.7627 58.6522 11.7627C58.5839 11.7627 58.5156 11.7627 58.4473 11.8315C58.3107 11.9691 58.3107 12.1067 58.4473 12.2442L58.7887 12.5882C58.857 12.657 58.9253 12.657 58.9936 12.657C59.0619 12.657 59.1302 12.657 59.1984 12.5882C59.2667 12.5194 59.2667 12.313 59.1984 12.1755ZM60.9739 16.9907C60.8373 16.9907 60.7007 17.1283 60.7007 17.2659V17.7474C60.7007 17.885 60.8373 18.0225 60.9739 18.0225C61.1104 18.0225 61.247 17.885 61.247 17.7474V17.2659C61.247 17.1283 61.1787 16.9907 60.9739 16.9907ZM60.9739 16.9907C60.8373 16.9907 60.7007 17.1283 60.7007 17.2659V17.7474C60.7007 17.885 60.8373 18.0225 60.9739 18.0225C61.1104 18.0225 61.247 17.885 61.247 17.7474V17.2659C61.247 17.1283 61.1787 16.9907 60.9739 16.9907ZM59.1984 12.1755L58.857 11.8315C58.7887 11.7627 58.7204 11.7627 58.6522 11.7627C58.5839 11.7627 58.5156 11.7627 58.4473 11.8315C58.3107 11.9691 58.3107 12.1067 58.4473 12.2442L58.7887 12.5882C58.857 12.657 58.9253 12.657 58.9936 12.657C59.0619 12.657 59.1302 12.657 59.1984 12.5882C59.2667 12.5194 59.2667 12.313 59.1984 12.1755ZM59.1984 22.425C59.0619 22.2875 58.9253 22.2875 58.7887 22.425L58.4473 22.769C58.379 22.8378 58.379 22.9066 58.379 22.9754C58.379 23.0441 58.379 23.1129 58.4473 23.1817C58.5839 23.3193 58.7204 23.3193 58.857 23.1817L59.1984 22.8378C59.2667 22.769 59.2667 22.7002 59.2667 22.6314C59.2667 22.5626 59.2667 22.4938 59.1984 22.425ZM53.5307 10.7309C49.8433 10.7309 46.8388 13.7576 46.8388 17.4722C46.8388 21.1868 49.8433 24.2136 53.5307 24.2136C57.2182 24.2136 60.2227 21.1868 60.2227 17.4722C60.291 13.7576 57.2864 10.7309 53.5307 10.7309ZM53.5307 20.9805C51.6188 20.9805 50.0482 19.3983 50.0482 17.4722C50.0482 15.5461 51.6188 13.964 53.5307 13.964C55.4427 13.964 57.0133 15.5461 57.0133 17.4722C57.0133 19.3983 55.4427 20.9805 53.5307 20.9805ZM53.8039 9.76784H53.3259C53.1893 9.76784 53.0527 9.90541 53.0527 10.043C53.0527 10.1806 53.1893 10.3181 53.3259 10.3181H53.8039C53.9405 10.3181 54.077 10.1806 54.077 10.043C54.077 9.90541 53.9405 9.76784 53.8039 9.76784ZM53.8039 24.7639H53.3259C53.1893 24.7639 53.0527 24.9015 53.0527 25.039C53.0527 25.1766 53.1893 25.3142 53.3259 25.3142H53.8039C53.9405 25.3142 54.077 25.1766 54.077 25.039C54.077 24.8327 53.9405 24.7639 53.8039 24.7639ZM48.6825 11.8315C48.5459 11.6939 48.4093 11.6939 48.2728 11.8315L47.9313 12.1755C47.863 12.2442 47.8631 12.313 47.8631 12.3818C47.8631 12.4506 47.863 12.5194 47.9313 12.5882C48.0679 12.7258 48.2045 12.7258 48.341 12.5882L48.6825 12.2442C48.7508 12.1755 48.7508 12.1067 48.7508 12.0379C48.7508 11.9691 48.7508 11.9003 48.6825 11.8315ZM48.6825 22.769L48.341 22.425C48.2728 22.3563 48.2045 22.3563 48.1362 22.3563C48.0679 22.3563 47.9996 22.3563 47.9313 22.425C47.7948 22.5626 47.7948 22.7002 47.9313 22.8378L48.2728 23.1817C48.341 23.2505 48.4093 23.2505 48.4776 23.2505C48.5459 23.2505 48.6142 23.2505 48.6825 23.1817C48.7508 23.1129 48.7508 22.9066 48.6825 22.769ZM46.0876 16.9907C45.9511 16.9907 45.8145 17.1283 45.8145 17.2659V17.7474C45.8145 17.885 45.9511 18.0225 46.0876 18.0225C46.2242 18.0225 46.3608 17.885 46.3608 17.7474V17.2659C46.4291 17.1283 46.2925 16.9907 46.0876 16.9907Z" fill="#E4B820"/>
<path fill-rule="evenodd" clip-rule="evenodd" d="M60.9758 16.9909C60.8392 16.9909 60.7027 17.1285 60.7027 17.2661V17.7476C60.7027 17.8852 60.8392 18.0228 60.9758 18.0228C61.1124 18.0228 61.2489 17.8852 61.2489 17.7476V17.2661C61.2489 17.1285 61.1807 16.9909 60.9758 16.9909ZM58.7907 12.5884C58.8589 12.6572 58.9272 12.6572 58.9955 12.6572C59.0638 12.6572 59.1321 12.6572 59.2004 12.5884C59.3369 12.4508 59.3369 12.3133 59.2004 12.1757L58.8589 11.8317C58.7907 11.763 58.7224 11.763 58.6541 11.763C58.5858 11.763 58.5175 11.763 58.4492 11.8317C58.3127 11.9693 58.3127 12.1069 58.4492 12.2445L58.7907 12.5884ZM59.2004 22.4253C59.0638 22.2877 58.9272 22.2877 58.7907 22.4253L58.4492 22.7692C58.3809 22.838 58.3809 22.9068 58.3809 22.9756C58.3809 23.0444 58.3809 23.1132 58.4492 23.182C58.5858 23.3195 58.7224 23.3195 58.8589 23.182L59.2004 22.838C59.2687 22.7692 59.2687 22.7004 59.2687 22.6316C59.2687 22.5629 59.2687 22.4941 59.2004 22.4253ZM53.5327 10.7311C49.8453 10.7311 46.8407 13.7578 46.8407 17.4725C46.8407 21.1871 49.8453 24.2138 53.5327 24.2138C57.2201 24.2138 60.2247 21.1871 60.2247 17.4725C60.2929 13.7578 57.2884 10.7311 53.5327 10.7311ZM53.5327 20.9807C51.6207 20.9807 50.0501 19.3986 50.0501 17.4725C50.0501 15.5464 51.6207 13.9642 53.5327 13.9642C55.4447 13.9642 57.0152 15.5464 57.0152 17.4725C57.0152 19.3986 55.4447 20.9807 53.5327 20.9807ZM53.3278 10.3184H53.8058C53.9424 10.3184 54.079 10.1808 54.079 10.0432C54.079 9.90565 53.9424 9.76807 53.8058 9.76807H53.3278C53.1912 9.76807 53.0547 9.90565 53.0547 10.0432C53.0547 10.1808 53.1912 10.3184 53.3278 10.3184ZM53.8058 24.7641H53.3278C53.1912 24.7641 53.0547 24.9017 53.0547 25.0393C53.0547 25.1768 53.1912 25.3144 53.3278 25.3144H53.8058C53.9424 25.3144 54.079 25.1768 54.079 25.0393C54.079 24.8329 53.9424 24.7641 53.8058 24.7641ZM48.343 12.5884L48.6844 12.2445C48.7527 12.1757 48.7527 12.1069 48.7527 12.0381C48.7527 11.9693 48.7527 11.9005 48.6844 11.8317C48.5478 11.6942 48.4113 11.6942 48.2747 11.8317L47.9333 12.1757C47.865 12.2445 47.865 12.3133 47.865 12.3821C47.865 12.4508 47.865 12.5196 47.9333 12.5884C48.0698 12.726 48.2064 12.726 48.343 12.5884ZM48.343 22.4253C48.2747 22.3565 48.2064 22.3565 48.1381 22.3565C48.0698 22.3565 48.0015 22.3565 47.9333 22.4253C47.7967 22.5629 47.7967 22.7004 47.9333 22.838L48.2747 23.182C48.343 23.2507 48.4113 23.2507 48.4795 23.2507C48.5478 23.2507 48.6161 23.2507 48.6844 23.182C48.821 23.0444 48.821 22.9068 48.6844 22.7692L48.343 22.4253ZM46.0895 16.9909C45.953 16.9909 45.8164 17.1285 45.8164 17.2661V17.7476C45.8164 17.8852 45.953 18.0228 46.0895 18.0228C46.2261 18.0228 46.3627 17.8852 46.3627 17.7476V17.2661C46.431 17.1285 46.2944 16.9909 46.0895 16.9909Z" fill="#E4B820"/>
<path fill-rule="evenodd" clip-rule="evenodd" d="M53.5279 10.731C49.8405 10.731 46.8359 13.7577 46.8359 17.4723C46.8359 21.1869 49.8405 24.2136 53.5279 24.2136C57.2153 24.2136 60.2199 21.1869 60.2199 17.4723C60.2882 13.7577 57.2836 10.731 53.5279 10.731ZM53.5279 20.9805C51.6159 20.9805 50.0454 19.3984 50.0454 17.4723C50.0454 15.5462 51.6159 13.964 53.5279 13.964C55.4399 13.964 57.0105 15.5462 57.0105 17.4723C57.0105 19.3984 55.4399 20.9805 53.5279 20.9805Z" fill="#E4B820"/>
<path fill-rule="evenodd" clip-rule="evenodd" d="M60.2213 9.28662C59.8116 9.28662 59.4702 9.4242 59.2653 9.76815C59.0605 9.97451 58.9922 10.2497 58.9922 10.5936C58.9922 11.2815 59.5385 11.8318 60.2213 11.8318C60.5628 11.8318 60.8359 11.6942 61.0408 11.4879C61.3139 11.2815 61.4505 10.9376 61.4505 10.5248C61.4505 9.83693 60.9042 9.28662 60.2213 9.28662ZM60.2213 11.0063C59.9482 11.0063 59.7433 10.8 59.7433 10.5248C59.7433 10.3872 59.8116 10.3185 59.8799 10.1809C59.9482 10.1121 60.0848 10.0433 60.2213 10.0433C60.4945 10.0433 60.6993 10.2497 60.6993 10.5248C60.6993 10.6624 60.631 10.8 60.5628 10.8688C60.4262 11.0063 60.3579 11.0063 60.2213 11.0063Z" fill="#E4B820"/>
<path fill-rule="evenodd" clip-rule="evenodd" d="M47.8667 9.76815C47.5936 9.49299 47.2521 9.28662 46.8424 9.28662C46.1596 9.28662 45.6133 9.83693 45.6133 10.5248C45.6133 10.9376 45.7499 11.2815 46.0913 11.4879C46.2961 11.6942 46.5693 11.763 46.9107 11.763C47.5936 11.763 48.1398 11.2127 48.1398 10.5248C48.1398 10.2497 48.0033 9.97451 47.8667 9.76815ZM46.8424 11.0064C46.7059 11.0064 46.6376 10.9376 46.5693 10.8688C46.4327 10.8 46.3644 10.6624 46.3644 10.5248C46.3644 10.2497 46.5693 10.0433 46.8424 10.0433C46.979 10.0433 47.1156 10.1121 47.1838 10.2497C47.2521 10.3185 47.2521 10.456 47.2521 10.5248C47.3204 10.8 47.1156 11.0064 46.8424 11.0064Z" fill="#E4B820"/>
<path fill-rule="evenodd" clip-rule="evenodd" d="M61.109 23.3881C60.9042 23.1818 60.5628 23.0442 60.2213 23.0442C59.9482 23.0442 59.7433 23.113 59.5385 23.2506C59.4702 23.3193 59.3336 23.4569 59.2653 23.5257C59.2653 23.5257 59.2653 23.5257 59.197 23.5945C59.0605 23.8009 58.9922 24.0072 58.9922 24.2824C58.9922 24.6263 59.1288 24.9703 59.4019 25.1767C59.6068 25.383 59.9482 25.5206 60.2896 25.5206C60.9725 25.5206 61.5188 24.9703 61.5188 24.2824C61.4505 23.9384 61.3139 23.6633 61.109 23.3881ZM60.2213 24.7639C60.153 24.7639 60.0165 24.7639 59.9482 24.6951C59.8116 24.6263 59.7433 24.4888 59.7433 24.2824C59.7433 24.0072 59.9482 23.8009 60.2213 23.8009C60.3579 23.8009 60.5628 23.8697 60.631 24.0072C60.6993 24.076 60.6993 24.1448 60.6993 24.2824C60.6993 24.5576 60.4945 24.7639 60.2213 24.7639Z" fill="#E4B820"/>
<path fill-rule="evenodd" clip-rule="evenodd" d="M46.8424 23.0442C46.501 23.0442 46.1596 23.1818 45.9547 23.3881C45.7499 23.5945 45.6133 23.9384 45.6133 24.2824C45.6133 24.9703 46.1596 25.5206 46.8424 25.5206C47.1838 25.5206 47.5253 25.383 47.7301 25.1767C47.935 24.9703 48.0716 24.6263 48.0716 24.2824C48.1398 23.5945 47.5253 23.0442 46.8424 23.0442ZM46.8424 24.7639C46.5693 24.7639 46.3644 24.5576 46.3644 24.2824C46.3644 24.1448 46.4327 24.076 46.4327 24.0072C46.501 23.8697 46.6376 23.8009 46.7741 23.8009C47.0473 23.8009 47.2521 24.0072 47.2521 24.2824C47.2521 24.42 47.1838 24.5576 47.0473 24.6263C47.0473 24.6951 46.979 24.7639 46.8424 24.7639Z" fill="#E4B820"/>
<path fill-rule="evenodd" clip-rule="evenodd" d="M54.079 10.0432C54.079 10.1808 53.9424 10.3184 53.8058 10.3184H53.3278C53.1913 10.3184 53.0547 10.1808 53.0547 10.0432C53.0547 9.90565 53.1913 9.76807 53.3278 9.76807H53.8058C53.9424 9.76807 54.079 9.90565 54.079 10.0432Z" fill="#E4B820"/>
<path fill-rule="evenodd" clip-rule="evenodd" d="M54.079 25.0391C54.079 25.1767 53.9424 25.3142 53.8058 25.3142H53.3278C53.1913 25.3142 53.0547 25.1767 53.0547 25.0391C53.0547 24.9015 53.1913 24.7639 53.3278 24.7639H53.8058C53.9424 24.7639 54.079 24.8327 54.079 25.0391Z" fill="#E4B820"/>
<path fill-rule="evenodd" clip-rule="evenodd" d="M59.2051 12.5884C59.1368 12.6572 59.0686 12.6572 59.0003 12.6572C58.932 12.6572 58.8637 12.6572 58.7954 12.5884L58.454 12.2445C58.3174 12.1069 58.3174 11.9693 58.454 11.8317C58.5223 11.7629 58.5906 11.7629 58.6588 11.7629C58.7271 11.7629 58.7954 11.7629 58.8637 11.8317L59.2051 12.1757C59.2734 12.3133 59.2734 12.5196 59.2051 12.5884Z" fill="#E4B820"/>
<path fill-rule="evenodd" clip-rule="evenodd" d="M48.6817 23.1817C48.6134 23.2505 48.5451 23.2505 48.4768 23.2505C48.4086 23.2505 48.3403 23.2505 48.272 23.1817L47.9306 22.8377C47.794 22.7001 47.794 22.5626 47.9306 22.425C47.9988 22.3562 48.0671 22.3562 48.1354 22.3562C48.2037 22.3562 48.272 22.3562 48.3403 22.425L48.6817 22.7689C48.75 22.9065 48.75 23.1129 48.6817 23.1817Z" fill="#E4B820"/>
<path fill-rule="evenodd" clip-rule="evenodd" d="M61.2494 17.2661V17.7476C61.2494 17.8852 61.1128 18.0228 60.9763 18.0228C60.8397 18.0228 60.7031 17.8852 60.7031 17.7476V17.2661C60.7031 17.1285 60.8397 16.991 60.9763 16.991C61.1128 16.991 61.2494 17.1285 61.2494 17.2661Z" fill="#E4B820"/>
<path fill-rule="evenodd" clip-rule="evenodd" d="M46.433 17.2661V17.7476C46.433 17.8852 46.2964 18.0228 46.1599 18.0228C46.0233 18.0228 45.8867 17.8852 45.8867 17.7476V17.2661C45.8867 17.1285 46.0233 16.991 46.1599 16.991C46.2964 16.991 46.433 17.1285 46.433 17.2661Z" fill="#E4B820"/>
<path fill-rule="evenodd" clip-rule="evenodd" d="M48.751 12.0381C48.751 12.1069 48.751 12.1756 48.6827 12.2444L48.3413 12.5884C48.2047 12.726 48.0681 12.726 47.9316 12.5884C47.8633 12.5196 47.8633 12.4508 47.8633 12.382C47.8633 12.3132 47.8633 12.2444 47.9316 12.1756L48.273 11.8317C48.4096 11.6941 48.5461 11.6941 48.6827 11.8317C48.751 11.9005 48.751 11.9693 48.751 12.0381Z" fill="#E4B820"/>
<path fill-rule="evenodd" clip-rule="evenodd" d="M59.2666 22.6316C59.2666 22.7004 59.2666 22.7692 59.1983 22.8379L58.8569 23.1819C58.7203 23.3195 58.5838 23.3195 58.4472 23.1819C58.3789 23.1131 58.3789 23.0443 58.3789 22.9755C58.3789 22.9067 58.3789 22.8379 58.4472 22.7692L58.7886 22.4252C58.9252 22.2876 59.0618 22.2876 59.1983 22.4252C59.2666 22.494 59.2666 22.5628 59.2666 22.6316Z" fill="#E4B820"/>
<path d="M100.447 18.229L114.65 49.4593H111.372L106.592 39.2097H93.4814L88.7697 49.4593H85.3555L99.6954 18.229H100.447V18.229ZM100.037 24.9016L94.8472 36.183H105.227L100.037 24.9016Z" fill="#364556"/>
<path d="M172.765 26.9656C176.111 26.9656 178.911 28.2038 181.096 30.6114C183.076 32.8127 184.1 35.4954 184.1 38.5222C184.1 41.6177 183.008 44.3004 180.891 46.5705C178.774 48.8405 176.043 50.0099 172.697 50.0099C169.351 50.0099 166.619 48.8405 164.502 46.5705C162.386 44.3004 161.293 41.6177 161.293 38.5222C161.293 35.4954 162.317 32.8127 164.298 30.6114C166.551 28.2038 169.351 26.9656 172.765 26.9656ZM172.697 29.7171C170.375 29.7171 168.326 30.6114 166.688 32.3311C164.98 34.0509 164.161 36.1833 164.161 38.6597C164.161 40.2419 164.571 41.7552 165.322 43.131C166.073 44.5068 167.097 45.5387 168.395 46.2953C169.692 47.052 171.126 47.396 172.697 47.396C174.267 47.396 175.701 47.052 176.999 46.2953C178.296 45.5387 179.32 44.5068 180.071 43.131C180.823 41.7552 181.232 40.3107 181.232 38.6597C181.232 36.1833 180.413 34.1196 178.706 32.3311C177.067 30.6114 175.018 29.7171 172.697 29.7171Z" fill="#364556"/>
<path d="M128.241 49.4594H120.32V27.5156H128.105C131.041 27.5156 133.226 28.0659 134.524 29.1666C135.821 30.2672 136.504 31.5742 136.504 33.0188C136.504 35.22 135.275 36.7334 132.885 37.5588C136.436 38.5907 138.211 40.5168 138.211 43.4059C138.143 47.4645 134.865 49.4594 128.241 49.4594ZM123.871 29.992V36.8022H126.125C128.173 36.8022 129.539 36.7334 130.153 36.5958C130.768 36.4582 131.383 36.1143 131.929 35.6327C132.475 35.0824 132.748 34.3945 132.748 33.5003C132.748 32.606 132.475 31.8493 131.861 31.2302C131.246 30.6111 130.631 30.2672 130.017 30.1296C129.402 29.992 128.037 29.992 126.056 29.992H123.871ZM123.871 39.4162V47.1205H127.627C129.402 47.1205 130.631 47.0517 131.451 46.8454C132.202 46.639 132.885 46.2951 133.431 45.676C133.977 45.0569 134.251 44.3002 134.251 43.4059C134.251 42.2365 133.773 41.2735 132.817 40.5168C131.861 39.8289 130.631 39.4162 129.129 39.4162H123.871V39.4162Z" fill="#364556"/>
<path d="M141.285 27.5156H158.425V29.992H151.528V49.5282H148.182V29.992H141.285V27.5156Z" fill="#364556"/>
<path d="M189.633 49.5281V18.573H196.666V43.3371H204.86V18.573H211.894V43.3371H220.088V18.573H227.122V49.4593H189.633V49.5281Z" fill="#E4B820"/>
<path d="M256.075 26.6213L247.539 48.5651C246.583 51.0415 245.764 52.7612 245.081 53.8619C244.398 54.9625 243.442 55.8567 242.145 56.4758C240.847 57.1637 239.072 57.4389 236.818 57.4389C235.657 57.4389 234.36 57.3701 232.926 57.1637V52.0045C234.36 52.2109 235.657 52.3485 236.887 52.3485C238.457 52.3485 239.55 52.0733 240.096 51.5918C240.642 51.1103 241.052 50.4224 241.325 49.4593L231.355 26.6213H239.891L245.149 40.2416L250.202 26.6213H256.075Z" fill="#E4B820"/>
<path fill-rule="evenodd" clip-rule="evenodd" d="M259.281 49.5284V26.6216H267.544L271.846 35.0139L276.216 26.6216H284.001V49.5284H277.923V35.7705H277.718L274.099 42.4431H268.363L265.086 35.7705H264.812V49.5284H259.281Z" fill="#E4B820"/>
</svg>
