<svg width="40" height="34" viewBox="0 0 40 34" fill="none" xmlns="http://www.w3.org/2000/svg">
<path d="M19.8502 0.00472542C19.5703 0.0228192 19.3102 0.0890558 19.1114 0.192867L0.376508 9.91843C0.138071 10.0403 0.00265267 10.2064 3.85573e-05 10.3801C-0.00257556 10.5538 0.127829 10.7209 0.362569 10.8447L5.24144 13.3774L0.822577 16.0548C0.681654 16.1376 0.565095 16.2587 0.485394 16.405C0.405694 16.5514 0.365857 16.7175 0.370155 16.8856C0.374452 17.0536 0.422722 17.2173 0.50979 17.359C0.596857 17.5008 0.719439 17.6153 0.864396 17.6902L5.1578 19.919L0.822577 22.5385C0.681654 22.6213 0.565095 22.7424 0.485395 22.8888C0.405694 23.0351 0.365858 23.2012 0.370155 23.3693C0.374453 23.5373 0.422722 23.701 0.50979 23.8428C0.596857 23.9845 0.719439 24.099 0.864396 24.1739L19.5993 33.8995C19.7245 33.9656 19.863 34 20.0035 34C20.144 34 20.2825 33.9656 20.4078 33.8995L39.1426 24.1739C39.2876 24.099 39.4102 23.9845 39.4972 23.8428C39.5843 23.701 39.6326 23.5373 39.6369 23.3693C39.6412 23.2012 39.6013 23.0351 39.5216 22.8887C39.4419 22.7424 39.3254 22.6213 39.1844 22.5385L34.8492 19.919L39.1426 17.6902C39.2876 17.6153 39.4102 17.5008 39.4972 17.359C39.5843 17.2173 39.6326 17.0536 39.6369 16.8856C39.6412 16.7175 39.6013 16.5514 39.5216 16.405C39.4419 16.2587 39.3254 16.1376 39.1844 16.0548L34.7656 13.3774L39.6305 10.8447C39.8671 10.7218 40 10.5552 40 10.3815C40 10.2078 39.8671 10.0413 39.6305 9.91843L20.8956 0.192867C20.7604 0.122334 20.5959 0.0687343 20.4148 0.0361338C20.2336 0.00353325 20.0405 -0.00720832 19.8502 0.00472542ZM20.0035 1.58224L36.968 10.3815L20.0035 19.1809L3.05292 10.3815L20.0035 1.58224ZM7.15117 14.3615L19.1114 20.5702C19.2288 20.6321 19.3687 20.6813 19.5231 20.7149C19.6775 20.7484 19.8431 20.7657 20.0105 20.7657C20.1778 20.7657 20.3435 20.7484 20.4979 20.7149C20.6522 20.6813 20.7922 20.6321 20.9096 20.5702L32.8559 14.3615C32.8827 14.3824 32.9106 14.4017 32.9395 14.4194L36.8565 16.7929L20.0035 25.5488L3.1505 16.7929L7.06753 14.4194C7.09644 14.4017 7.12436 14.3824 7.15117 14.3615ZM7.06753 20.9031L19.5993 27.4158C19.7245 27.4819 19.863 27.5163 20.0035 27.5163C20.144 27.5163 20.2825 27.4819 20.4078 27.4158L32.9395 20.9031L36.8565 23.2766L20.0035 32.0325L3.1505 23.2766L7.06753 20.9031Z" fill="#364556"/>
</svg>
