<svg width="35" height="36" viewBox="0 0 35 36" fill="none" xmlns="http://www.w3.org/2000/svg">
<circle cx="17.5" cy="17.6841" r="17.5" fill="#2F89CE"/>
<path d="M8.18186 18.0112L12.2052 19.5114L13.7736 24.5576C13.8418 24.8985 14.251 24.9667 14.5237 24.7622L16.774 22.921C16.9786 22.7164 17.3196 22.7164 17.5924 22.921L21.6157 25.8532C21.8884 26.0578 22.2976 25.9214 22.3658 25.5805L25.3662 11.2602C25.4344 10.9192 25.0935 10.5782 24.7525 10.7146L8.18186 17.1247C7.77271 17.2611 7.77271 17.8748 8.18186 18.0112ZM13.569 18.7613L21.4793 13.9196C21.6157 13.8515 21.7521 14.056 21.6157 14.1242L15.1374 20.1933C14.9329 20.3979 14.7283 20.6706 14.7283 21.0116L14.5237 22.6482C14.5237 22.8528 14.1828 22.921 14.1146 22.6482L13.2963 19.6478C13.0917 19.3068 13.2281 18.8977 13.569 18.7613Z" fill="white"/>
</svg>
