<svg width="36" height="36" viewBox="0 0 36 36" fill="none" xmlns="http://www.w3.org/2000/svg">
<circle cx="18.4844" cy="17.928" r="17.5" fill="#F40000"/>
<path d="M26.1045 16.977C26.1045 16.6376 26.0479 16.2416 26.0479 15.7891C25.9913 15.3366 25.9348 14.884 25.8782 14.4881C25.7651 14.0356 25.5954 13.6962 25.256 13.4133C24.9731 13.1305 24.5772 12.9608 24.1812 12.9042C22.8802 12.7345 20.957 12.678 18.355 12.678C15.753 12.678 13.7731 12.7345 12.5287 12.9042C12.1327 12.9608 11.7368 13.1305 11.454 13.4133C11.1711 13.6962 10.9449 14.0356 10.8317 14.4881C10.7186 14.884 10.662 15.28 10.662 15.7891C10.6055 16.2416 10.6055 16.6376 10.6055 16.977C10.6055 17.3164 10.6055 17.7123 10.6055 18.278C10.6055 18.8436 10.6055 19.2962 10.6055 19.579C10.6055 19.9184 10.662 20.3143 10.662 20.7669C10.7186 21.2194 10.7752 21.6719 10.8317 22.0679C10.9449 22.5204 11.1146 22.8598 11.454 23.1426C11.7368 23.4255 12.1327 23.5951 12.5287 23.6517C13.8297 23.8214 15.753 23.878 18.355 23.878C20.957 23.878 22.9368 23.8214 24.1812 23.6517C24.5772 23.5951 24.9731 23.4255 25.256 23.1426C25.5388 22.8598 25.7651 22.5204 25.8782 22.0679C25.9913 21.6719 26.0479 21.276 26.0479 20.7669C26.1045 20.3143 26.1045 19.9184 26.1045 19.579C26.1045 19.2396 26.1045 18.8436 26.1045 18.278C26.1045 17.7123 26.1045 17.2598 26.1045 16.977ZM21.3529 18.7305L16.8843 21.5022C16.8277 21.5588 16.7146 21.6154 16.6014 21.6154C16.4883 21.6154 16.4317 21.6154 16.3186 21.5588C16.1489 21.4457 16.0358 21.276 16.0358 21.0497V15.4497C16.0358 15.2234 16.1489 15.0537 16.3186 14.9406C16.4883 14.8275 16.7146 14.8275 16.8843 14.9406L21.3529 17.7123C21.5226 17.8254 21.6358 17.9951 21.6358 18.1648C21.6358 18.3345 21.5226 18.6174 21.3529 18.7305Z" fill="white"/>
</svg>
