<?xml version="1.0" encoding="UTF-8"?>
<!DOCTYPE svg PUBLIC "-//W3C//DTD SVG 1.1//EN" "http://www.w3.org/Graphics/SVG/1.1/DTD/svg11.dtd">
<!-- Creator: CorelDRAW X7 -->
<svg xmlns="http://www.w3.org/2000/svg" xml:space="preserve" width="33.8666mm" height="34.5722mm" version="1.1" style="shape-rendering:geometricPrecision; text-rendering:geometricPrecision; image-rendering:optimizeQuality; fill-rule:evenodd; clip-rule:evenodd"
viewBox="0 0 3387 3457"
 xmlns:xlink="http://www.w3.org/1999/xlink">
 <defs>
  <style type="text/css">
   <![CDATA[
    .str1 {stroke:#C1CCD5;stroke-width:70.56;stroke-linecap:round;stroke-linejoin:round}
    .str0 {stroke:#C1CCD5;stroke-width:35.28;stroke-linecap:round;stroke-linejoin:round}
    .fil0 {fill:none}
   ]]>
  </style>
 </defs>
 <g id="Слой_x0020_1">
  <metadata id="CorelCorpID_0Corel-Layer"/>
  <g id="_4898620592">
   <g>
    <line class="fil0 str0" x1="529" y1="529" x2="635" y2= "494" />
    <path class="fil0 str0" d="M635 494c0,0 302,206 459,176 156,-29 134,-195 211,-317 78,-122 202,-27 247,70 45,98 152,465 247,600 95,136 197,250 459,423 261,174 126,285 70,318 -55,32 -231,75 -282,212 -51,136 21,443 35,564 15,121 -69,173 -141,106 -71,-67 -322,-435 -458,-494 -137,-59 -378,-43 -494,-35 -116,7 -154,-104 -141,-247 12,-143 98,-257 85,-408 -12,-148 -80,-269 -174,-417 -94,-149 -159,-251 -208,-309 -64,-76 -21,-207 -21,-207"/>
    <path class="fil0 str0" d="M531 508c221,-107 492,-261 492,-261"/>
    <line class="fil0 str0" x1="1023" y1="247" x2="1129" y2= "212" />
    <path class="fil0 str0" d="M1129 212c0,0 126,107 279,63 133,-38 246,-133 391,-204 130,-65 202,-28 247,70 45,98 152,464 247,600 95,135 197,250 459,423 261,173 126,285 70,318 -55,32 -233,74 -282,211 -21,59 4,430 -2,551 -5,120 -112,234 -202,272 -123,51 -309,170 -328,164"/>
    <path class="fil0 str0" d="M847 1517c0,0 -224,96 -424,248 -199,152 -296,277 -322,366 -25,89 -45,153 7,245 80,144 345,425 650,572 341,164 668,240 963,233 296,-6 773,-121 1080,-309 306,-188 472,-346 515,-473 43,-127 52,-164 0,-282 -52,-119 -191,-272 -317,-353 -126,-82 -318,-212 -318,-212"/>
    <path class="fil0 str0" d="M845 1517c0,0 -224,72 -423,242 -200,171 -296,276 -323,375 -25,100 -56,359 2,458 59,98 185,341 613,549 348,169 670,270 966,265 391,-6 852,-126 1098,-290 310,-207 499,-373 537,-480 49,-140 53,-385 1,-518 -52,-132 -192,-268 -318,-360 -126,-91 -318,-202 -318,-202"/>
    <path class="fil0 str0" d="M1214 1546c-106,-232 -84,-470 50,-538 138,-69 345,67 461,308 118,246 92,497 -56,556 -144,58 -347,-90 -455,-326"/>
   </g>
   <path class="fil0 str1" d="M529 529c0,0 -43,131 21,207 49,58 114,160 208,309 94,148 126,269 139,417 2,19 2,38 2,56"/>
   <line class="fil0 str1" x1="899" y1="1518" x2="845" y2= "1517" />
   <path class="fil0 str1" d="M845 1517c0,0 -224,72 -423,242 -200,171 -296,276 -323,375 -25,100 -56,359 2,458 59,98 185,341 613,549 348,169 670,270 966,265 391,-6 852,-126 1098,-290 310,-207 499,-373 537,-480 49,-140 53,-385 1,-518 -52,-132 -192,-268 -318,-360 -126,-91 -318,-202 -318,-202"/>
   <line class="fil0 str1" x1="2680" y1="1556" x2="2665" y2= "1556" />
   <path class="fil0 str1" d="M2665 1556c62,-37 127,-57 157,-74 56,-33 191,-145 -70,-318 -262,-173 -364,-288 -459,-423 -95,-136 -202,-502 -247,-600 -45,-98 -117,-135 -247,-70 -145,71 -258,166 -391,204 -153,44 -279,-63 -279,-63"/>
   <line class="fil0 str1" x1="1129" y1="212" x2="1023" y2= "247" />
   <path class="fil0 str1" d="M1023 247c0,0 -271,154 -492,261"/>
   <polyline class="fil0 str1" points="531,508 542,525 529,529 "/>
  </g>
 </g>
</svg>
