<?xml version="1.0" encoding="UTF-8"?>
<!DOCTYPE svg PUBLIC "-//W3C//DTD SVG 1.1//EN" "http://www.w3.org/Graphics/SVG/1.1/DTD/svg11.dtd">
<!-- Creator: CorelDRAW X7 -->
<svg xmlns="http://www.w3.org/2000/svg" xml:space="preserve" width="29.986mm" height="34.9248mm" version="1.1" style="shape-rendering:geometricPrecision; text-rendering:geometricPrecision; image-rendering:optimizeQuality; fill-rule:evenodd; clip-rule:evenodd"
viewBox="0 0 2999 3492"
 xmlns:xlink="http://www.w3.org/1999/xlink">
 <defs>
  <style type="text/css">
   <![CDATA[
    .str0 {stroke:#C1CCD5;stroke-width:70.56;stroke-linecap:square;stroke-linejoin:round}
    .str1 {stroke:#C1CCD5;stroke-width:35.28;stroke-linecap:square;stroke-linejoin:round}
    .fil0 {fill:none}
   ]]>
  </style>
 </defs>
 <g id="Слой_x0020_1">
  <metadata id="CorelCorpID_0Corel-Layer"/>
  <g id="_1213773520">
   <path class="fil0 str0" d="M647 210c48,-35 91,-60 145,-85"/>
   <line class="fil0 str0" x1="792" y1="125" x2="909" y2= "242" />
   <path class="fil0 str0" d="M909 242c29,18 41,8 88,-2"/>
   <line class="fil0 str0" x1="997" y1="240" x2="975" y2= "89" />
   <path class="fil0 str0" d="M975 89c61,-9 115,-11 180,-9"/>
   <line class="fil0 str0" x1="1155" y1="80" x2="1242" y2= "226" />
   <path class="fil0 str0" d="M1242 226c23,19 60,81 114,94"/>
   <line class="fil0 str0" x1="1356" y1="320" x2="1374" y2= "161" />
   <path class="fil0 str0" d="M1374 161c67,19 95,58 163,87"/>
   <line class="fil0 str0" x1="1537" y1="248" x2="1585" y2= "405" />
   <path class="fil0 str0" d="M1585 405c54,26 69,69 122,102"/>
   <line class="fil0 str0" x1="1707" y1="507" x2="1789" y2= "422" />
   <path class="fil0 str0" d="M1789 422c66,44 121,86 183,139"/>
   <line class="fil0 str0" x1="1972" y1="561" x2="1974" y2= "710" />
   <path class="fil0 str0" d="M1974 710c50,45 90,85 136,135"/>
   <line class="fil0 str0" x1="2110" y1="845" x2="2224" y2= "809" />
   <path class="fil0 str0" d="M2224 809c55,64 101,122 151,192"/>
   <line class="fil0 str0" x1="2375" y1="1001" x2="2332" y2= "1125" />
   <path class="fil0 str0" d="M2332 1125c38,58 69,108 103,168"/>
   <line class="fil0 str0" x1="2435" y1="1293" x2="2565" y2= "1313" />
   <path class="fil0 str0" d="M2565 1313c40,77 71,143 102,222"/>
   <line class="fil0 str0" x1="2667" y1="1535" x2="2584" y2= "1619" />
   <path class="fil0 str0" d="M2584 1619c23,63 40,118 57,182"/>
   <line class="fil0 str0" x1="2641" y1="1801" x2="2774" y2= "1873" />
   <path class="fil0 str0" d="M2774 1873c19,80 31,148 40,226"/>
   <line class="fil0 str0" x1="2814" y1="2099" x2="2699" y2= "2132" />
   <path class="fil0 str0" d="M2699 2132c5,62 25,86 23,146"/>
   <line class="fil0 str0" x1="2722" y1="2278" x2="2915" y2= "2389" />
   <path class="fil0 str0" d="M2915 2389c-4,73 1,100 -14,169"/>
   <line class="fil0 str0" x1="2901" y1="2558" x2="2721" y2= "2482" />
   <path class="fil0 str0" d="M2721 2482c-14,53 6,162 -14,211"/>
   <line class="fil0 str0" x1="2707" y1="2693" x2="2841" y2= "2857" />
   <path class="fil0 str0" d="M2841 2857c-28,58 -47,76 -83,126"/>
   <line class="fil0 str0" x1="2758" y1="2983" x2="2606" y2= "2830" />
   <path class="fil0 str0" d="M2606 2830c-31,38 -43,102 -79,133"/>
   <line class="fil0 str0" x1="2527" y1="2963" x2="2608" y2= "3137" />
   <path class="fil0 str0" d="M2608 3137c-48,37 -69,50 -123,75"/>
   <line class="fil0 str0" x1="2485" y1="3212" x2="2442" y2= "3142" />
   <path class="fil0 str0" d="M2442 3142c-45,18 -106,44 -154,55"/>
   <line class="fil0 str0" x1="2288" y1="3197" x2="2272" y2= "3296" />
   <path class="fil0 str0" d="M2272 3296c-44,1 -337,128 -337,128 -53,-4 -98,-164 -152,-176"/>
   <line class="fil0 str0" x1="1783" y1="3248" x2="1585" y2= "3363" />
   <path class="fil0 str0" d="M1585 3363c-68,-18 -127,-39 -195,-69"/>
   <line class="fil0 str0" x1="1390" y1="3294" x2="1342" y2= "3134" />
   <path class="fil0 str0" d="M1342 3134c-55,-26 -101,-52 -155,-85"/>
   <line class="fil0 str0" x1="1187" y1="3049" x2="1105" y2= "3136" />
   <path class="fil0 str0" d="M1105 3136c-66,-45 -122,-87 -185,-141"/>
   <line class="fil0 str0" x1="920" y1="2995" x2="918" y2= "2843" />
   <path class="fil0 str0" d="M918 2843c-50,-45 -91,-85 -137,-136"/>
   <line class="fil0 str0" x1="781" y1="2707" x2="666" y2= "2743" />
   <path class="fil0 str0" d="M666 2743c-56,-65 -102,-123 -152,-194"/>
   <line class="fil0 str0" x1="514" y1="2549" x2="558" y2= "2423" />
   <path class="fil0 str0" d="M558 2423c-38,-58 -69,-109 -103,-170"/>
   <line class="fil0 str0" x1="455" y1="2253" x2="324" y2= "2234" />
   <path class="fil0 str0" d="M324 2234c-40,-78 -70,-145 -102,-225"/>
   <line class="fil0 str0" x1="222" y1="2009" x2="308" y2= "1925" />
   <path class="fil0 str0" d="M308 1925c-23,-64 -40,-119 -57,-183"/>
   <line class="fil0 str0" x1="251" y1="1742" x2="117" y2= "1669" />
   <path class="fil0 str0" d="M117 1669c-18,-80 -29,-148 -37,-226"/>
   <line class="fil0 str0" x1="80" y1="1443" x2="195" y2= "1410" />
   <path class="fil0 str0" d="M195 1410c-4,-62 -5,-114 -3,-174"/>
   <line class="fil0 str0" x1="192" y1="1236" x2="73" y2= "1120" />
   <path class="fil0 str0" d="M73 1120c6,-74 14,-134 29,-202"/>
   <line class="fil0 str0" x1="102" y1="918" x2="235" y2= "941" />
   <path class="fil0 str0" d="M235 941c14,-54 29,-97 49,-145"/>
   <line class="fil0 str0" x1="284" y1="796" x2="194" y2= "651" />
   <path class="fil0 str0" d="M194 651c29,-58 56,-104 93,-154"/>
   <line class="fil0 str0" x1="287" y1="497" x2="507" y2= "332" />
   <path class="fil0 str0" d="M507 332c10,-6 34,85 184,-12"/>
   <line class="fil0 str0" x1="691" y1="320" x2="647" y2= "210" />
   <g>
    <g>
     <path class="fil0 str1" d="M668 196c33,-24 64,-42 101,-60"/>
     <line class="fil0 str1" x1="769" y1="136" x2="943" y2= "338" />
     <path class="fil0 str1" d="M943 338c33,-12 63,-19 100,-25"/>
     <line class="fil0 str1" x1="1043" y1="313" x2="1008" y2= "77" />
     <path class="fil0 str1" d="M1008 77c45,-3 83,-2 130,2"/>
     <line class="fil0 str1" x1="1138" y1="79" x2="1270" y2= "317" />
     <path class="fil0 str1" d="M1270 317c41,7 77,16 119,29"/>
     <line class="fil0 str1" x1="1389" y1="346" x2="1422" y2= "148" />
     <path class="fil0 str1" d="M1422 148c50,19 94,38 144,64"/>
     <line class="fil0 str1" x1="1566" y1="212" x2="1640" y2= "458" />
     <path class="fil0 str1" d="M1640 458c44,25 80,48 123,79"/>
     <line class="fil0 str1" x1="1763" y1="537" x2="1861" y2= "401" />
     <path class="fil0 str1" d="M1861 401c50,39 92,74 141,118"/>
     <line class="fil0 str1" x1="2002" y1="519" x2="2009" y2= "743" />
     <path class="fil0 str1" d="M2009 743c41,40 75,76 113,120"/>
     <line class="fil0 str1" x1="2122" y1="863" x2="2273" y2= "806" />
     <path class="fil0 str1" d="M2273 806c43,53 79,101 120,158"/>
     <line class="fil0 str1" x1="2393" y1="964" x2="2333" y2= "1140" />
     <path class="fil0 str1" d="M2333 1140c33,50 60,93 89,146"/>
     <line class="fil0 str1" x1="2422" y1="1286" x2="2607" y2= "1314" />
     <path class="fil0 str1" d="M2607 1314c33,63 59,116 86,180"/>
     <line class="fil0 str1" x1="2693" y1="1494" x2="2572" y2= "1600" />
     <path class="fil0 str1" d="M2572 1600c22,54 39,101 55,155"/>
     <line class="fil0 str1" x1="2627" y1="1755" x2="2825" y2= "1866" />
     <path class="fil0 str1" d="M2825 1866c18,64 30,117 41,179"/>
     <line class="fil0 str1" x1="2866" y1="2045" x2="2699" y2= "2069" />
     <path class="fil0 str1" d="M2699 2069c8,52 12,95 14,145"/>
     <line class="fil0 str1" x1="2713" y1="2214" x2="2900" y2= "2395" />
     <path class="fil0 str1" d="M2900 2395c-1,58 -3,104 -9,158"/>
     <line class="fil0 str1" x1="2891" y1="2553" x2="2697" y2= "2490" />
     <path class="fil0 str1" d="M2697 2490c-8,44 -16,79 -29,118"/>
     <line class="fil0 str1" x1="2668" y1="2608" x2="2821" y2= "2838" />
     <path class="fil0 str1" d="M2821 2838c-18,44 -35,78 -58,117"/>
     <line class="fil0 str1" x1="2763" y1="2955" x2="2566" y2= "2813" />
     <path class="fil0 str1" d="M2566 2813c-22,29 -43,52 -69,77"/>
     <line class="fil0 str1" x1="2497" y1="2890" x2="2598" y2= "3140" />
     <path class="fil0 str1" d="M2598 3140c-33,25 -63,43 -101,61"/>
     <line class="fil0 str1" x1="2497" y1="3201" x2="2321" y2= "2997" />
     <path class="fil0 str1" d="M2321 2997c-34,12 -64,20 -100,26"/>
     <line class="fil0 str1" x1="2221" y1="3023" x2="2257" y2= "3263" />
     <path class="fil0 str1" d="M2257 3263c-45,3 -84,3 -131,-1"/>
     <line class="fil0 str1" x1="2126" y1="3262" x2="1992" y2= "3020" />
     <path class="fil0 str1" d="M1992 3020c-41,-7 -77,-16 -119,-29"/>
     <line class="fil0 str1" x1="1873" y1="2991" x2="1839" y2= "3193" />
     <path class="fil0 str1" d="M1839 3193c-51,-19 -94,-38 -145,-65"/>
     <line class="fil0 str1" x1="1694" y1="3128" x2="1619" y2= "2878" />
     <path class="fil0 str1" d="M1619 2878c-44,-25 -81,-49 -124,-79"/>
     <line class="fil0 str1" x1="1495" y1="2799" x2="1396" y2= "2937" />
     <path class="fil0 str1" d="M1396 2937c-51,-39 -93,-75 -142,-119"/>
     <line class="fil0 str1" x1="1254" y1="2818" x2="1247" y2= "2589" />
     <path class="fil0 str1" d="M1247 2589c-41,-40 -75,-76 -114,-120"/>
     <line class="fil0 str1" x1="1133" y1="2469" x2="981" y2= "2527" />
     <path class="fil0 str1" d="M981 2527c-44,-54 -80,-102 -121,-160"/>
     <line class="fil0 str1" x1="860" y1="2367" x2="922" y2= "2189" />
     <path class="fil0 str1" d="M922 2189c-33,-50 -60,-95 -89,-147"/>
     <line class="fil0 str1" x1="833" y1="2042" x2="646" y2= "2013" />
     <path class="fil0 str1" d="M646 2013c-33,-63 -58,-116 -86,-180"/>
     <line class="fil0 str1" x1="560" y1="1833" x2="683" y2= "1726" />
     <path class="fil0 str1" d="M683 1726c-22,-55 -37,-101 -54,-156"/>
     <line class="fil0 str1" x1="629" y1="1570" x2="430" y2= "1458" />
     <path class="fil0 str1" d="M430 1458c-17,-63 -29,-117 -39,-179"/>
     <line class="fil0 str1" x1="391" y1="1279" x2="559" y2= "1256" />
     <path class="fil0 str1" d="M559 1256c-7,-52 -11,-95 -13,-145"/>
     <line class="fil0 str1" x1="546" y1="1111" x2="360" y2= "930" />
     <path class="fil0 str1" d="M360 930c1,-57 4,-103 10,-156"/>
     <line class="fil0 str1" x1="370" y1="774" x2="564" y2= "837" />
     <path class="fil0 str1" d="M564 837c9,-43 17,-79 30,-117"/>
     <line class="fil0 str1" x1="594" y1="720" x2="443" y2= "492" />
     <path class="fil0 str1" d="M443 492c18,-43 36,-77 59,-115"/>
     <line class="fil0 str1" x1="502" y1="377" x2="698" y2= "518" />
     <path class="fil0 str1" d="M698 518c22,-29 43,-52 69,-75"/>
     <line class="fil0 str1" x1="767" y1="443" x2="668" y2= "196" />
    </g>
    <line class="fil0 str1" x1="113" y1="1135" x2="386" y2= "972" />
    <line class="fil0 str1" x1="174" y1="690" x2="446" y2= "528" />
    <line class="fil0 str1" x1="132" y1="960" x2="404" y2= "798" />
    <line class="fil0 str1" x1="265" y1="1249" x2="538" y2= "1086" />
    <line class="fil0 str1" x1="108" y1="1466" x2="381" y2= "1303" />
    <line class="fil0 str1" x1="187" y1="1665" x2="460" y2= "1502" />
    <line class="fil0 str1" x1="320" y1="1749" x2="593" y2= "1586" />
    <line class="fil0 str1" x1="309" y1="2003" x2="582" y2= "1839" />
    <line class="fil0 str1" x1="418" y1="2185" x2="692" y2= "2021" />
    <line class="fil0 str1" x1="607" y1="2360" x2="881" y2= "2196" />
    <line class="fil0 str1" x1="589" y1="2536" x2="863" y2= "2372" />
    <line class="fil0 str1" x1="700" y1="2718" x2="973" y2= "2553" />
    <line class="fil0 str1" x1="962" y1="2808" x2="1235" y2= "2643" />
    <line class="fil0 str1" x1="974" y1="2967" x2="1247" y2= "2801" />
    <line class="fil0 str1" x1="1097" y1="3100" x2="1370" y2= "2935" />
    <line class="fil0 str1" x1="1334" y1="3081" x2="1607" y2= "2916" />
    <line class="fil0 str1" x1="1396" y1="3252" x2="1669" y2= "3086" />
    <line class="fil0 str1" x1="1549" y1="3367" x2="1821" y2= "3201" />
    <line class="fil0 str1" x1="1883" y1="3371" x2="2127" y2= "3237" />
    <path class="fil0 str1" d="M1268 1880c-294,-482 -307,-1005 -33,-1169 274,-163 732,92 1026,572 293,481 310,1006 37,1172 -275,166 -737,-91 -1030,-575"/>
    <path class="fil0 str1" d="M2300 2443c-42,14 -101,53 -167,96 -260,168 -723,-84 -1016,-568 -294,-482 -307,-1006 -33,-1170 233,-139 235,-112 235,-112"/>
    <polyline class="fil0 str1" points="1307,1200 1385,1194 1482,1218 1597,1272 1592,1398 1725,1482 1746,978 1843,1002 1859,1566 2004,1602 2142,1560 "/>
    <path class="fil0 str1" d="M2142 1560c0,0 63,85 85,72 22,-14 44,138 44,138"/>
    <polyline class="fil0 str1" points="2271,1770 2185,1698 2125,1734 2139,1891 2254,1945 2333,1939 2201,2060 2067,1975 1968,1746 1872,1723 1910,1988 1923,2145 1821,2248 1706,2194 1756,1668 1605,1554 1533,1639 1417,1585 1296,1452 1271,1344 1356,1416 1453,1440 1495,1374 1422,1254 1307,1200 "/>
   </g>
  </g>
 </g>
</svg>
