<svg width="33" height="33" viewBox="0 0 33 33" fill="none" xmlns="http://www.w3.org/2000/svg">
<path d="M3.70501 1C2.91429 0.999997 2.20184 1.20427 1.70294 1.70262C1.20405 2.20097 0.995013 2.91723 1.00009 3.704V26.8903V26.9009C0.997025 27.6878 1.20248 28.4044 1.70294 28.9024C2.20575 29.4027 2.92672 29.6156 3.72631 29.6156H15.6854C17.4154 31.1025 19.6618 32.0002 22.1176 32.0002C27.5675 32.0002 32.0001 27.5691 32.0001 22.1211C32.0001 19.6727 31.1056 17.4314 29.6254 15.7017C29.6254 11.692 29.6254 7.68106 29.6254 3.67213C29.6203 2.89566 29.4099 2.19505 28.9118 1.70268C28.4138 1.21032 27.6961 1.00006 26.9098 1.00006L3.70501 1ZM3.70501 2.36265H14.6205V14.6265H2.3632V3.704C2.34852 3.30786 2.47296 2.88009 2.67203 2.6714C2.99913 2.39975 3.3523 2.36579 3.70501 2.36265V2.36265ZM15.9836 2.36265H26.9098C27.4653 2.36264 27.7731 2.49307 27.9534 2.67137C28.1338 2.84968 28.2587 3.13913 28.2622 3.68272V14.3922C26.5739 13.0458 24.4396 12.2312 22.1176 12.2312C19.7998 12.2312 17.6705 13.0395 15.9836 14.3816V2.36265ZM22.0324 5.07728C21.7013 5.11893 21.4283 5.43568 21.4361 5.76925V7.81322C20.7333 7.81321 20.0135 7.81322 19.3168 7.81322C18.96 7.83271 18.653 8.17503 18.6725 8.53179C18.692 8.88855 19.0345 9.19541 19.3914 9.17586H21.4361V11.2198C21.431 11.5798 21.7575 11.9109 22.1176 11.9109C22.4777 11.9109 22.8043 11.5798 22.7992 11.2198V9.17586H24.8438C25.2039 9.18093 25.5351 8.85453 25.5351 8.49454C25.5351 8.13456 25.2039 7.80813 24.8438 7.81322H22.7992V5.76925C22.8098 5.26455 22.435 5.07631 22.0324 5.07728ZM5.68577 7.81324C5.32889 7.83273 5.02191 8.17505 5.04142 8.53181C5.06094 8.88857 5.40344 9.19543 5.76032 9.17589H11.2127C11.5728 9.18095 11.904 8.85455 11.904 8.49456C11.904 8.13458 11.5728 7.80815 11.2127 7.81324C9.37299 7.81324 7.51986 7.81324 5.68577 7.81324ZM22.1176 13.6045C26.8308 13.6045 30.6477 17.4094 30.6477 22.121C30.6477 26.8326 26.8308 30.6269 22.1176 30.6269C17.4044 30.6269 13.5982 26.8326 13.5982 22.121C13.5982 17.4094 17.4044 13.6045 22.1176 13.6045ZM2.3632 15.9891H14.3862C13.0468 17.677 12.2457 19.8051 12.2457 22.121C12.2457 24.4369 13.0468 26.567 14.3862 28.2529H3.72631C3.15214 28.2529 2.85128 28.1119 2.67203 27.9336C2.49278 27.7552 2.35961 27.4617 2.3632 26.9009V15.9891ZM9.92419 19.7044L8.48653 21.1416L7.03823 19.7044C6.67848 19.4297 6.38162 19.4601 6.0835 19.6796C5.76599 19.9888 5.90591 20.3858 6.06915 20.6731L7.5068 22.1209L6.06915 23.558C5.81544 23.8116 5.81544 24.2731 6.06915 24.5268C6.32285 24.7804 6.78453 24.7804 7.03823 24.5268L8.48653 23.079L9.92419 24.5268C10.1779 24.7804 10.6396 24.7804 10.8933 24.5268C11.147 24.2731 11.147 23.8116 10.8933 23.558L9.44497 22.1209L10.8933 20.6731C11.193 20.3148 11.1369 20.0066 10.8907 19.6739C10.5447 19.4245 10.2052 19.5292 9.92419 19.7043L9.92419 19.7044ZM19.3168 20.0771C18.96 20.0967 18.653 20.4389 18.6725 20.7956C18.692 21.1524 19.0345 21.4593 19.3914 21.4397H24.8438C25.2039 21.4449 25.5351 21.1183 25.5351 20.7584C25.5351 20.3984 25.2039 20.072 24.8438 20.0771C23.0041 20.0771 21.1509 20.0771 19.3168 20.0771V20.0771ZM19.3381 22.8023C18.9812 22.8189 18.6717 23.1588 18.6884 23.5156C18.7051 23.8724 19.0451 24.1818 19.402 24.165H24.8545C25.2145 24.1701 25.5457 23.8436 25.5457 23.4837C25.5457 23.1237 25.2145 22.7972 24.8545 22.8023C23.0177 22.8023 21.1701 22.8023 19.3381 22.8023V22.8023Z" fill="#364556"/>
<path fill-rule="evenodd" clip-rule="evenodd" d="M29.6246 3.67208V15.7016C31.1048 17.4313 31.9994 19.6726 31.9994 22.121C31.9994 27.5691 27.5667 32.0002 22.1168 32.0002C19.661 32.0002 17.4146 31.1025 15.6847 29.6155H3.72552C2.92593 29.6155 2.20497 29.4026 1.70216 28.9023C1.2017 28.4043 0.996243 27.6877 0.999308 26.9009V3.70395C0.994232 2.91718 1.20327 2.20092 1.70216 1.70257C2.20105 1.20422 2.91351 0.999948 3.70423 0.999951L26.909 1.00001C27.6953 1.00001 28.413 1.21027 28.9111 1.70263C29.4091 2.195 29.6195 2.89561 29.6246 3.67208ZM0.699308 3.7049C0.694093 2.86904 0.916034 2.06381 1.49014 1.49032C2.0649 0.916194 2.86684 0.699948 3.70423 0.699951L26.909 0.700014C27.7435 0.700011 28.5491 0.92296 29.122 1.48929C29.6951 2.05593 29.9192 2.84484 29.9246 3.67012L29.9246 3.67208L29.9246 15.5917C31.4063 17.3616 32.2994 19.6381 32.2994 22.121C32.2994 27.7348 27.7323 32.3002 22.1168 32.3002C19.6266 32.3002 17.3449 31.404 15.5744 29.9155H3.72552C2.87744 29.9155 2.06819 29.6897 1.49056 29.115C0.913801 28.5411 0.696164 27.7345 0.699308 26.9003V3.7049ZM3.70423 2.3626C3.35152 2.36574 2.99835 2.3997 2.67125 2.67135C2.47218 2.88004 2.34774 3.30781 2.36242 3.70395V14.6264H14.6197V2.3626H3.70423ZM14.3197 2.6626H3.70557C3.37636 2.66561 3.11724 2.69844 2.87775 2.89004C2.82525 2.95045 2.76768 3.05642 2.72429 3.20268C2.67918 3.35472 2.65611 3.52814 2.66221 3.69284L2.66262 3.70395L2.66242 14.3264H14.3197V2.6626ZM22.0125 4.77728L22.0309 4.77724C22.2728 4.77665 22.5404 4.83195 22.7531 4.99601C22.9785 5.16976 23.1046 5.4367 23.0984 5.77215V7.51317H24.8411C25.3675 7.50709 25.8343 7.96783 25.8343 8.49449C25.8343 9.02117 25.3675 9.48185 24.8411 9.47581H23.0984V11.2178C23.1017 11.5008 22.9699 11.7666 22.7655 11.9518C24.6921 12.0749 26.4728 12.7417 27.9615 13.7921V3.6835C27.958 3.18384 27.844 2.9858 27.7417 2.88467C27.6386 2.78274 27.4212 2.6626 26.909 2.6626H16.2828V13.7823C17.7696 12.7361 19.5458 12.0741 21.4681 11.9517C21.2638 11.7665 21.1321 11.5009 21.1353 11.218V9.47581H19.398C18.8792 9.49897 18.4006 9.06741 18.3722 8.54814L18.6717 8.53174C18.6912 8.8885 19.0337 9.19536 19.3906 9.17582H21.4353V11.2198C21.4302 11.5797 21.7567 11.9108 22.1168 11.9108C22.4769 11.9108 22.8035 11.5797 22.7984 11.2198V9.17582H24.843C25.2031 9.18088 25.5343 8.85448 25.5343 8.49449C25.5343 8.13451 25.2031 7.80808 24.843 7.81317H22.7984V5.7692C22.809 5.2645 22.4342 5.07626 22.0316 5.07723C21.7005 5.11888 21.4275 5.43564 21.4353 5.7692V7.81317H19.3161C18.9592 7.83266 18.6522 8.17498 18.6717 8.53174L18.3722 8.54814C18.3436 8.02581 18.7775 7.54214 19.2997 7.51361L19.3079 7.51317H21.1353V5.77233C21.126 5.28634 21.5117 4.84026 21.9942 4.77958L22.0125 4.77728ZM16.2828 14.1519C16.1814 14.2266 16.0814 14.3032 15.9828 14.3815V2.3626H26.909C27.4645 2.3626 27.7723 2.49302 27.9526 2.67133C28.133 2.84964 28.2579 3.13908 28.2615 3.68267V14.3922C28.163 14.3136 28.0629 14.2369 27.9615 14.162C26.3235 12.9534 24.3034 12.2311 22.1168 12.2311C19.9343 12.2311 17.9191 12.9478 16.2828 14.1519ZM5.6768 7.51319H11.2101C11.7364 7.50713 12.2032 7.96787 12.2032 8.49451C12.2032 9.02119 11.7364 9.48187 11.2101 9.47584H5.76692C5.24814 9.49899 4.7695 9.06744 4.74109 8.54815C4.71251 8.02582 5.14642 7.54216 5.66863 7.51364L5.6768 7.51319ZM5.75954 9.17584H11.212C11.572 9.1809 11.9032 8.8545 11.9032 8.49451C11.9032 8.13453 11.572 7.8081 11.212 7.81319H5.68499C5.32811 7.83268 5.02112 8.175 5.04064 8.53177C5.06016 8.88853 5.40265 9.19538 5.75954 9.17584ZM2.36242 26.9008C2.35883 27.4617 2.49199 27.7551 2.67125 27.9335C2.8505 28.1119 3.15136 28.2529 3.72552 28.2529H14.3855C14.3072 28.1544 14.2308 28.0544 14.1563 27.9529C12.9552 26.3174 12.2449 24.3016 12.2449 22.121C12.2449 19.9402 12.9553 17.926 14.1565 16.2891C14.2309 16.1876 14.3073 16.0876 14.3855 15.9891H2.36242V26.9008ZM2.66242 16.2891V26.9028C2.65913 27.4154 2.78009 27.6186 2.88284 27.7208C2.98779 27.8253 3.20086 27.9529 3.72552 27.9529H13.7869C12.6269 26.3005 11.9449 24.2896 11.9449 22.121C11.9449 19.952 12.6271 17.9426 13.7873 16.2891H2.66242ZM7.03745 19.7044L8.48572 21.1415L9.9234 19.7044C10.2044 19.5293 10.5439 19.4244 10.8899 19.6739C11.1361 20.0066 11.1922 20.3147 10.8925 20.673L9.44425 22.1208L10.8925 23.558C11.1462 23.8116 11.1462 24.2731 10.8925 24.5267C10.6388 24.7803 10.1771 24.7803 9.9234 24.5267L8.48593 23.0791L7.03745 24.5267C6.78374 24.7803 6.32207 24.7803 6.06837 24.5267C5.81466 24.2731 5.81466 23.8116 6.06837 23.558L7.50602 22.1208L6.06837 20.673C5.90512 20.3857 5.76521 19.9888 6.08272 19.6796C6.38084 19.4601 6.6777 19.4296 7.03745 19.7044ZM7.08246 22.12L5.85627 23.3458C5.48535 23.7166 5.48537 24.3681 5.85626 24.7389C6.22711 25.1096 6.87869 25.1096 7.24954 24.7389L8.48497 23.5039L9.71052 24.7381L9.71131 24.7389C10.0822 25.1096 10.7337 25.1096 11.1046 24.7389C11.4755 24.3681 11.4755 23.7166 11.1046 23.3458L9.86931 22.12L11.114 20.8757L11.1226 20.8655C11.3069 20.6452 11.4072 20.4076 11.3956 20.1504C11.3845 19.9022 11.2709 19.6844 11.131 19.4954L11.1032 19.4579L11.0653 19.4306C10.8322 19.2624 10.5873 19.207 10.3514 19.2314C10.1251 19.2548 9.92528 19.3496 9.76477 19.4496L9.62984 19.5336L9.62822 19.5753L8.48497 20.7181L7.23498 19.4777L7.21954 19.466C7.00406 19.3014 6.777 19.2055 6.53561 19.2066C6.29527 19.2077 6.0858 19.3048 5.90484 19.438L5.88822 19.4503L5.87343 19.4647C5.64179 19.6902 5.57373 19.9596 5.59648 20.2115C5.61786 20.4482 5.7179 20.6635 5.80753 20.8212L5.82729 20.856L7.08246 22.12ZM19.3161 20.077V19.777H24.841C25.3674 19.7709 25.8343 20.2316 25.8343 20.7583C25.8343 21.2849 25.3675 21.7458 24.8411 21.7396H19.398C18.8792 21.7628 18.4006 21.3312 18.3722 20.812L18.6717 20.7956C18.6912 21.1523 19.0337 21.4592 19.3906 21.4396H24.843C25.2031 21.4448 25.5343 21.1183 25.5343 20.7583C25.5343 20.3983 25.2031 20.0719 24.843 20.077H19.3161ZM19.3161 20.077C18.9592 20.0966 18.6522 20.4388 18.6717 20.7956L18.3722 20.812C18.3436 20.2895 18.7776 19.8062 19.2996 19.7775L19.3161 20.077ZM30.3469 22.121C30.3469 17.5756 26.665 13.9044 22.1168 13.9044C17.5692 13.9044 13.8974 17.5751 13.8974 22.121C13.8974 26.6663 17.5687 30.3269 22.1168 30.3269C26.6655 30.3269 30.3469 26.6658 30.3469 22.121ZM18.3879 23.5296C18.3634 23.0073 18.801 22.5268 19.3235 22.5026L19.3374 22.8023C18.9804 22.8188 18.6709 23.1588 18.6876 23.5155C18.7044 23.8724 19.0443 24.1817 19.4012 24.1649H24.8537C25.2138 24.1701 25.5449 23.8436 25.5449 23.4836C25.5449 23.1236 25.2138 22.7972 24.8537 22.8023M24.8518 22.5023C25.3782 22.4962 25.8449 22.957 25.8449 23.4836C25.8449 24.0102 25.3782 24.4711 24.8517 24.4649H19.4076C18.8883 24.4848 18.4123 24.0494 18.3879 23.5296M20.1756 22.5023H24.8518ZM30.6469 22.121C30.6469 17.4093 26.8301 13.6044 22.1168 13.6044C17.4036 13.6044 13.5974 17.4093 13.5974 22.121C13.5974 26.8326 17.4036 30.6269 22.1168 30.6269C26.8301 30.6269 30.6469 26.8326 30.6469 22.121Z" fill="#364556"/>
</svg>
