<svg width="32" height="32" viewBox="0 0 32 32" fill="none" xmlns="http://www.w3.org/2000/svg">
<path d="M3.00579 0.300049C2.21507 0.300045 1.50262 0.504318 1.00372 1.00267C0.50483 1.50102 0.295795 2.21727 0.300871 3.00405V26.1903V26.201C0.297806 26.9878 0.503265 27.7044 1.00372 28.2024C1.50653 28.7027 2.2275 28.9156 3.02709 28.9156H14.9862C16.7162 30.4026 18.9626 31.3003 21.4184 31.3003C26.8683 31.3003 31.3009 26.8692 31.3009 21.4211C31.3009 18.9727 30.4064 16.7314 28.9261 15.0017C28.9261 10.9921 28.9261 6.98111 28.9261 2.97218C28.9211 2.1957 28.7107 1.4951 28.2126 1.00273C27.7146 0.510364 26.9969 0.300108 26.2106 0.300112L3.00579 0.300049ZM3.00579 1.6627H13.9213V13.9265H1.66398V3.00405C1.64931 2.60791 1.77374 2.18014 1.97281 1.97144C2.29991 1.6998 2.65308 1.66583 3.00579 1.6627V1.6627ZM15.2844 1.6627H26.2106C26.7661 1.66269 27.0738 1.79311 27.2542 1.97142C27.4346 2.14973 27.5595 2.43918 27.563 2.98277V13.6923C25.8747 12.3458 23.7404 11.5312 21.4184 11.5312C19.1005 11.5312 16.9713 12.3395 15.2844 13.6816V1.6627ZM21.3332 4.37733C21.002 4.41898 20.7291 4.73573 20.7368 5.06929V7.11327C20.0341 7.11325 19.3143 7.11327 18.6176 7.11327C18.2607 7.13276 17.9538 7.47508 17.9733 7.83184C17.9928 8.1886 18.3353 8.49546 18.6922 8.47591H20.7368V10.5199C20.7318 10.8798 21.0583 11.2109 21.4184 11.2109C21.7785 11.2109 22.105 10.8798 22.0999 10.5199V8.47591H24.1446C24.5047 8.48098 24.8359 8.15458 24.8359 7.79459C24.8359 7.43461 24.5047 7.10818 24.1446 7.11327H22.0999V5.06929C22.1106 4.5646 21.7357 4.37636 21.3332 4.37733ZM4.98655 7.11329C4.62967 7.13278 4.32269 7.4751 4.3422 7.83186C4.36172 8.18862 4.70422 8.49548 5.0611 8.47593H10.5135C10.8736 8.481 11.2048 8.1546 11.2048 7.79461C11.2048 7.43463 10.8736 7.1082 10.5135 7.11329C8.67377 7.11329 6.82065 7.11329 4.98655 7.11329ZM21.4184 12.9045C26.1316 12.9045 29.9485 16.7094 29.9485 21.4211C29.9485 26.1327 26.1316 29.927 21.4184 29.927C16.7052 29.927 12.899 26.1327 12.899 21.4211C12.899 16.7094 16.7052 12.9045 21.4184 12.9045ZM1.66398 15.2892H13.687C12.3476 16.9771 11.5465 19.1052 11.5465 21.4211C11.5465 23.737 12.3476 25.8671 13.687 27.553H3.02709C2.45292 27.553 2.15206 27.412 1.97281 27.2336C1.79356 27.0552 1.6604 26.7618 1.66398 26.2009V15.2892ZM9.22497 19.0045L7.78731 20.4417L6.33901 19.0045C5.97926 18.7297 5.68241 18.7602 5.38428 18.9797C5.06677 19.2889 5.20669 19.6858 5.36993 19.9731L6.80758 21.4209L5.36993 22.8581C5.11622 23.1117 5.11622 23.5732 5.36993 23.8268C5.62363 24.0804 6.08531 24.0804 6.33901 23.8268L7.78731 22.379L9.22497 23.8268C9.47867 24.0804 9.94035 24.0804 10.1941 23.8268C10.4478 23.5732 10.4478 23.1117 10.1941 22.8581L8.74575 21.4209L10.1941 19.9731C10.4938 19.6148 10.4377 19.3067 10.1914 18.974C9.84548 18.7245 9.50599 18.8292 9.22497 19.0043L9.22497 19.0045ZM18.6176 19.3771C18.2607 19.3967 17.9538 19.7389 17.9733 20.0957C17.9928 20.4524 18.3353 20.7593 18.6922 20.7397H24.1446C24.5047 20.7449 24.8359 20.4184 24.8359 20.0584C24.8359 19.6984 24.5047 19.372 24.1446 19.3771C22.3048 19.3771 20.4517 19.3771 18.6176 19.3771V19.3771ZM18.6389 22.1024C18.282 22.1189 17.9724 22.4589 17.9892 22.8156C18.0059 23.1725 18.3459 23.4818 18.7028 23.465H24.1552C24.5153 23.4702 24.8465 23.1437 24.8465 22.7837C24.8465 22.4237 24.5153 22.0973 24.1552 22.1024C22.3185 22.1024 20.4708 22.1024 18.6389 22.1024V22.1024Z" fill="#748A9D"/>
<path fill-rule="evenodd" clip-rule="evenodd" d="M28.9254 2.97213V15.0017C30.4056 16.7314 31.3001 18.9727 31.3001 21.4211C31.3001 26.8691 26.8675 31.3002 21.4176 31.3002C18.9618 31.3002 16.7154 30.4025 14.9854 28.9156H3.02631C2.22672 28.9156 1.50575 28.7027 1.00294 28.2024C0.502483 27.7044 0.297024 26.9878 0.30009 26.2009V3.004C0.295013 2.21722 0.504049 1.50097 1.00294 1.00262C1.50184 0.504269 2.21429 0.299997 3.00501 0.3L26.2098 0.300063C26.9961 0.30006 27.7138 0.510315 28.2118 1.00268C28.7099 1.49505 28.9203 2.19566 28.9254 2.97213ZM8.96063e-05 3.00495C-0.00512541 2.16909 0.216815 1.36386 0.790926 0.790372C1.36568 0.216243 2.16762 -3.63584e-06 3.00501 0L26.2098 6.30618e-05C27.0442 5.94259e-05 27.8499 0.223009 28.4228 0.789341C28.9959 1.35598 29.22 2.14489 29.2253 2.97017L29.2254 2.97213L29.2254 14.8918C30.7071 16.6617 31.6001 18.9382 31.6001 21.4211C31.6001 27.0349 27.0331 31.6002 21.4176 31.6002C18.9274 31.6002 16.6457 30.7041 14.8752 29.2156H3.02631C2.17822 29.2156 1.36897 28.9898 0.791341 28.415C0.214583 27.8411 -0.00305513 27.0346 8.96063e-05 26.2004V3.00495ZM3.00501 1.66265C2.6523 1.66579 2.29913 1.69975 1.97203 1.9714C1.77296 2.18009 1.64852 2.60786 1.6632 3.004V13.9265H13.9205V1.66265H3.00501ZM13.6205 1.96265H3.00635C2.67714 1.96566 2.41802 1.99849 2.17854 2.19009C2.12604 2.2505 2.06846 2.35647 2.02507 2.50273C1.97996 2.65477 1.95689 2.82819 1.96299 2.99289L1.9634 3.004L1.9632 13.6265H13.6205V1.96265ZM21.3133 4.07733L21.3317 4.07728C21.5735 4.0767 21.8411 4.13199 22.0539 4.29606C22.2793 4.46981 22.4054 4.73675 22.3992 5.0722V6.81322H24.1419C24.6682 6.80714 25.1351 7.26788 25.1351 7.79454C25.1351 8.32122 24.6682 8.7819 24.1419 8.77586H22.3992V10.5178C22.4025 10.8009 22.2707 11.0666 22.0663 11.2518C23.9929 11.3749 25.7735 12.0418 27.2622 13.0921V2.98355C27.2588 2.48388 27.1448 2.28584 27.0425 2.18472C26.9394 2.08279 26.722 1.96264 26.2098 1.96265H15.5836V13.0824C17.0704 12.0361 18.8466 11.3741 20.7689 11.2518C20.5646 11.0666 20.4328 10.801 20.4361 10.518V8.77586H18.6988C18.18 8.79902 17.7014 8.36746 17.6729 7.84819L17.9725 7.83179C17.992 8.18855 18.3345 8.49541 18.6914 8.47586H20.7361V10.5198C20.731 10.8798 21.0575 11.2109 21.4176 11.2109C21.7777 11.2109 22.1043 10.8798 22.0992 10.5198V8.47586H24.1438C24.5039 8.48093 24.8351 8.15453 24.8351 7.79454C24.8351 7.43456 24.5039 7.10813 24.1438 7.11322H22.0992V5.06925C22.1098 4.56455 21.735 4.37631 21.3324 4.37728C21.0013 4.41893 20.7283 4.73568 20.7361 5.06925V7.11322H18.6168C18.26 7.13271 17.953 7.47503 17.9725 7.83179L17.6729 7.84819C17.6444 7.32586 18.0783 6.84219 18.6005 6.81366L18.6087 6.81322H20.4361V5.07238C20.4268 4.58639 20.8125 4.14031 21.295 4.07963L21.3133 4.07733ZM15.5836 13.452C15.4822 13.5267 15.3821 13.6032 15.2836 13.6816V1.66265H26.2098C26.7653 1.66264 27.0731 1.79307 27.2534 1.97137C27.4338 2.14968 27.5587 2.43913 27.5622 2.98272V13.6922C27.4637 13.6137 27.3637 13.5369 27.2622 13.4621C25.6243 12.2535 23.6042 11.5312 21.4176 11.5312C19.2351 11.5312 17.2198 12.2478 15.5836 13.452ZM4.97758 6.81324H10.5108C11.0372 6.80718 11.504 7.26792 11.504 7.79456C11.504 8.32124 11.0372 8.78192 10.5108 8.77588H5.06771C4.54892 8.79904 4.07028 8.36749 4.04187 7.8482C4.0133 7.32587 4.4472 6.84221 4.96941 6.81368L4.97758 6.81324ZM5.06032 8.47589H10.5127C10.8728 8.48095 11.204 8.15455 11.204 7.79456C11.204 7.43458 10.8728 7.10815 10.5127 7.11324H4.98577C4.62889 7.13273 4.32191 7.47505 4.34142 7.83181C4.36094 8.18857 4.70344 8.49543 5.06032 8.47589ZM1.6632 26.2009C1.65961 26.7617 1.79278 27.0552 1.97203 27.2336C2.15128 27.4119 2.45214 27.5529 3.02631 27.5529H13.6862C13.608 27.4544 13.5316 27.3544 13.457 27.2529C12.256 25.6175 11.5457 23.6016 11.5457 21.421C11.5457 19.2403 12.2561 17.2261 13.4573 15.5891C13.5317 15.4876 13.6081 15.3876 13.6862 15.2891H1.6632V26.2009ZM1.9632 15.5891V26.2028C1.95992 26.7155 2.08088 26.9186 2.18363 27.0209C2.28857 27.1253 2.50164 27.2529 3.02631 27.2529H13.0877C11.9277 25.6005 11.2457 23.5897 11.2457 21.421C11.2457 19.2521 11.9279 17.2427 13.088 15.5891H1.9632ZM6.33823 19.0044L7.7865 20.4416L9.22418 19.0044C9.5052 18.8293 9.8447 18.7245 10.1907 18.9739C10.4369 19.3066 10.493 19.6148 10.1933 19.9731L8.74503 21.4208L10.1933 22.858C10.447 23.1116 10.447 23.5731 10.1933 23.8268C9.93956 24.0804 9.47789 24.0804 9.22418 23.8268L7.78671 22.3791L6.33823 23.8268C6.08453 24.0804 5.62285 24.0804 5.36915 23.8268C5.11544 23.5731 5.11544 23.1116 5.36915 22.858L6.8068 21.4209L5.36915 19.9731C5.20591 19.6858 5.06599 19.2888 5.3835 18.9796C5.68162 18.7601 5.97848 18.7297 6.33823 19.0044ZM6.38324 21.4201L5.15705 22.6459C4.78613 23.0166 4.78615 23.6681 5.15704 24.0389C5.52789 24.4097 6.17947 24.4097 6.55033 24.0389L7.78575 22.8039L9.01131 24.0382L9.01209 24.0389C9.38295 24.4097 10.0345 24.4097 10.4054 24.0389C10.7762 23.6681 10.7763 23.0166 10.4054 22.6458L9.17009 21.4201L10.4148 20.1758L10.4234 20.1656C10.6077 19.9453 10.708 19.7077 10.6964 19.4504C10.6852 19.2023 10.5717 18.9845 10.4318 18.7955L10.404 18.7579L10.3661 18.7306C10.133 18.5625 9.88807 18.5071 9.65221 18.5315C9.42585 18.5549 9.22606 18.6496 9.06555 18.7496L8.93063 18.8337L8.929 18.8753L7.78575 20.0182L6.53576 18.7778L6.52032 18.766C6.30484 18.6014 6.07778 18.5056 5.83639 18.5067C5.59605 18.5078 5.38658 18.6048 5.20562 18.7381L5.189 18.7503L5.17421 18.7647C4.94257 18.9903 4.87451 19.2597 4.89726 19.5115C4.91864 19.7483 5.01868 19.9635 5.10831 20.1213L5.12808 20.156L6.38324 21.4201ZM18.6168 19.3771V19.0771H24.1418C24.6682 19.0709 25.1351 19.5317 25.1351 20.0584C25.1351 20.5849 24.6683 21.0459 24.1419 21.0397H18.6988C18.18 21.0629 17.7014 20.6313 17.6729 20.112L17.9725 20.0956C17.992 20.4524 18.3345 20.7593 18.6914 20.7397H24.1438C24.5039 20.7449 24.8351 20.4183 24.8351 20.0584C24.8351 19.6984 24.5039 19.372 24.1438 19.3771H18.6168ZM18.6168 19.3771C18.26 19.3967 17.953 19.7389 17.9725 20.0956L17.6729 20.112C17.6444 19.5896 18.0784 19.1062 18.6004 19.0775L18.6168 19.3771ZM29.6477 21.421C29.6477 16.8757 25.9657 13.2045 21.4176 13.2045C16.87 13.2045 13.1982 16.8752 13.1982 21.421C13.1982 25.9664 16.8695 29.6269 21.4176 29.6269C25.9662 29.6269 29.6477 25.9659 29.6477 21.421ZM17.6887 22.8296C17.6642 22.3073 18.1017 21.8269 18.6243 21.8027L18.6381 22.1023C18.2812 22.1189 17.9717 22.4588 17.9884 22.8156C18.0051 23.1724 18.3451 23.4818 18.702 23.465H24.1545C24.5145 23.4701 24.8457 23.1436 24.8457 22.7837C24.8457 22.4237 24.5145 22.0972 24.1545 22.1023M24.1526 21.8023C24.6789 21.7963 25.1457 22.257 25.1457 22.7837C25.1457 23.3103 24.6789 23.7711 24.1525 23.765H18.7084C18.1891 23.7849 17.7131 23.3495 17.6887 22.8296M19.4764 21.8023H24.1526ZM29.9477 21.421C29.9477 16.7094 26.1308 12.9045 21.4176 12.9045C16.7044 12.9045 12.8982 16.7094 12.8982 21.421C12.8982 26.1326 16.7044 29.9269 21.4176 29.9269C26.1308 29.9269 29.9477 26.1326 29.9477 21.421Z" fill="#748A9D"/>
</svg>
