<svg width="33" height="33" viewBox="0 0 33 33" fill="none" xmlns="http://www.w3.org/2000/svg">
<path d="M29.8753 3.6705L29.8754 3.67213L29.8754 3.69562V3.71911V3.7426V3.76609V3.78958V3.81307V3.83656V3.86005V3.88354V3.90703V3.93052V3.95401V3.9775V4.00099V4.02448V4.04797V4.07146V4.09495V4.11844V4.14193V4.16542V4.18891V4.21241V4.2359V4.25939V4.28288V4.30637V4.32986V4.35335V4.37684V4.40033V4.42383V4.44732V4.47081V4.4943V4.51779V4.54128V4.56477V4.58827V4.61176V4.63525V4.65874V4.68223V4.70572V4.72922V4.75271V4.7762V4.79969V4.82318V4.84667V4.87017V4.89366V4.91715V4.94064V4.96413V4.98763V5.01112V5.03461V5.0581V5.0816V5.10509V5.12858V5.15207V5.17557V5.19906V5.22255V5.24604V5.26954V5.29303V5.31652V5.34001V5.36351V5.387V5.41049V5.43399V5.45748V5.48097V5.50447V5.52796V5.55145V5.57494V5.59844V5.62193V5.64542V5.66892V5.69241V5.7159V5.7394V5.76289V5.78638V5.80988V5.83337V5.85686V5.88036V5.90385V5.92734V5.95084V5.97433V5.99783V6.02132V6.04481V6.06831V6.0918V6.11529V6.13879V6.16228V6.18578V6.20927V6.23276V6.25626V6.27975V6.30325V6.32674V6.35023V6.37373V6.39722V6.42072V6.44421V6.46771V6.4912V6.5147V6.53819V6.56168V6.58518V6.60867V6.63217V6.65566V6.67916V6.70265V6.72615V6.74964V6.77313V6.79663V6.82012V6.84362V6.86711V6.89061V6.9141V6.9376V6.96109V6.98459V7.00808V7.03158V7.05507V7.07857V7.10206V7.12556V7.14905V7.17255V7.19604V7.21954V7.24303V7.26653V7.29002V7.31352V7.33701V7.36051V7.38401V7.4075V7.431V7.45449V7.47799V7.50148V7.52498V7.54847V7.57197V7.59546V7.61896V7.64246V7.66595V7.68945V7.71294V7.73644V7.75993V7.78343V7.80692V7.83042V7.85392V7.87741V7.90091V7.9244V7.9479V7.9714V7.99489V8.01839V8.04188V8.06538V8.08887V8.11237V8.13587V8.15936V8.18286V8.20635V8.22985V8.25335V8.27684V8.30034V8.32383V8.34733V8.37083V8.39432V8.41782V8.44132V8.46481V8.48831V8.5118V8.5353V8.5588V8.58229V8.60579V8.62929V8.65278V8.67628V8.69978V8.72327V8.74677V8.77026V8.79376V8.81726V8.84075V8.86425V8.88775V8.91124V8.93474V8.95824V8.98173V9.00523V9.02873V9.05222V9.07572V9.09922V9.12271V9.14621V9.16971V9.1932V9.2167V9.2402V9.26369V9.28719V9.31069V9.33418V9.35768V9.38118V9.40467V9.42817V9.45167V9.47516V9.49866V9.52216V9.54565V9.56915V9.59265V9.61614V9.63964V9.66314V9.68663V9.71013V9.73363V9.75712V9.78062V9.80412V9.82762V9.85111V9.87461V9.89811V9.9216V9.9451V9.9686V9.99209V10.0156V10.0391V10.0626V10.0861V10.1096V10.1331V10.1566V10.1801V10.2036V10.2271V10.2506V10.2741V10.2976V10.3211V10.3445V10.368V10.3915V10.415V10.4385V10.462V10.4855V10.509V10.5325V10.556V10.5795V10.603V10.6265V10.65V10.6735V10.697V10.7205V10.744V10.7675V10.791V10.8145V10.838V10.8615V10.885V10.9085V10.932V10.9555V10.979V11.0025V11.026V11.0495V11.073V11.0965V11.12V11.1434V11.1669V11.1904V11.2139V11.2374V11.2609V11.2844V11.3079V11.3314V11.3549V11.3784V11.4019V11.4254V11.4489V11.4724V11.4959V11.5194V11.5429V11.5664V11.5899V11.6134V11.6369V11.6604V11.6839V11.7074V11.7309V11.7544V11.7779V11.8014V11.8249V11.8484V11.8719V11.8954V11.9189V11.9423V11.9658V11.9893V12.0128V12.0363V12.0598V12.0833V12.1068V12.1303V12.1538V12.1773V12.2008V12.2243V12.2478V12.2713V12.2948V12.3183V12.3418V12.3653V12.3888V12.4123V12.4358V12.4593V12.4828V12.5063V12.5298V12.5533V12.5768V12.6003V12.6238V12.6473V12.6708V12.6942V12.7177V12.7412V12.7647V12.7882V12.8117V12.8352V12.8587V12.8822V12.9057V12.9292V12.9527V12.9762V12.9997V13.0232V13.0467V13.0702V13.0937V13.1172V13.1407V13.1642V13.1877V13.2112V13.2347V13.2582V13.2817V13.3052V13.3287V13.3522V13.3756V13.3991V13.4226V13.4461V13.4696V13.4931V13.5166V13.5401V13.5636V13.5871V13.6106V13.6341V13.6576V13.6811V13.7046V13.7281V13.7516V13.7751V13.7986V13.8221V13.8456V13.8691V13.8926V13.9161V13.9396V13.9631V13.9865V14.01V14.0335V14.057V14.0805V14.104V14.1275V14.151V14.1745V14.198V14.2215V14.245V14.2685V14.292V14.3155V14.339V14.3625V14.386V14.4095V14.433V14.4565V14.48V14.5035V14.5269V14.5504V14.5739V14.5974V14.6209V14.6444V14.6679V14.6914V14.7149V14.7384V14.7619V14.7854V14.8089V14.8324V14.8559V14.8794V14.9029V14.9264V14.9499V14.9734V14.9969V15.0203V15.0438V15.0673V15.0908V15.1143V15.1378V15.1613V15.1848V15.2083V15.2318V15.2553V15.2788V15.3023V15.3258V15.3493V15.3728V15.3963V15.4198V15.4433V15.4667V15.4902V15.5137V15.5372V15.5607V15.5842V15.6077V15.61C31.3569 17.3732 32.2501 19.6439 32.2501 22.1211C32.2501 27.7073 27.7055 32.2502 22.1176 32.2502C19.6331 32.2502 17.3572 31.3538 15.5934 29.8656H3.72631C2.8863 29.8656 2.09177 29.6419 1.52661 29.0796C0.962564 28.5183 0.746958 27.7268 0.75009 26.9005V26.8903V3.70479C0.744897 2.87712 0.964685 2.08671 1.52626 1.52575L29.8753 3.6705ZM29.8753 3.6705C29.87 2.85335 29.6482 2.07916 29.0876 1.5249C28.5272 0.970893 27.7362 0.750059 26.9098 0.750063L3.70501 0.75C2.8754 0.749996 2.08837 0.964248 1.52626 1.52575L29.8753 3.6705ZM19.3381 22.5521V22.5523V22.5521ZM19.3381 22.5521L19.3266 22.5526M19.3381 22.5521L19.3266 22.5526M19.3266 22.5526C18.8317 22.5755 18.4155 23.0326 18.4387 23.5273M19.3266 22.5526L18.4387 23.5273M18.4387 23.5273C18.4618 24.02 18.9151 24.4344 19.4074 24.415M18.4387 23.5273L19.4074 24.415M19.4074 24.415H24.8527C25.3515 24.421 25.7957 23.9825 25.7957 23.4837C25.7957 22.9848 25.3515 22.5464 24.8528 22.5523H24.8437H24.8329H24.8222H24.8114H24.8006H24.7899H24.7791H24.7684H24.7576H24.7468H24.7361H24.7253H24.7145H24.7038H24.693H24.6822H24.6715H24.6607H24.6499H24.6392H24.6284H24.6176H24.6069H24.5961H24.5853H24.5746H24.5638H24.553H24.5423H24.5315H24.5207H24.51H24.4992H24.4884H24.4776H24.4669H24.4561H24.4453H24.4346H24.4238H24.413H24.4023H24.3915H24.3807H24.3699H24.3592H24.3484H24.3376H24.3268H24.3161H24.3053H24.2945H24.2838H24.273H24.2622H24.2514H24.2407H24.2299H24.2191H24.2083H24.1976H24.1868H24.176H24.1652H24.1545H24.1437H24.1329H24.1221H24.1114H24.1006H24.0898H24.079H24.0682H24.0575H24.0467H24.0359H24.0251H24.0144H24.0036H23.9928H23.982H23.9712H23.9605H23.9497H23.9389H23.9281H23.9173H23.9066H23.8958H23.885H23.8742H23.8634H23.8527H23.8419H23.8311H23.8203H23.8095H23.7988H23.788H23.7772H23.7664H23.7556H23.7449H23.7341H23.7233H23.7125H23.7017H23.691H23.6802H23.6694H23.6586H23.6478H23.637H23.6263H23.6155H23.6047H23.5939H23.5831H23.5723H23.5616H23.5508H23.54H23.5292H23.5184H23.5076H23.4969H23.4861H23.4753H23.4645H23.4537H23.4429H23.4321H23.4214H23.4106H23.3998H23.389H23.3782H23.3674H23.3567H23.3459H23.3351H23.3243H23.3135H23.3027H23.2919H23.2812H23.2704H23.2596H23.2488H23.238H23.2272H23.2164H23.2056H23.1949H23.1841H23.1733H23.1625H23.1517H23.1409H23.1301H23.1194H23.1086H23.0978H23.087H23.0762H23.0654H23.0546H23.0438H23.0331H23.0223H23.0115H23.0007H22.9899H22.9791H22.9683H22.9575H22.9468H22.936H22.9252H22.9144H22.9036H22.8928H22.882H22.8712H22.8605H22.8497H22.8389H22.8281H22.8173H22.8065H22.7957H22.7849H22.7742H22.7634H22.7526H22.7418H22.731H22.7202H22.7094H22.6986H22.6878H22.6771H22.6663H22.6555H22.6447H22.6339H22.6231H22.6123H22.6015H22.5907H22.58H22.5692H22.5584H22.5476H22.5368H22.526H22.5152H22.5044H22.4937H22.4829H22.4721H22.4613H22.4505H22.4397H22.4289H22.4181H22.4073H22.3966H22.3858H22.375H22.3642H22.3534H22.3426H22.3318H22.321H22.3103H22.2995H22.2887H22.2779H22.2671H22.2563H22.2455H22.2347H22.224H22.2132H22.2024H22.1916H22.1808H22.17H22.1592H22.1484H22.1377H22.1269H22.1161H22.1053H22.0945H22.0837H22.0729H22.0621H22.0514H22.0406H22.0298H22.019H22.0082H21.9974H21.9866H21.9758H21.9651H21.9543H21.9435H21.9327H21.9219H21.9111H21.9003H21.8896H21.8788H21.868H21.8572H21.8464H21.8356H21.8248H21.8141H21.8033H21.7925H21.7817H21.7709H21.7601H21.7493H21.7386H21.7278H21.717H21.7062H21.6954H21.6846H21.6739H21.6631H21.6523H21.6415H21.6307H21.6199H21.6092H21.5984H21.5876H21.5768H21.566H21.5552H21.5445H21.5337H21.5229H21.5121H21.5013H21.4905H21.4798H21.469H21.4582H21.4474H21.4366H21.4259H21.4151H21.4043H21.3935H21.3827H21.3719H21.3612H21.3504H21.3396H21.3288H21.318H21.3073H21.2965H21.2857H21.2749H21.2641H21.2534H21.2426H21.2318H21.221H21.2103H21.1995H21.1887H21.1779H21.1671H21.1564H21.1456H21.1348H21.124H21.1133H21.1025H21.0917H21.0809H21.0701H21.0594H21.0486H21.0378H21.027H21.0163H21.0055H20.9947H20.9839H20.9732H20.9624H20.9516H20.9408H20.9301H20.9193H20.9085H20.8977H20.887H20.8762H20.8654H20.8546H20.8439H20.8331H20.8223H20.8116H20.8008H20.79H20.7792H20.7685H20.7577H20.7469H20.7362H20.7254H20.7146H20.7038H20.6931H20.6823H20.6715H20.6608H20.65H20.6392H20.6285H20.6177H20.6069H20.5962H20.5854H20.5746H20.5639H20.5531H20.5423H20.5316H20.5208H20.51H20.4993H20.4885H20.4777H20.467H20.4562H20.4454H20.4347H20.4239H20.4131H20.4024H20.3916H20.3808H20.3701H20.3593H20.3486H20.3378H20.327H20.3163H20.3055H20.2947H20.284H20.2732H20.2625H20.2517H20.2409L19.4074 24.415ZM3.70613 2.61265H14.3705V14.3765H2.6132V3.704H2.61337L2.61303 3.69474C2.60672 3.52448 2.63052 3.34563 2.67713 3.18851C2.72247 3.03571 2.78403 2.92111 2.84385 2.85382C3.098 2.64879 3.3726 2.61568 3.70613 2.61265ZM22.0318 4.82728L22.0165 4.82732L22.0012 4.82924C21.544 4.88674 21.177 5.31128 21.1861 5.77188V7.56322H19.3168V7.56284L19.3032 7.56359C18.8086 7.59061 18.3958 8.05071 18.4229 8.54545C18.4498 9.03767 18.9058 9.44845 19.3976 9.42586H21.1861V11.2182C21.1824 11.53 21.3524 11.8203 21.6023 11.9942C19.6054 12.0955 17.7623 12.7819 16.2336 13.8793V2.61265H26.9098C27.4292 2.61264 27.6617 2.7345 27.7777 2.84916C27.893 2.96315 28.0088 3.17644 28.0122 3.6835V13.8892C26.4817 12.7876 24.6341 12.0961 22.6329 11.9943C22.8828 11.8204 23.0529 11.53 23.0492 11.2182V9.42586H24.8422C25.3409 9.43174 25.7851 8.99344 25.7851 8.49454C25.7851 7.99566 25.3409 7.5573 24.8422 7.56322H23.0492V5.77175C23.0552 5.45015 22.935 5.1988 22.7234 5.03565C22.5223 4.8806 22.2669 4.82671 22.0318 4.82728ZM5.68577 7.56324V7.56286L5.67214 7.56361C5.17748 7.59063 4.76473 8.05073 4.7918 8.54547C4.81872 9.0377 5.27471 9.44847 5.76656 9.42589H11.2112C11.7098 9.43176 12.154 8.99346 12.154 8.49456C12.154 7.99568 11.7098 7.55732 11.2111 7.56324H11.202H11.1912H11.1804H11.1696H11.1588H11.1481H11.1373H11.1265H11.1157H11.1049H11.0942H11.0834H11.0726H11.0618H11.051H11.0402H11.0294H11.0187H11.0079H10.9971H10.9863H10.9755H10.9647H10.9539H10.9432H10.9324H10.9216H10.9108H10.9H10.8892H10.8784H10.8676H10.8569H10.8461H10.8353H10.8245H10.8137H10.8029H10.7921H10.7813H10.7705H10.7597H10.749H10.7382H10.7274H10.7166H10.7058H10.695H10.6842H10.6734H10.6626H10.6518H10.641H10.6302H10.6194H10.6086H10.5978H10.5871H10.5763H10.5655H10.5547H10.5439H10.5331H10.5223H10.5115H10.5007H10.4899H10.4791H10.4683H10.4575H10.4467H10.4359H10.4251H10.4143H10.4035H10.3927H10.3819H10.3711H10.3603H10.3495H10.3387H10.3279H10.3171H10.3063H10.2955H10.2847H10.2739H10.2631H10.2523H10.2415H10.2307H10.2199H10.2091H10.1983H10.1875H10.1767H10.1659H10.1551H10.1443H10.1335H10.1227H10.1119H10.1011H10.0903H10.0795H10.0687H10.0578H10.047H10.0362H10.0254H10.0146H10.0038H9.99302H9.98222H9.97141H9.96061H9.9498H9.93899H9.92819H9.91738H9.90658H9.89577H9.88496H9.87416H9.86335H9.85254H9.84174H9.83093H9.82012H9.80931H9.79851H9.7877H9.77689H9.76608H9.75528H9.74447H9.73366H9.72285H9.71204H9.70123H9.69043H9.67962H9.66881H9.658H9.64719H9.63638H9.62557H9.61476H9.60395H9.59315H9.58234H9.57153H9.56072H9.54991H9.5391H9.52829H9.51748H9.50667H9.49586H9.48505H9.47424H9.46343H9.45262H9.4418H9.43099H9.42018H9.40937H9.39856H9.38775H9.37694H9.36613H9.35532H9.34451H9.3337H9.32289H9.31207H9.30126H9.29045H9.27964H9.26883H9.25802H9.24721H9.23639H9.22558H9.21477H9.20396H9.19315H9.18234H9.17152H9.16071H9.1499H9.13909H9.12828H9.11747H9.10665H9.09584H9.08503H9.07422H9.06341H9.05259H9.04178H9.03097H9.02016H9.00934H8.99853H8.98772H8.97691H8.9661H8.95528H8.94447H8.93366H8.92285H8.91203H8.90122H8.89041H8.8796H8.86879H8.85797H8.84716H8.83635H8.82554H8.81473H8.80391H8.7931H8.78229H8.77148H8.76067H8.74985H8.73904H8.72823H8.71742H8.70661H8.69579H8.68498H8.67417H8.66336H8.65255H8.64174H8.63092H8.62011H8.6093H8.59849H8.58768H8.57687H8.56606H8.55524H8.54443H8.53362H8.52281H8.512H8.50119H8.49038H8.47957H8.46876H8.45795H8.44713H8.43632H8.42551H8.4147H8.40389H8.39308H8.38227H8.37146H8.36065H8.34984H8.33903H8.32822H8.31741H8.3066H8.29579H8.28498H8.27417H8.26336H8.25255H8.24174H8.23094H8.22013H8.20932H8.19851H8.1877H8.17689H8.16608H8.15527H8.14447H8.13366H8.12285H8.11204H8.10123H8.09043H8.07962H8.06881H8.058H8.0472H8.03639H8.02558H8.01477H8.00397H7.99316H7.98235H7.97155H7.96074H7.94993H7.93913H7.92832H7.91752H7.90671H7.89591H7.8851H7.87429H7.86349H7.85268H7.84188H7.83108H7.82027H7.80947H7.79866H7.78786H7.77705H7.76625H7.75545H7.74464H7.73384H7.72304H7.71223H7.70143H7.69063H7.67983H7.66902H7.65822H7.64742H7.63662H7.62582H7.61501H7.60421H7.59341H7.58261H7.57181H7.56101H7.55021H7.53941H7.52861H7.51781H7.50701H7.49621H7.48541H7.47461H7.46381H7.45301H7.44221H7.43142H7.42062H7.40982H7.39902H7.38823H7.37743H7.36663H7.35583H7.34504H7.33424H7.32344H7.31265H7.30185H7.29106H7.28026H7.26947H7.25867H7.24788H7.23708H7.22629H7.2155H7.2047H7.19391H7.18311H7.17232H7.16153H7.15074H7.13994H7.12915H7.11836H7.10757H7.09678H7.08599H7.07519H7.0644H7.05361H7.04282H7.03203H7.02124H7.01045H6.99967H6.98888H6.97809H6.9673H6.95651H6.94572H6.93494H6.92415H6.91336H6.90258H6.89179H6.881H6.87022H6.85943H6.84865H6.83786H6.82708H6.81629H6.80551H6.79472H6.78394H6.77316H6.76237H6.75159H6.74081H6.73002H6.71924H6.70846H6.69768H6.6869H6.67612H6.66534H6.65456H6.64378H6.633H6.62222H6.61144H6.60066H6.58988H6.57911H6.56833H6.55755H6.54677H6.536H6.52522H6.51444H6.50367H6.49289H6.48212H6.47134H6.46057H6.4498H6.43902H6.42825H6.41747H6.4067H6.39593H6.38516H6.37439H6.36361H6.35284H6.34207H6.3313H6.32053H6.30976H6.29899H6.28822H6.27746H6.26669H6.25592H6.24515H6.23439H6.22362H6.21285H6.20209H6.19132H6.18056H6.16979H6.15903H6.14826H6.1375H6.12673H6.11597H6.10521H6.09445H6.08368H6.07292H6.06216H6.0514H6.04064H6.02988H6.01912H6.00836H5.9976H5.98684H5.97609H5.96533H5.95457H5.94381H5.93306H5.9223H5.91155H5.90079H5.89004H5.87928H5.86853H5.85777H5.84702H5.83627H5.82552H5.81476H5.80401H5.79326H5.78251H5.77176H5.76101H5.75026H5.73951H5.72876H5.71801H5.70727H5.69652H5.68577ZM2.6132 26.9025V26.9009V16.2391H13.8848C12.6964 17.8994 11.9957 19.9282 11.9957 22.121C11.9957 24.3135 12.6962 26.344 13.8845 28.0029H3.72631C3.19339 28.0029 2.96569 27.8731 2.84836 27.7563C2.73286 27.6414 2.60987 27.4232 2.6132 26.9025ZM7.21433 19.527L7.20284 19.5156L7.18998 19.5057C6.98042 19.3457 6.76385 19.2556 6.53662 19.2567C6.31026 19.2577 6.11091 19.349 5.93527 19.4783L5.92141 19.4885L5.90909 19.5005C5.6896 19.7143 5.62549 19.9682 5.64706 20.207C5.66749 20.4333 5.76349 20.6412 5.85178 20.7966L5.86826 20.8255L5.89175 20.8492L7.15384 22.1202L5.8924 23.3812C5.54102 23.7325 5.54103 24.3523 5.89239 24.7036L5.8924 24.7036C6.24373 25.0548 6.86365 25.0548 7.21498 24.7036L8.48588 23.4331L9.74679 24.7029L9.74744 24.7036C10.0988 25.0548 10.7187 25.0548 11.07 24.7036L11.07 24.7036C11.4214 24.3523 11.4214 23.7325 11.07 23.3812L11.0694 23.3806L9.79924 22.1202L11.07 20.8499L11.0779 20.842L11.085 20.8335C11.2636 20.62 11.3573 20.3943 11.3464 20.1527C11.3359 19.9187 11.2287 19.7105 11.0916 19.5252L11.0685 19.4939L11.0369 19.4712C10.8138 19.3103 10.5811 19.2581 10.3574 19.2812C10.1415 19.3035 9.94917 19.3941 9.79199 19.4921L9.67965 19.5621L9.67827 19.5968L8.48588 20.7888L7.21433 19.527ZM19.3168 19.8271V19.8267L19.3031 19.8274C18.8086 19.8546 18.3958 20.3145 18.4229 20.8093C18.4498 21.3015 18.9058 21.7123 19.3977 21.6897H24.8421C25.3409 21.6957 25.7851 21.2572 25.7851 20.7584C25.7851 20.2595 25.3408 19.8211 24.8422 19.8271H24.833H24.8223H24.8115H24.8007H24.7899H24.7791H24.7684H24.7576H24.7468H24.736H24.7252H24.7144H24.7037H24.6929H24.6821H24.6713H24.6605H24.6497H24.639H24.6282H24.6174H24.6066H24.5958H24.585H24.5742H24.5634H24.5527H24.5419H24.5311H24.5203H24.5095H24.4987H24.4879H24.4771H24.4664H24.4556H24.4448H24.434H24.4232H24.4124H24.4016H24.3908H24.38H24.3692H24.3584H24.3477H24.3369H24.3261H24.3153H24.3045H24.2937H24.2829H24.2721H24.2613H24.2505H24.2397H24.2289H24.2181H24.2073H24.1965H24.1857H24.1749H24.1641H24.1534H24.1426H24.1318H24.121H24.1102H24.0994H24.0886H24.0778H24.067H24.0562H24.0454H24.0346H24.0238H24.013H24.0022H23.9914H23.9806H23.9698H23.959H23.9482H23.9374H23.9266H23.9158H23.905H23.8942H23.8834H23.8726H23.8618H23.851H23.8402H23.8294H23.8186H23.8078H23.797H23.7862H23.7754H23.7646H23.7537H23.7429H23.7321H23.7213H23.7105H23.6997H23.6889H23.6781H23.6673H23.6565H23.6457H23.6349H23.6241H23.6133H23.6025H23.5917H23.5809H23.5701H23.5593H23.5485H23.5377H23.5268H23.516H23.5052H23.4944H23.4836H23.4728H23.462H23.4512H23.4404H23.4296H23.4188H23.408H23.3972H23.3864H23.3755H23.3647H23.3539H23.3431H23.3323H23.3215H23.3107H23.2999H23.2891H23.2783H23.2675H23.2566H23.2458H23.235H23.2242H23.2134H23.2026H23.1918H23.181H23.1702H23.1594H23.1486H23.1377H23.1269H23.1161H23.1053H23.0945H23.0837H23.0729H23.0621H23.0513H23.0404H23.0296H23.0188H23.008H22.9972H22.9864H22.9756H22.9648H22.954H22.9431H22.9323H22.9215H22.9107H22.8999H22.8891H22.8783H22.8675H22.8567H22.8458H22.835H22.8242H22.8134H22.8026H22.7918H22.781H22.7702H22.7594H22.7485H22.7377H22.7269H22.7161H22.7053H22.6945H22.6837H22.6729H22.662H22.6512H22.6404H22.6296H22.6188H22.608H22.5972H22.5864H22.5755H22.5647H22.5539H22.5431H22.5323H22.5215H22.5107H22.4999H22.489H22.4782H22.4674H22.4566H22.4458H22.435H22.4242H22.4134H22.4026H22.3917H22.3809H22.3701H22.3593H22.3485H22.3377H22.3269H22.3161H22.3052H22.2944H22.2836H22.2728H22.262H22.2512H22.2404H22.2296H22.2188H22.2079H22.1971H22.1863H22.1755H22.1647H22.1539H22.1431H22.1323H22.1215H22.1106H22.0998H22.089H22.0782H22.0674H22.0566H22.0458H22.035H22.0242H22.0133H22.0025H21.9917H21.9809H21.9701H21.9593H21.9485H21.9377H21.9269H21.9161H21.9052H21.8944H21.8836H21.8728H21.862H21.8512H21.8404H21.8296H21.8188H21.808H21.7972H21.7864H21.7755H21.7647H21.7539H21.7431H21.7323H21.7215H21.7107H21.6999H21.6891H21.6783H21.6675H21.6567H21.6459H21.635H21.6242H21.6134H21.6026H21.5918H21.581H21.5702H21.5594H21.5486H21.5378H21.527H21.5162H21.5054H21.4946H21.4838H21.473H21.4622H21.4513H21.4405H21.4297H21.4189H21.4081H21.3973H21.3865H21.3757H21.3649H21.3541H21.3433H21.3325H21.3217H21.3109H21.3001H21.2893H21.2785H21.2677H21.2569H21.2461H21.2353H21.2245H21.2137H21.2029H21.1921H21.1813H21.1705H21.1597H21.1489H21.1381H21.1273H21.1165H21.1057H21.0949H21.0841H21.0733H21.0625H21.0517H21.0409H21.0301H21.0193H21.0085H20.9977H20.9869H20.9761H20.9653H20.9545H20.9437H20.9329H20.9221H20.9113H20.9005H20.8897H20.879H20.8682H20.8574H20.8466H20.8358H20.825H20.8142H20.8034H20.7926H20.7818H20.771H20.7602H20.7494H20.7386H20.7279H20.7171H20.7063H20.6955H20.6847H20.6739H20.6631H20.6523H20.6415H20.6307H20.62H20.6092H20.5984H20.5876H20.5768H20.566H20.5552H20.5444H20.5337H20.5229H20.5121H20.5013H20.4905H20.4797H20.4689H20.4582H20.4474H20.4366H20.4258H20.415H20.4042H20.3934H20.3827H20.3719H20.3611H20.3503H20.3395H20.3288H20.318H20.3072H20.2964H20.2856H20.2749H20.2641H20.2533H20.2425H20.2317H20.221H20.2102H20.1994H20.1886H20.1779H20.1671H20.1563H20.1455H20.1347H20.124H20.1132H20.1024H20.0916H20.0809H20.0701H20.0593H20.0486H20.0378H20.027H20.0162H20.0055H19.9947H19.9839H19.9731H19.9624H19.9516H19.9408H19.9301H19.9193H19.9085H19.8978H19.887H19.8762H19.8655H19.8547H19.8439H19.8332H19.8224H19.8116H19.8009H19.7901H19.7793H19.7686H19.7578H19.747H19.7363H19.7255H19.7148H19.704H19.6932H19.6825H19.6717H19.661H19.6502H19.6394H19.6287H19.6179H19.6072H19.5964H19.5856H19.5749H19.5641H19.5534H19.5426H19.5319H19.5211H19.5104H19.4996H19.4888H19.4781H19.4673H19.4566H19.4458H19.4351H19.4243H19.4136H19.4028H19.3921H19.3813H19.3706H19.3598H19.3491H19.3383H19.3276H19.3168ZM22.1176 13.8545C26.6933 13.8545 30.3977 17.548 30.3977 22.121C30.3977 26.6937 26.6937 30.3769 22.1176 30.3769C17.542 30.3769 13.8482 26.6941 13.8482 22.121C13.8482 17.5475 17.5424 13.8545 22.1176 13.8545Z" fill="#364556" stroke="#364556" stroke-width="0.5"/>
</svg>
