<svg width="36" height="42" viewBox="0 0 36 42" fill="none" xmlns="http://www.w3.org/2000/svg">
<path fill-rule="evenodd" clip-rule="evenodd" d="M17.4306 9.84298C25.3652 9.84298 31.7933 16.271 31.7933 24.2057C31.7933 32.1738 25.3652 38.6019 17.4306 38.6019C9.46245 38.6019 3.03438 32.1738 3.03438 24.2057C3.03438 16.271 9.46245 9.84298 17.4306 9.84298ZM34.5386 24.2057C34.5386 14.7645 26.8718 7.09766 17.4306 7.09766C7.95587 7.09766 0.289062 14.7645 0.289062 24.2057C0.289062 33.6804 7.95587 41.3472 17.4306 41.3472C26.8718 41.3472 34.5386 33.6804 34.5386 24.2057ZM15.6562 7.09766H17.4306H17.9997V3.54883H21.5486V1.17178H20.3768V0H13.2791V1.17178H12.1073V3.54883H15.6562V7.09766Z" fill="white"/>
<path fill-rule="evenodd" clip-rule="evenodd" d="M29.8145 5.89307L35.7069 10.6472L33.6312 12.8903L27.4375 8.27011L29.8145 5.89307Z" fill="white"/>
<path fill-rule="evenodd" clip-rule="evenodd" d="M10.9356 15.3672L19.1716 23.6366L17.0959 25.8798L8.55859 17.7108L10.9356 15.3672Z" fill="white"/>
</svg>
