<svg width="46" height="48" viewBox="0 0 46 48" fill="none" xmlns="http://www.w3.org/2000/svg">
<path fill-rule="evenodd" clip-rule="evenodd" d="M30.0372 19.6903C29.4864 19.1396 28.6052 19.0661 28.1278 19.5802L21.7756 25.9325L19.6826 23.8395C19.1318 23.2887 18.2506 23.2153 17.7365 23.7294C17.2592 24.2067 17.2959 25.0879 17.8834 25.6387L21.0045 28.7598C21.5553 29.3473 22.4365 29.384 22.9138 28.9066L30.1841 21.6364C30.6981 21.1223 30.6247 20.2778 30.0372 19.6903ZM28.6786 7.90373L23.3177 0.376465L17.9569 7.90373L9.21788 5.00298L9.2546 14.2927L0.515625 17.12L5.91323 24.6106L0.515625 32.1011L9.2546 34.9285L9.21788 44.2182L17.9569 41.3175L23.3177 48.8814L28.6786 41.3175L37.4176 44.2182V34.9285L46.1198 32.1011L40.7222 24.6106L46.1198 17.12L37.4176 14.2927V5.00298L28.6786 7.90373ZM27.7239 10.9514L34.8106 8.60138V16.1654L41.934 18.4786L37.5277 24.6106L41.934 30.7426L34.8106 33.0558V40.6198L27.7239 38.2698L23.3177 44.4018L18.9115 38.2698L11.7882 40.6198L11.8249 33.0558L4.6648 30.7426L9.10773 24.6106L4.6648 18.4786L11.8249 16.1654L11.7882 8.60138L18.9115 10.9514L23.3177 4.81939L27.7239 10.9514Z" fill="white"/>
</svg>
