<svg width="54" height="21" viewBox="0 0 54 21" fill="none" xmlns="http://www.w3.org/2000/svg">
<path d="M53.7405 15.4826C53.7405 18.3803 51.3905 20.7303 48.4928 20.7303H27.7248C24.8271 20.7303 22.4771 18.3803 22.4771 15.4826V5.34374C22.4771 2.44602 24.8271 0.0960083 27.7248 0.0960083H48.4928C51.3905 0.0960083 53.7405 2.44602 53.7405 5.34374V15.4826Z" fill="#364556"/>
<path d="M27.6904 16.5524V5.59842H25.5229V3.43097H31.7345V5.59842H29.5691V16.5545H27.6904V16.5524ZM37.6084 6.69806V16.5524H35.8868V15.5738C35.5238 16.4017 34.9931 16.8157 34.2925 16.8157C33.1653 16.8157 32.6006 16.0238 32.6006 14.4402V6.69806H34.2946V13.1367C34.2946 13.6653 34.3244 14.0432 34.3859 14.2703C34.4942 14.6631 34.7128 14.8584 35.0376 14.8584C35.39 14.8584 35.6257 14.6461 35.7424 14.2194C35.8061 13.9753 35.8401 13.5655 35.8401 12.9924V6.69806H37.6084ZM39.122 16.5524V3.43097H40.8777V7.53235C41.1706 6.80208 41.6674 6.43695 42.3658 6.43695C43.2574 6.43695 43.8412 7.07381 44.1172 8.34329C44.2573 8.98439 44.3273 10.0947 44.3273 11.6719C44.3273 13.2047 44.2509 14.3001 44.098 14.9581C43.8093 16.1958 43.2192 16.8135 42.3297 16.8135C41.5867 16.8135 41.073 16.3826 40.7906 15.5207V16.5503L39.122 16.5524ZM41.7438 8.34965C41.264 8.34965 40.9689 8.8549 40.8585 9.86538C40.8352 10.0692 40.8267 10.7931 40.8267 12.0371C40.8267 12.9966 40.8458 13.5953 40.8861 13.833C41.0008 14.5654 41.2852 14.9327 41.7438 14.9327C42.1705 14.9327 42.4295 14.4847 42.5229 13.5868C42.5462 13.4 42.5568 12.7546 42.5568 11.6528C42.5568 10.5129 42.5484 9.86114 42.5292 9.70192C42.438 8.80183 42.1747 8.34965 41.7438 8.34965ZM48.9891 13.1707H50.6386C50.6386 13.2153 50.6407 13.2811 50.645 13.3617C50.6492 13.4445 50.6513 13.5082 50.6513 13.5528C50.6513 14.6885 50.4412 15.5143 50.023 16.0344C49.6026 16.5524 48.953 16.8135 48.0699 16.8135C47.1571 16.8135 46.499 16.4972 46.0978 15.8689C45.7794 15.3679 45.5756 14.6397 45.4864 13.6802C45.4461 13.2598 45.427 12.468 45.427 11.3047C45.427 10.3685 45.4461 9.70192 45.4864 9.30494C45.5649 8.49825 45.7369 7.88687 46.0044 7.46654C46.4417 6.78086 47.1444 6.43695 48.1145 6.43695C49.0486 6.43695 49.7321 6.80845 50.1652 7.55146C50.5155 8.15223 50.6895 9.36651 50.6895 11.1922V11.9394H47.242C47.2293 12.0477 47.2229 12.2579 47.2229 12.5699C47.2229 13.3023 47.2526 13.8267 47.3142 14.1387C47.4416 14.7819 47.7027 15.1025 48.0996 15.1025C48.6941 15.1025 48.9891 14.4593 48.9891 13.1707ZM47.2293 10.377H48.9297V9.96091C48.9297 9.39411 48.8894 8.99076 48.8108 8.753C48.6898 8.37301 48.4414 8.18407 48.0699 8.18407C47.76 8.18407 47.5392 8.31357 47.4076 8.57468C47.2505 8.89735 47.1847 9.36014 47.2123 9.96091L47.2208 10.0968C47.2272 10.1923 47.2293 10.2857 47.2293 10.377Z" fill="white"/>
<path d="M3.34762 16.6267V11.033L0.685547 3.43097H2.78082L4.31777 8.39636L5.8335 3.43097H7.86933L5.25396 11.0308V16.6267H3.34762ZM8.52105 11.6762C8.52105 9.9694 8.65055 8.75937 8.90954 8.04396C9.2959 6.98253 10.0601 6.45181 11.2022 6.45181C12.3422 6.45181 13.1107 6.98253 13.5013 8.04396C13.7603 8.753 13.8898 9.96303 13.8898 11.6762C13.8898 13.3872 13.7603 14.5994 13.5013 15.3063C13.1107 16.3614 12.3443 16.89 11.2022 16.89C10.0601 16.89 9.2959 16.3592 8.90954 15.2978C8.65055 14.5909 8.52105 13.383 8.52105 11.6762ZM10.3319 11.8057C10.3319 13.0327 10.3382 13.6993 10.351 13.8075C10.4422 14.6928 10.7225 15.1343 11.1895 15.1343C11.6565 15.1343 11.9431 14.7543 12.0471 13.9965C12.0684 13.8309 12.079 13.211 12.079 12.139V11.1731C12.079 10.169 12.0662 9.56393 12.0408 9.35802C11.9304 8.6044 11.6523 8.22865 11.2022 8.22865C10.7649 8.22865 10.4932 8.55982 10.3828 9.22215C10.3488 9.43232 10.3297 9.98851 10.3297 10.8907L10.3319 11.8057ZM20.2181 6.71717V16.6267H18.4879V15.6417C18.1228 16.4739 17.5878 16.89 16.8852 16.89C15.7515 16.89 15.1826 16.0939 15.1826 14.5017V6.71717H16.8873V13.1919C16.8873 13.7226 16.917 14.1026 16.9786 14.3298C17.0889 14.7246 17.3076 14.9221 17.6345 14.9221C17.989 14.9221 18.2247 14.7076 18.3436 14.2788C18.4072 14.0326 18.4412 13.6229 18.4412 13.0454V6.71717H20.2181Z" fill="#364556"/>
</svg>
