<svg width="15" height="15" viewBox="0 0 15 15" fill="none" xmlns="http://www.w3.org/2000/svg">
<path d="M1.16575 10.9852H3.37444V13.7781C3.37444 13.9381 3.47448 14.0862 3.62251 14.1462C3.67453 14.1666 3.72654 14.1782 3.77456 14.1782C3.8786 14.1782 3.98263 14.1346 4.05865 14.0586L7.13161 10.9852H14.3018C14.5219 10.9852 14.7019 10.8092 14.7019 10.5851V1.06614C14.7019 0.846497 14.5219 0.666016 14.3018 0.666016H1.16575C0.946106 0.666016 0.765625 0.846497 0.765625 1.06614V10.5851C0.765625 10.8092 0.946106 10.9852 1.16575 10.9852ZM3.51089 3.90664H11.9579C12.1788 3.90664 12.358 4.08594 12.358 4.30676C12.358 4.52762 12.1788 4.70689 11.9579 4.70689H3.51089C3.29 4.70689 3.11076 4.52762 3.11076 4.30676C3.11076 4.08594 3.29 3.90664 3.51089 3.90664ZM3.51089 6.94878H11.9579C12.1788 6.94878 12.358 7.12802 12.358 7.34891C12.358 7.56976 12.1788 7.74903 11.9579 7.74903H3.51089C3.29 7.74903 3.11076 7.56976 3.11076 7.34891C3.11076 7.12802 3.29 6.94878 3.51089 6.94878Z" fill="#364556"/>
</svg>
