<svg width="109" height="116" viewBox="0 0 109 116" fill="none" xmlns="http://www.w3.org/2000/svg">
<mask id="path-1-inside-1" fill="white">
<path d="M106.333 69.6H98.8687C98.533 68.6352 98.1458 67.6891 97.7087 66.7657L102.983 61.4955C103.345 61.1329 103.549 60.6413 103.549 60.1286C103.549 59.616 103.345 59.1243 102.983 58.7617L92.0441 47.8249C91.6815 47.4624 91.1899 47.2588 90.6772 47.2588C90.1646 47.2588 89.6729 47.4624 89.3103 47.8249L84.0401 53.0951C83.1163 52.659 82.1702 52.2718 81.2058 51.9351V44.4667C81.2058 43.9539 81.0021 43.4622 80.6395 43.0996C80.277 42.737 79.7852 42.5333 79.2725 42.5333H73.4667V9.66667C73.4636 7.10385 72.4442 4.64688 70.632 2.83469C68.8198 1.02251 66.3628 0.00306986 63.8 0H9.66667C7.10385 0.00306986 4.64688 1.02251 2.83469 2.83469C1.02251 4.64688 0.00306986 7.10385 0 9.66667V106.333C0.00306986 108.896 1.02251 111.353 2.83469 113.165C4.64688 114.977 7.10385 115.997 9.66667 116H79.2667C79.7794 116 80.2712 115.796 80.6337 115.434C80.9963 115.071 81.2 114.579 81.2 114.067V106.602C82.1642 106.265 83.1102 105.878 84.0343 105.442L89.3045 110.712C89.6671 111.075 90.1588 111.278 90.6714 111.278C91.1841 111.278 91.6757 111.075 92.0383 110.712L102.977 99.7755C103.34 99.4129 103.543 98.9212 103.543 98.4086C103.543 97.896 103.34 97.4043 102.977 97.0417L97.7029 91.7695C98.1403 90.847 98.5276 89.9015 98.8629 88.9372H106.333C106.846 88.9372 107.338 88.7335 107.7 88.3709C108.063 88.0084 108.267 87.5166 108.267 87.0039V71.5333C108.267 71.0206 108.063 70.5288 107.7 70.1663C107.338 69.8037 106.846 69.6 106.333 69.6ZM56.8052 3.86667L55.4055 6.6642C55.245 6.98529 54.9983 7.25537 54.6931 7.4442C54.3878 7.63303 54.036 7.73314 53.6771 7.73333H19.7896C19.4307 7.73314 19.0788 7.63303 18.7736 7.4442C18.4683 7.25537 18.2216 6.98529 18.0612 6.6642L16.6615 3.86667H56.8052ZM3.86667 106.333V9.66667C3.86667 8.12841 4.47774 6.65316 5.56545 5.56545C6.65316 4.47774 8.12841 3.86667 9.66667 3.86667H12.3385L14.6025 8.39453C15.0812 9.36015 15.8209 10.1723 16.7377 10.7389C17.6546 11.3054 18.7118 11.6038 19.7896 11.6H53.6771C54.7548 11.6038 55.8121 11.3054 56.7289 10.7389C57.6458 10.1723 58.3855 9.36015 58.8642 8.39453L61.1281 3.86667H63.8C65.3383 3.86667 66.8135 4.47774 67.9012 5.56545C68.9889 6.65316 69.6 8.12841 69.6 9.66667V42.5333H63.8C63.2873 42.5333 62.7955 42.737 62.4329 43.0996C62.0704 43.4622 61.8667 43.9539 61.8667 44.4667V51.9313C60.9022 52.2679 59.9562 52.6551 59.0324 53.0913L53.7621 47.821C53.3996 47.4586 52.9079 47.2549 52.3953 47.2549C51.8826 47.2549 51.391 47.4586 51.0284 47.821L40.0896 58.7579C39.7272 59.1204 39.5235 59.6121 39.5235 60.1247C39.5235 60.6374 39.7272 61.129 40.0896 61.4916L45.3637 66.7619C44.9267 67.6852 44.5394 68.6313 44.2037 69.5961H36.7333C36.2206 69.5961 35.7288 69.7998 35.3663 70.1624C35.0037 70.525 34.8 71.0167 34.8 71.5295V86.9961C34.8 87.5089 35.0037 88.0006 35.3663 88.3632C35.7288 88.7258 36.2206 88.9295 36.7333 88.9295H44.1979C44.5333 89.8938 44.9205 90.8393 45.3579 91.7618L40.0838 97.034C39.7214 97.3965 39.5177 97.8882 39.5177 98.4009C39.5177 98.9135 39.7214 99.4052 40.0838 99.7677L51.0226 110.705C51.3852 111.067 51.8768 111.271 52.3895 111.271C52.9021 111.271 53.3938 111.067 53.7563 110.705L59.0266 105.434C59.9506 105.87 60.8967 106.257 61.8609 106.594V112.133H9.66667C8.12841 112.133 6.65316 111.522 5.56545 110.435C4.47774 109.347 3.86667 107.872 3.86667 106.333ZM104.4 85.0667H97.4632C97.0465 85.0665 96.6408 85.2009 96.3067 85.45C95.9726 85.6991 95.7279 86.0495 95.6091 86.449C95.1222 88.1035 94.4639 89.7026 93.6449 91.2205C93.4461 91.5869 93.3711 92.0077 93.431 92.4202C93.491 92.8327 93.6826 93.2148 93.9774 93.5095L98.8765 98.4067L90.6733 106.608L85.7762 101.713C85.4816 101.418 85.0999 101.227 84.6878 101.167C84.2757 101.107 83.8553 101.182 83.4891 101.38C81.9697 102.197 80.3701 102.856 78.7157 103.344C78.3162 103.463 77.9658 103.708 77.7167 104.042C77.4676 104.376 77.3331 104.782 77.3333 105.198V112.133H65.7333V105.198C65.7335 104.782 65.5991 104.376 65.35 104.042C65.1009 103.708 64.7505 103.463 64.351 103.344C62.6965 102.856 61.0969 102.197 59.5776 101.38C59.2114 101.182 58.791 101.107 58.3789 101.167C57.9668 101.227 57.585 101.418 57.2905 101.713L52.3933 106.608L44.1902 98.4067L49.0893 93.5115C49.3837 93.2165 49.575 92.8343 49.6346 92.4218C49.6942 92.0093 49.6189 91.5886 49.4199 91.2224C48.6023 89.7041 47.9447 88.1051 47.4575 86.4509C47.3391 86.0511 47.0946 85.7003 46.7604 85.4508C46.4263 85.2013 46.0205 85.0666 45.6035 85.0667H38.6667V73.4667H45.6035C46.0202 73.4669 46.4259 73.3324 46.76 73.0833C47.0941 72.8342 47.3388 72.4838 47.4575 72.0843C47.9454 70.4298 48.603 68.8302 49.4199 67.3109C49.6184 66.9449 49.6935 66.5246 49.6339 66.1125C49.5743 65.7004 49.3833 65.3186 49.0893 65.0238L44.1902 60.1267L52.3933 51.9255L57.2885 56.8207C57.5831 57.115 57.9648 57.3064 58.3769 57.3663C58.789 57.4262 59.2095 57.3515 59.5757 57.1532C61.0947 56.3354 62.6944 55.6772 64.3491 55.1889C64.7489 55.0705 65.0997 54.826 65.3492 54.4918C65.5987 54.1577 65.7334 53.7519 65.7333 53.3349V46.4H77.3333V53.3349C77.3331 53.7516 77.4676 54.1573 77.7167 54.4914C77.9658 54.8255 78.3162 55.0702 78.7157 55.1889C80.3703 55.6772 81.97 56.3354 83.4891 57.1532C83.8553 57.3515 84.2757 57.4262 84.6878 57.3663C85.0999 57.3064 85.4816 57.115 85.7762 56.8207L90.6733 51.9255L98.8765 60.1267L93.9774 65.0219C93.6831 65.3164 93.4917 65.6982 93.4318 66.1103C93.3718 66.5224 93.4466 66.9428 93.6449 67.309C94.4632 68.8278 95.1215 70.4275 95.6091 72.0824C95.7279 72.4819 95.9726 72.8323 96.3067 73.0814C96.6408 73.3305 97.0465 73.4649 97.4632 73.4647H104.4V85.0667Z"/>
</mask>
<path d="M106.333 69.6H98.8687C98.533 68.6352 98.1458 67.6891 97.7087 66.7657L102.983 61.4955C103.345 61.1329 103.549 60.6413 103.549 60.1286C103.549 59.616 103.345 59.1243 102.983 58.7617L92.0441 47.8249C91.6815 47.4624 91.1899 47.2588 90.6772 47.2588C90.1646 47.2588 89.6729 47.4624 89.3103 47.8249L84.0401 53.0951C83.1163 52.659 82.1702 52.2718 81.2058 51.9351V44.4667C81.2058 43.9539 81.0021 43.4622 80.6395 43.0996C80.277 42.737 79.7852 42.5333 79.2725 42.5333H73.4667V9.66667C73.4636 7.10385 72.4442 4.64688 70.632 2.83469C68.8198 1.02251 66.3628 0.00306986 63.8 0H9.66667C7.10385 0.00306986 4.64688 1.02251 2.83469 2.83469C1.02251 4.64688 0.00306986 7.10385 0 9.66667V106.333C0.00306986 108.896 1.02251 111.353 2.83469 113.165C4.64688 114.977 7.10385 115.997 9.66667 116H79.2667C79.7794 116 80.2712 115.796 80.6337 115.434C80.9963 115.071 81.2 114.579 81.2 114.067V106.602C82.1642 106.265 83.1102 105.878 84.0343 105.442L89.3045 110.712C89.6671 111.075 90.1588 111.278 90.6714 111.278C91.1841 111.278 91.6757 111.075 92.0383 110.712L102.977 99.7755C103.34 99.4129 103.543 98.9212 103.543 98.4086C103.543 97.896 103.34 97.4043 102.977 97.0417L97.7029 91.7695C98.1403 90.847 98.5276 89.9015 98.8629 88.9372H106.333C106.846 88.9372 107.338 88.7335 107.7 88.3709C108.063 88.0084 108.267 87.5166 108.267 87.0039V71.5333C108.267 71.0206 108.063 70.5288 107.7 70.1663C107.338 69.8037 106.846 69.6 106.333 69.6ZM56.8052 3.86667L55.4055 6.6642C55.245 6.98529 54.9983 7.25537 54.6931 7.4442C54.3878 7.63303 54.036 7.73314 53.6771 7.73333H19.7896C19.4307 7.73314 19.0788 7.63303 18.7736 7.4442C18.4683 7.25537 18.2216 6.98529 18.0612 6.6642L16.6615 3.86667H56.8052ZM3.86667 106.333V9.66667C3.86667 8.12841 4.47774 6.65316 5.56545 5.56545C6.65316 4.47774 8.12841 3.86667 9.66667 3.86667H12.3385L14.6025 8.39453C15.0812 9.36015 15.8209 10.1723 16.7377 10.7389C17.6546 11.3054 18.7118 11.6038 19.7896 11.6H53.6771C54.7548 11.6038 55.8121 11.3054 56.7289 10.7389C57.6458 10.1723 58.3855 9.36015 58.8642 8.39453L61.1281 3.86667H63.8C65.3383 3.86667 66.8135 4.47774 67.9012 5.56545C68.9889 6.65316 69.6 8.12841 69.6 9.66667V42.5333H63.8C63.2873 42.5333 62.7955 42.737 62.4329 43.0996C62.0704 43.4622 61.8667 43.9539 61.8667 44.4667V51.9313C60.9022 52.2679 59.9562 52.6551 59.0324 53.0913L53.7621 47.821C53.3996 47.4586 52.9079 47.2549 52.3953 47.2549C51.8826 47.2549 51.391 47.4586 51.0284 47.821L40.0896 58.7579C39.7272 59.1204 39.5235 59.6121 39.5235 60.1247C39.5235 60.6374 39.7272 61.129 40.0896 61.4916L45.3637 66.7619C44.9267 67.6852 44.5394 68.6313 44.2037 69.5961H36.7333C36.2206 69.5961 35.7288 69.7998 35.3663 70.1624C35.0037 70.525 34.8 71.0167 34.8 71.5295V86.9961C34.8 87.5089 35.0037 88.0006 35.3663 88.3632C35.7288 88.7258 36.2206 88.9295 36.7333 88.9295H44.1979C44.5333 89.8938 44.9205 90.8393 45.3579 91.7618L40.0838 97.034C39.7214 97.3965 39.5177 97.8882 39.5177 98.4009C39.5177 98.9135 39.7214 99.4052 40.0838 99.7677L51.0226 110.705C51.3852 111.067 51.8768 111.271 52.3895 111.271C52.9021 111.271 53.3938 111.067 53.7563 110.705L59.0266 105.434C59.9506 105.87 60.8967 106.257 61.8609 106.594V112.133H9.66667C8.12841 112.133 6.65316 111.522 5.56545 110.435C4.47774 109.347 3.86667 107.872 3.86667 106.333ZM104.4 85.0667H97.4632C97.0465 85.0665 96.6408 85.2009 96.3067 85.45C95.9726 85.6991 95.7279 86.0495 95.6091 86.449C95.1222 88.1035 94.4639 89.7026 93.6449 91.2205C93.4461 91.5869 93.3711 92.0077 93.431 92.4202C93.491 92.8327 93.6826 93.2148 93.9774 93.5095L98.8765 98.4067L90.6733 106.608L85.7762 101.713C85.4816 101.418 85.0999 101.227 84.6878 101.167C84.2757 101.107 83.8553 101.182 83.4891 101.38C81.9697 102.197 80.3701 102.856 78.7157 103.344C78.3162 103.463 77.9658 103.708 77.7167 104.042C77.4676 104.376 77.3331 104.782 77.3333 105.198V112.133H65.7333V105.198C65.7335 104.782 65.5991 104.376 65.35 104.042C65.1009 103.708 64.7505 103.463 64.351 103.344C62.6965 102.856 61.0969 102.197 59.5776 101.38C59.2114 101.182 58.791 101.107 58.3789 101.167C57.9668 101.227 57.585 101.418 57.2905 101.713L52.3933 106.608L44.1902 98.4067L49.0893 93.5115C49.3837 93.2165 49.575 92.8343 49.6346 92.4218C49.6942 92.0093 49.6189 91.5886 49.4199 91.2224C48.6023 89.7041 47.9447 88.1051 47.4575 86.4509C47.3391 86.0511 47.0946 85.7003 46.7604 85.4508C46.4263 85.2013 46.0205 85.0666 45.6035 85.0667H38.6667V73.4667H45.6035C46.0202 73.4669 46.4259 73.3324 46.76 73.0833C47.0941 72.8342 47.3388 72.4838 47.4575 72.0843C47.9454 70.4298 48.603 68.8302 49.4199 67.3109C49.6184 66.9449 49.6935 66.5246 49.6339 66.1125C49.5743 65.7004 49.3833 65.3186 49.0893 65.0238L44.1902 60.1267L52.3933 51.9255L57.2885 56.8207C57.5831 57.115 57.9648 57.3064 58.3769 57.3663C58.789 57.4262 59.2095 57.3515 59.5757 57.1532C61.0947 56.3354 62.6944 55.6772 64.3491 55.1889C64.7489 55.0705 65.0997 54.826 65.3492 54.4918C65.5987 54.1577 65.7334 53.7519 65.7333 53.3349V46.4H77.3333V53.3349C77.3331 53.7516 77.4676 54.1573 77.7167 54.4914C77.9658 54.8255 78.3162 55.0702 78.7157 55.1889C80.3703 55.6772 81.97 56.3354 83.4891 57.1532C83.8553 57.3515 84.2757 57.4262 84.6878 57.3663C85.0999 57.3064 85.4816 57.115 85.7762 56.8207L90.6733 51.9255L98.8765 60.1267L93.9774 65.0219C93.6831 65.3164 93.4917 65.6982 93.4318 66.1103C93.3718 66.5224 93.4466 66.9428 93.6449 67.309C94.4632 68.8278 95.1215 70.4275 95.6091 72.0824C95.7279 72.4819 95.9726 72.8323 96.3067 73.0814C96.6408 73.3305 97.0465 73.4649 97.4632 73.4647H104.4V85.0667Z" fill="#E4B820" stroke="#E4B820" stroke-width="2" mask="url(#path-1-inside-1)"/>
<path d="M71.5323 97.1667H71.5329C76.2785 97.1614 80.8282 95.2739 84.1839 91.9182C87.5395 88.5626 89.427 84.0128 89.4323 79.2672V79.2667C89.4323 75.7264 88.3825 72.2656 86.4156 69.322C84.4487 66.3783 81.6531 64.084 78.3823 62.7292C75.1115 61.3744 71.5124 61.0199 68.0402 61.7106C64.5679 62.4013 61.3784 64.1061 58.8751 66.6095C56.3717 69.1128 54.6669 72.3023 53.9762 75.7745C53.2856 79.2468 53.64 82.8459 54.9949 86.1167C56.3497 89.3875 58.6439 92.1831 61.5876 94.15C64.5312 96.1169 67.992 97.1667 71.5323 97.1667ZM59.995 61.9998C63.4099 59.718 67.4249 58.5001 71.532 58.5C77.0377 58.5066 82.3161 60.6966 86.2092 64.5898C90.1024 68.483 92.2925 73.7614 92.299 79.2673C92.2989 83.3743 91.0809 87.3891 88.7992 90.804C86.5173 94.2191 83.274 96.8808 79.4794 98.4526C75.6847 100.024 71.5093 100.436 67.4809 99.6343C63.4526 98.833 59.7523 96.8552 56.848 93.9509C53.9438 91.0467 51.9659 87.3464 51.1647 83.318C50.3634 79.2897 50.7746 75.1142 52.3464 71.3196C53.9182 67.525 56.5799 64.2817 59.995 61.9998Z" fill="#E4B820" stroke="#E4B820"/>
<path d="M14.457 20.7266C15.3286 20.1442 16.3533 19.8334 17.4016 19.8334C18.8072 19.8334 20.1553 20.3918 21.1492 21.3857C22.1432 22.3797 22.7016 23.7277 22.7016 25.1334C22.7016 26.1816 22.3907 27.2063 21.8084 28.0779C21.226 28.9495 20.3982 29.6288 19.4298 30.0299C18.4613 30.4311 17.3957 30.536 16.3676 30.3315C15.3395 30.127 14.3951 29.6223 13.6539 28.881C12.9127 28.1398 12.4079 27.1955 12.2034 26.1674C11.9989 25.1393 12.1039 24.0736 12.505 23.1052C12.9061 22.1367 13.5855 21.309 14.457 20.7266ZM16.0497 27.1566C16.4498 27.424 16.9203 27.5667 17.4016 27.5667C18.0469 27.5667 18.6659 27.3103 19.1222 26.854C19.5785 26.3977 19.8349 25.7787 19.8349 25.1334C19.8349 24.6521 19.6922 24.1816 19.4248 23.7815C19.1574 23.3813 18.7774 23.0694 18.3328 22.8853C17.8881 22.7011 17.3989 22.6529 16.9268 22.7468C16.4548 22.8407 16.0212 23.0724 15.6809 23.4127C15.3406 23.7531 15.1089 24.1866 15.015 24.6587C14.9211 25.1307 14.9693 25.6199 15.1535 26.0646C15.3376 26.5092 15.6495 26.8892 16.0497 27.1566Z" fill="#E4B820" stroke="#E4B820"/>
<path d="M27.5664 22.7V19.8334H43.9664V22.7H27.5664Z" fill="#E4B820" stroke="#E4B820"/>
<path d="M27.5664 30.4333V27.5667H34.2997V30.4333H27.5664Z" fill="#E4B820" stroke="#E4B820"/>
<path d="M14.457 40.0598C15.3286 39.4775 16.3533 39.1666 17.4016 39.1666C18.8072 39.1666 20.1553 39.725 21.1492 40.719C22.1432 41.7129 22.7016 43.061 22.7016 44.4666C22.7016 45.5149 22.3907 46.5396 21.8084 47.4111C21.226 48.2827 20.3982 48.962 19.4298 49.3632C18.4613 49.7643 17.3957 49.8693 16.3676 49.6648C15.3395 49.4603 14.3951 48.9555 13.6539 48.2143C12.9127 47.4731 12.4079 46.5287 12.2034 45.5006C11.9989 44.4725 12.1039 43.4069 12.505 42.4384C12.9061 41.47 13.5855 40.6422 14.457 40.0598ZM16.0497 46.4899C16.4498 46.7573 16.9203 46.9 17.4016 46.9C18.0469 46.9 18.6659 46.6436 19.1222 46.1873C19.5785 45.7309 19.8349 45.112 19.8349 44.4666C19.8349 43.9854 19.6922 43.5149 19.4248 43.1147C19.1574 42.7146 18.7774 42.4027 18.3328 42.2185C17.8881 42.0343 17.3989 41.9862 16.9268 42.08C16.4548 42.1739 16.0212 42.4057 15.6809 42.746C15.3406 43.0863 15.1089 43.5199 15.015 43.9919C14.9211 44.4639 14.9693 44.9532 15.1535 45.3978C15.3376 45.8425 15.6495 46.2225 16.0497 46.4899Z" fill="#E4B820" stroke="#E4B820"/>
<path d="M27.5664 42.0333V39.1666H43.9664V42.0333H27.5664Z" fill="#E4B820" stroke="#E4B820"/>
<path d="M27.5664 49.7667V46.9H34.2997V49.7667H27.5664Z" fill="#E4B820" stroke="#E4B820"/>
<path d="M14.457 59.3932C15.3286 58.8108 16.3533 58.5 17.4016 58.5C18.8072 58.5 20.1553 59.0584 21.1492 60.0523C22.1432 61.0463 22.7016 62.3944 22.7016 63.8C22.7016 64.8482 22.3907 65.8729 21.8084 66.7445C21.226 67.6161 20.3982 68.2954 19.4298 68.6966C18.4613 69.0977 17.3957 69.2027 16.3676 68.9982C15.3395 68.7937 14.3951 68.2889 13.6539 67.5477C12.9127 66.8064 12.4079 65.8621 12.2034 64.834C11.9989 63.8059 12.1039 62.7402 12.505 61.7718C12.9061 60.8033 13.5855 59.9756 14.457 59.3932ZM16.0497 65.8232C16.4498 66.0906 16.9203 66.2333 17.4016 66.2333C18.0469 66.2333 18.6659 65.977 19.1222 65.5206C19.5785 65.0643 19.8349 64.4454 19.8349 63.8C19.8349 63.3187 19.6922 62.8483 19.4248 62.4481C19.1574 62.048 18.7774 61.7361 18.3328 61.5519C17.8881 61.3677 17.3989 61.3195 16.9268 61.4134C16.4548 61.5073 16.0212 61.7391 15.6809 62.0794C15.3406 62.4197 15.1089 62.8533 15.015 63.3253C14.9211 63.7973 14.9693 64.2866 15.1535 64.7312C15.3376 65.1758 15.6495 65.5559 16.0497 65.8232Z" fill="#E4B820" stroke="#E4B820"/>
<path d="M27.5664 61.3667V58.5H34.2997V61.3667H27.5664Z" fill="#E4B820" stroke="#E4B820"/>
<path d="M27.5664 69.1V66.2333H30.4331V69.1H27.5664Z" fill="#E4B820" stroke="#E4B820"/>
<path d="M14.457 78.7265C15.3286 78.1442 16.3533 77.8333 17.4016 77.8333C18.8072 77.8333 20.1553 78.3917 21.1492 79.3856C22.1432 80.3796 22.7016 81.7277 22.7016 83.1333C22.7016 84.1816 22.3907 85.2063 21.8084 86.0778C21.226 86.9494 20.3982 87.6287 19.4298 88.0299C18.4613 88.431 17.3957 88.536 16.3676 88.3315C15.3395 88.127 14.3951 87.6222 13.6539 86.881C12.9127 86.1398 12.4079 85.1954 12.2034 84.1673C11.9989 83.1392 12.1039 82.0735 12.505 81.1051C12.9061 80.1366 13.5855 79.3089 14.457 78.7265ZM16.0497 85.1566C16.4498 85.4239 16.9203 85.5666 17.4016 85.5666C18.0469 85.5666 18.6659 85.3103 19.1222 84.8539C19.5785 84.3976 19.8349 83.7787 19.8349 83.1333C19.8349 82.652 19.6922 82.1816 19.4248 81.7814C19.1574 81.3813 18.7774 81.0694 18.3328 80.8852C17.8881 80.701 17.3989 80.6528 16.9268 80.7467C16.4548 80.8406 16.0212 81.0724 15.6809 81.4127C15.3406 81.753 15.1089 82.1866 15.015 82.6586C14.9211 83.1306 14.9693 83.6199 15.1535 84.0645C15.3376 84.5091 15.6495 84.8892 16.0497 85.1566Z" fill="#E4B820" stroke="#E4B820"/>
<path d="M27.5664 80.7V77.8333H30.4331V80.7H27.5664Z" fill="#E4B820" stroke="#E4B820"/>
<path d="M27.5664 88.4334V85.5667H30.4331V88.4334H27.5664Z" fill="#E4B820" stroke="#E4B820"/>
</svg>
