<svg width="35" height="36" viewBox="0 0 35 36" fill="none" xmlns="http://www.w3.org/2000/svg">
<circle cx="17.5" cy="17.928" r="17.5" fill="#7294C7"/>
<path d="M26.0808 22.4039C26.0808 22.3313 26.0082 22.3313 26.0082 22.2587C25.7176 21.6775 25.0638 20.9511 24.192 20.152C23.7562 19.7887 23.5382 19.4981 23.3929 19.3529C23.175 19.0623 23.175 18.8443 23.2477 18.5538C23.3203 18.3358 23.6109 17.9726 24.1194 17.3188C24.41 16.9556 24.5553 16.7376 24.7732 16.5197C25.8629 15.0668 26.3714 14.1224 26.2261 13.6865L26.1535 13.6139C26.0808 13.5413 26.0082 13.4686 25.8629 13.4686C25.7176 13.396 25.4997 13.396 25.2817 13.4686H22.5212C22.4486 13.4686 22.4486 13.4686 22.3033 13.4686C22.2306 13.4686 22.158 13.4686 22.158 13.4686H22.0853H22.0127L21.94 13.5413C21.8674 13.6139 21.8674 13.6139 21.8674 13.6865C21.5768 14.4856 21.2136 15.1394 20.8504 15.8659C20.6324 16.2291 20.4145 16.5923 20.1966 16.8829C19.9786 17.1735 19.8333 17.3914 19.688 17.5367C19.5427 17.682 19.3975 17.7547 19.3248 17.9C19.2522 17.9726 19.1069 18.0452 19.1069 17.9726C19.0342 17.9726 18.9616 17.9726 18.9616 17.9C18.8889 17.8273 18.8163 17.7547 18.7437 17.682C18.671 17.6094 18.671 17.4641 18.5984 17.3188C18.5984 17.1735 18.5984 17.0282 18.5984 16.9556C18.5984 16.8829 18.5984 16.665 18.5984 16.5197C18.5984 16.3018 18.5984 16.1565 18.5984 16.0838C18.5984 15.8659 18.5984 15.5753 18.5984 15.2847C18.5984 14.9942 18.5984 14.7762 18.5984 14.6309C18.5984 14.4856 18.5984 14.2677 18.5984 14.1224C18.5984 13.9045 18.5984 13.7592 18.5984 13.6865C18.5984 13.6139 18.5257 13.4686 18.5257 13.396C18.4531 13.3233 18.3804 13.2507 18.3078 13.178C18.2351 13.1054 18.0899 13.1054 18.0172 13.0327C17.654 12.9601 17.2181 12.8875 16.7096 12.8875C15.5473 12.8875 14.7482 12.9601 14.4576 13.1054C14.3123 13.178 14.167 13.2507 14.0944 13.396C13.9491 13.5413 13.9491 13.6139 14.0217 13.6139C14.385 13.6865 14.6755 13.8318 14.8208 14.0498L14.8935 14.1951C14.9661 14.2677 14.9661 14.413 15.0388 14.6309C15.1114 14.8489 15.1114 15.0668 15.1114 15.3574C15.1114 15.7932 15.1114 16.2291 15.1114 16.5197C15.1114 16.8829 15.0388 17.1009 15.0388 17.3188C15.0388 17.5367 14.9661 17.682 14.8935 17.7547C14.8208 17.9 14.8208 17.9726 14.7482 17.9726C14.7482 17.9726 14.7482 18.0452 14.6755 18.0452C14.6029 18.0452 14.5302 18.1179 14.385 18.1179C14.3123 18.1179 14.167 18.0452 14.0944 17.9726C13.9491 17.9 13.8038 17.7547 13.7312 17.6094C13.5859 17.4641 13.4406 17.2461 13.2953 16.9556C13.15 16.665 12.932 16.3744 12.7868 15.9385L12.6415 15.648C12.5688 15.5027 12.4235 15.2121 12.2783 14.8489C12.133 14.4856 11.9877 14.1951 11.8424 13.8318C11.7697 13.6865 11.6971 13.6139 11.6245 13.5413H11.5518C11.5518 13.5413 11.4791 13.4686 11.4065 13.4686C11.3339 13.4686 11.2612 13.396 11.1886 13.396H8.57335C8.28277 13.396 8.13748 13.4686 8.06484 13.5413L7.99219 13.6139C7.99219 13.6139 7.99219 13.6865 7.99219 13.7592C7.99219 13.8318 7.99219 13.9045 8.06484 14.0498C8.42806 14.9215 8.86393 15.7933 9.2998 16.665C9.73567 17.4641 10.1715 18.1905 10.4621 18.6991C10.8254 19.2076 11.1159 19.7161 11.4792 20.152C11.8424 20.5878 12.0603 20.8784 12.133 21.0237C12.2782 21.169 12.3509 21.2416 12.4235 21.3143L12.6415 21.5322C12.7868 21.6775 13.0047 21.8954 13.2953 22.1134C13.5859 22.3313 13.9491 22.5492 14.3123 22.7672C14.6755 22.9851 15.1114 23.1304 15.5473 23.2757C16.0558 23.421 16.4917 23.4936 16.9275 23.421H18.0172C18.2351 23.421 18.3804 23.3483 18.5257 23.203L18.5984 23.1304C18.5984 23.0578 18.671 23.0578 18.671 22.9851C18.671 22.9125 18.671 22.8398 18.671 22.6945C18.671 22.404 18.671 22.186 18.7437 21.9681C18.8163 21.7501 18.8163 21.6049 18.889 21.4596C18.9616 21.3143 19.0342 21.2416 19.1069 21.169C19.1795 21.0963 19.2522 21.0237 19.2522 21.0237H19.3248C19.4701 20.951 19.688 21.0237 19.8333 21.169C20.0513 21.3143 20.2692 21.5322 20.4145 21.7501C20.5598 21.9681 20.7777 22.186 21.0683 22.4766C21.3589 22.7672 21.5768 22.9851 21.7221 23.0578L21.94 23.203C22.0853 23.2757 22.2306 23.3483 22.4486 23.421C22.6665 23.4936 22.8118 23.4936 22.9571 23.4936L25.427 23.421C25.645 23.421 25.8629 23.3483 26.0082 23.2757C26.1535 23.2031 26.2261 23.1304 26.2261 22.9851C26.2261 22.9125 26.2261 22.7672 26.2261 22.6945C26.0808 22.5492 26.0808 22.4766 26.0808 22.4039Z" fill="white"/>
</svg>
