<svg width="36" height="36" viewBox="0 0 36 36" fill="none" xmlns="http://www.w3.org/2000/svg">
<circle cx="17.875" cy="17.6841" r="17.5" fill="#48C95F"/>
<path d="M24.811 10.7385C23.0823 9.01587 20.7774 8.05884 18.3445 8.05884C13.2866 8.05884 9.18902 12.1422 9.18902 17.1825C9.18902 18.7776 9.6372 20.3726 10.4055 21.7125L9.125 26.4338L13.9909 25.1578C15.3354 25.8596 16.8079 26.2424 18.3445 26.2424C23.4024 26.2424 27.5 22.1591 27.5 17.1187C27.436 14.7581 26.5396 12.4612 24.811 10.7385ZM22.7622 20.4364C22.5701 20.9469 21.6738 21.4573 21.2256 21.5211C20.8415 21.5849 20.3293 21.5849 19.8171 21.4573C19.497 21.3297 19.0488 21.2021 18.5366 20.9469C16.2317 19.9898 14.7591 17.693 14.6311 17.5015C14.503 17.3739 13.6707 16.2893 13.6707 15.1409C13.6707 13.9924 14.247 13.482 14.439 13.2268C14.6311 12.9716 14.8872 12.9716 15.0793 12.9716C15.2073 12.9716 15.3994 12.9716 15.5274 12.9716C15.6555 12.9716 15.8476 12.9078 16.0396 13.3544C16.2317 13.801 16.6799 14.9495 16.7439 15.0133C16.8079 15.1409 16.8079 15.2685 16.7439 15.3961C16.6799 15.5237 16.6159 15.6513 16.4878 15.7789C16.3598 15.9065 16.2317 16.0979 16.1677 16.1617C16.0396 16.2893 15.9116 16.4169 16.0396 16.6083C16.1677 16.8635 16.6159 17.5653 17.3201 18.2034C18.2165 18.969 18.9207 19.2242 19.1768 19.3518C19.4329 19.4794 19.561 19.4156 19.689 19.288C19.8171 19.1604 20.2652 18.65 20.3933 18.3948C20.5213 18.1396 20.7134 18.2034 20.9055 18.2672C21.0976 18.331 22.25 18.9052 22.4421 19.0328C22.6982 19.1604 22.8262 19.2242 22.8902 19.288C22.9543 19.4794 22.9543 19.926 22.7622 20.4364Z" fill="white"/>
</svg>
